<svg xmlns="http://www.w3.org/2000/svg" xmlns:xlink="http://www.w3.org/1999/xlink" width="199" height="257" viewBox="0 0 199 257">
  <defs>
    <clipPath id="clip-path">
      <rect id="Rectangle_293" data-name="Rectangle 293" width="199" height="257" transform="translate(1126 109)" fill="#fff" stroke="#707070" stroke-width="1"/>
    </clipPath>
    <clipPath id="clip-path-2">
      <rect id="Rectangle_15" data-name="Rectangle 15" width="212" height="278" transform="translate(557 256.802)" fill="#fff" stroke="#707070" stroke-width="1"/>
    </clipPath>
    <clipPath id="clip-path-3">
      <path id="Path_123" data-name="Path 123" d="M58.243,77.072a6.883,6.883,0,1,0-6.723-6.881,6.826,6.826,0,0,0,6.723,6.881" transform="translate(-51.52 -63.31)" fill="none"/>
    </clipPath>
    <clipPath id="clip-path-6">
      <path id="Path_304" data-name="Path 304" d="M37.405,77.682A6.882,6.882,0,1,0,30.66,70.8a6.807,6.807,0,0,0,6.745,6.881" transform="translate(-30.66 -63.92)" fill="none"/>
    </clipPath>
  </defs>
  <g id="Mask_Group_9" data-name="Mask Group 9" transform="translate(-1126 -109)" clip-path="url(#clip-path)">
    <g id="Mask_Group_1" data-name="Mask Group 1" transform="translate(562 -168.802)" clip-path="url(#clip-path-2)">
      <g id="Layer_1" data-name="Layer 1" transform="translate(564.968 281.578)">
        <g id="Group_6" data-name="Group 6" transform="translate(0 0)">
          <path id="Path_1" data-name="Path 1" d="M34.106,114.16l2.331-2.241,4.255-2.626,4.142-5.387,1.924-5.523,3.35-6.044,2.58-2.105.77-.77-2.309-.792-2.467-.792-1.924.136-3.735,3.01-.407-6.564-1.132-1.72L38.5,78.8,37.23,72.647l.385-3.825,2.445-6.587,2.06-3.939-2.445-.656-4.527,3.8-2.694,5.93-4.006,4.595.77,8.692-.634,15.754-1.947,14.056-1.652,8.149L14.006,152.527l-3.214,16.162-1.154,13.4-.407,8.941H31.684l-.656-5.795L29.217,169.1l-1.4-21.164,2.309-14.6,3.984-19.172" transform="translate(11.683 72.863)" fill="#fff"/>
          <path id="Path_2" data-name="Path 2" d="M21.31,146.644l7.085-16.954,4.663-8.149,7.2-13.672,5.93-6.813,6.451-4.867,5.681-2.49L54.2,103,49.151,115.5,45.417,133.38l-2.422,13.264H21.31" transform="translate(26.946 118.426)" fill="#fff"/>
          <path id="Path_3" data-name="Path 3" d="M30.89,147.819l2.694-18.787,8.239-25.623,3.871-7.221L47.64,92.77h1.788l-.883,4.346L46.712,105.9l4.527,17.474,7.221,12.879,1.947,4.731,1.154-9.19L66.314,117.6l3.871-7.492,3.35-12.993.656-3.418,4.12,8.4,3.35,13.4,4.776,13.4,3.1,11.431.136,7.107-58.784.385" transform="translate(39.051 117.251)" fill="#ed145b"/>
          <path id="Path_4" data-name="Path 4" d="M63.847,169.887l-1.041-13.4L57.4,142.159,51.33,121.515l4.5,2.241,7.221,3.69,6.066,3.8,1.426.792-.77-5-5.161-13.4-2.467-5.387-.747-6.428,2.445-10.254L66.926,82.9l4.006-4.21L74.146,75l1.947.407-.136,2.739-1.811,5-2.829,4.731v1.449l2.309.792L77.5,88.4l1.562,5.274,2.173,1.969,1.7,1.426,2.309-4.459,2.965-2.9,4.5-2.354,2.082,3.146-2.331,8.013L84.717,112.71l-3.1,10.254,1.313,8.533,4.889,12.359,2.309,9.733,3.757,15.256H74.78l-10.933,1.041" transform="translate(64.877 94.798)" fill="#fff"/>
          <path id="Path_5" data-name="Path 5" d="M130.549,5.949c4.346,2.807,4.731,8.013,4.731,12.993a26.748,26.748,0,0,1,15.731-7.832c7.809-1.381,16.048.951,19.942,8.284a4.052,4.052,0,0,0,.634,1.426c1.313,6.632-1.539,12.427-6.768,16.75,4.55-.385,9.258-.34,13.128,1.7,5.025,1.471,9.529,5.976,11.974,10.706.724,2.761,1.766,6.089-.249,8.6-2.377,3.6-6.247,5.681-9.824,7.492a18.964,18.964,0,0,1,2.626.905,20.444,20.444,0,0,1,3.961,1.517,24.593,24.593,0,0,1,9.1,9.529,9.54,9.54,0,0,1-1.494,9.348,16.433,16.433,0,0,1-10.163,4.821l-.158.181c4.889,1.562,7.311,6.5,8.013,11.227.77,4.889-.407,9.394-4.12,12.653-3.486,2.988-7.832,4.165-12.495,4.459v.272c3.554,3.373,4.323,8.149,3.848,13.2-.883,4.482-3.916,9.1-8.669,9.892a24.622,24.622,0,0,1-8.126.747c.905,5.455.86,11.951-4.21,15.369a11.36,11.36,0,0,1-10.933,1.245,12.479,12.479,0,0,1-2.9,4.55c2.852.43,4.889-1.879,7.719-1.517,1.019.905,1.313,2.241,2.082,3.282.86,1.743,2.626,3.033,3.056,4.889a17.024,17.024,0,0,0-1.992,5.025c-.181.068-.43.068-.43.34a5.324,5.324,0,0,1,3.3,3.373,2.447,2.447,0,0,1,2.105,1.245c1.154,2.06.883,5.342.158,7.492-1.064,2.218-2.512,4.255-3.735,6.406-3.01,5.636-6.609,11.046-8.579,17.2a18.2,18.2,0,0,0,1.222,13.083c1.4,3.757,3.1,7.356,4.391,11.137a54.214,54.214,0,0,1,2.626,11.046c.543,1.992.77,4.074,1.4,5.976.045.521-.566.521-.815.747a.63.63,0,0,1-.77-.566c-.724-3.418-1.743-6.745-2.218-10.3-.883-4.821-2.92-9.1-4.64-13.558-.973-3.441-3.3-6.315-3.4-10.186-1.064-4.8.589-9.145,2.264-13.174q4.278-8.318,8.918-16.365c1.856-2.354,1.992-5.636,1.245-8.488a21.455,21.455,0,0,0-4.98,2.784c-.679,1.041-1.811,1.811-2.309,3.01a22.746,22.746,0,0,0-1.019,3.033c1.72-1.426,2.965-3.939,5.229-4.278a1.983,1.983,0,0,1,1.154.905c-.158.589-.928.815-1.4,1.2-1.833,1.313-2.535,4.686-5.161,4.029l-.973-.34c-2.037,2.173-4.753,3.508-6.451,6.066a14.055,14.055,0,0,0-3.961,11.137c-.475.226-1.4-.091-1.9-.091l-.249-.566.249-3.825c.724-5.183,5.274-9.009,9.1-12.223l1.584-1.584c-.747-.272-1.584-.136-2.128-.792-.249-.679,0-1.856-1.177-1.517-1.2-1.517-2.15-3.373-1.584-5.365-1.358-.362-2.2,1.335-3.531,1.087-1.2-.34-2.422-.747-3.644-1.087l-.249-.272c.385-5.206,5.817-8.194,5.387-13.74l-.158-.181c-2.762,3.78-7.651,6.677-8.76,11.386-1.041,4.64-2.309,9.235-3.644,13.74-1.2,4.889,1.449,9.054,3.146,13.219,1.743,1.652,2.286,4.029,3.146,6.157a48.082,48.082,0,0,1,2.558,9.529c1.109,5.342,1.313,10.955,2.173,16.207.521,6.315,3.327,11.657,2.648,18.448a2.115,2.115,0,0,1-1.584.34c-1.109-1.471-.068-3.6-.5-5.229-.475-4.165-1.879-7.945-2.286-12.155-.86-4.323-1.154-8.918-1.743-13.377-1.268-.905-2.264-1.992-3.576-2.807-4.074-3.463-8.964-4.934-13.128-8.149l-.249-.249c.091,1.856,1.222,3.463,1.584,5.387a87.111,87.111,0,0,0,2.988,9.96,90.093,90.093,0,0,0,3.825,11.5,66.889,66.889,0,0,1,3.441,12.947c-.045.656.158,1.471-.543,1.788l-1.584.158c.045-4.21-1.268-7.832-2.422-11.476-1.494-4.278-2.965-8.579-4.459-12.857-2.037-6.5-3.554-13.287-6.112-19.579-.543-.656-.543-1.471-1.154-2.06-.158,4.369-1.539,8.443-2.875,12.381-2.173,4.029-3.78,8.352-5.7,12.495a53.018,53.018,0,0,0-3.418,11.34c-.385,3.327-1.064,6.587-.747,9.892a3.819,3.819,0,0,1-2.218.34,42.392,42.392,0,0,0-5.161-10.39c-4.708-7.832-8.284-16.116-9.1-25.6-.2-4.414,1.449-8.33,2.988-12.132l-.091-.091c-3.78,7.334-8.081,14.441-9.914,22.567a172.09,172.09,0,0,0-5.817,25.035c-.566,0-1.29.747-1.7.091,0-3.508,1.019-6.745,1.494-10.186a203.171,203.171,0,0,1,6.836-24.31c1.743-3.69,3.486-7.356,5.319-10.955a6.583,6.583,0,0,0-2.331,1.268c-4.21,3.69-9.484,6.247-12.585,11.137-2.761,4.731-5.953,9.235-7.99,14.26-2.875,5.749-5.591,11.612-8.964,17.2-.724,0-1.607.34-2.218.091,5.863-8.873,8.805-19.059,14.622-27.977,2.784-5.749,7.424-10.186,12.744-13.649,2.761-2.626,6.451-4.029,9.19-6.949,1.268-2.06,1.947-4.369,3.056-6.5.136-.385.045-.86.521-1,.294-.045.634-.045.815-.34a100.017,100.017,0,0,0-1.743-20.236c-.091-1.177-.86-2.128-1.064-3.214l.249-.656c-3.871-2.694-7.424-5.908-11.521-8.013L73.44,167c-.634.724-.86,1.811-1.833,2.377a6.141,6.141,0,0,1-5.183,1.335,5.825,5.825,0,0,1-4.618-3.554c-2.241,3.644-3.192,7.922-5.229,11.725-2.241,2.739-4.8,5.523-8.081,6.723-3.3,2.422-2.513,7.243-3.644,10.955-1.494,9.009-4.255,17.5-4.029,27.253-.385,10.5,1.154,22.183,3.056,32.866l.543,5.546a6.545,6.545,0,0,1-1.9.362c-.2-5.365-1.494-10.48-2.128-15.777A138.419,138.419,0,0,1,38.9,229.88c-.43-2.377.091-5.161-.091-7.673.181-8.262,2.015-15.8,3.327-23.609a18.461,18.461,0,0,0,.7-3.735c.611-2.648.815-5.41,1.833-7.832.589-.272.362-1.177,1.064-1.268.86-1.788,3.1-1.335,4.323-2.694,2.128-1.766,4.391-3.825,5.206-6.5,1.766-3.939,2.965-8.149,5.3-11.883a18.2,18.2,0,0,1,2.875-2.286c-.249-.7-1.132-.181-1.652-.43-.951-.385-2.105-1.2-3.146-.385l-2.716,2.671H55.4c-.43.656.86,1.4-.091,1.879-.679-.045-1.7.249-1.743-.7a20.9,20.9,0,0,1-.634-7.583c.045-.34.521-.566.475-1-.973-1.426-2.965-.475-4.12-1.517l-1.584.091c.158,1.517.928,2.988,1.154,4.55.928,6.066-.181,12.132-1.064,17.837-.385.566-1.222.362-1.811.521-.294-.656.158-1.381.158-2.128,1.109-6.36,1.833-14.079-.589-20.055-1.675-3.124-3.146-7.2-1.494-10.8a33.858,33.858,0,0,0,3.576-5.455c-.136-.475.521-.792.158-1.222-.973.747-1.517,1.7-2.626,2.309-1.154,1.29-2.852,1.992-3.825,3.531-.475,2.354.815,4.278.589,6.542a74.419,74.419,0,0,1-.589,17.112c-.815,1.743-.2,4.074-.905,5.84.385,2.377-.679,4.3-.407,6.5-.294,2.512-1.584,4.64-1.313,7.221-.86,3.327-1.4,6.858-2.558,10.1-3.1,9.009-6.542,17.927-8.964,27.253a155.927,155.927,0,0,0-4.844,28.656c.113,3.735-.249,7.515,0,11.272.226.272.43.86-.158.86-.656-.113-1.268.7-1.743,0-.113-6.881-.226-13.242.724-20.145a166.376,166.376,0,0,1,7.47-32.708,35.973,35.973,0,0,1,1.788-4.889c.815-3.056,2.173-5.885,3.056-8.918,1.154-4.708,3.01-9.145,3.146-14.328.634-1.222-.091-2.852,1.471-3.554.226-2.037.249-3.984.43-6.157-.136-1.9.566-3.327.43-5.319a102.823,102.823,0,0,0,1.154-10.888l-.181-.181c-2.852,2.852-7.809,3.237-11.386,1.7-1.584-.747-3.441-1.041-4.8-2.173-.815.136-1.245-.86-1.833-1.041-.634-.951-1.743-1.584-2.241-2.671-.747-1.109-1.992-2.218-2.309-3.554-.521-.566-.34-1.381-.973-1.9-1.041-2.988-.905-6.066-.77-9.371a34.125,34.125,0,0,1,2.467-8.805c-.815-.475-1.494.453-2.4.272-4.572.43-8.194-1.947-11.091-5.546-2.128-3.124-2.648-6.926-3.78-10.48A20.856,20.856,0,0,1,6.6,97.373v-.34C1.868,92.62.962,86.553.012,80.487-.169,74.647.8,68.92,4.086,64.461a26.864,26.864,0,0,1,7.9-7.673c2.626-1.743,6.677-1.517,9.778-.86.5-.521-.2-.951-.249-1.426a20.487,20.487,0,0,1,.611-11.612c0-1.29.973-2.218,1.154-3.463.883-1.9,2.015-3.712,3.056-5.636A26.709,26.709,0,0,1,34.372,25.6a14.287,14.287,0,0,1,11.386-2.128c3.056.747,5.523,2.807,7.7,5.41.34-.679-.045-1.675.34-2.377a14.089,14.089,0,0,1,1.426-3.531c1.992-5.025,6.451-8.782,10.5-12A18.323,18.323,0,0,1,79.959,6.787c1.562.634,3.214,1.064,4.459,2.58a34.246,34.246,0,0,1,5.229,7.289c1.268-1.833,2.15-3.984,3.939-5.681C98.814,5.293,105.56,2.011,112.622.109a28.118,28.118,0,0,1,8.4.611c3.531.86,7.13,2.286,9.507,5.183" transform="translate(0.009 0.015)" fill="#231f20"/>
          <path id="Path_6" data-name="Path 6" d="M116.6.733c4.052.385,8.126,1.335,11.2,4.142,5.478,3.712,4.8,11.318,3.735,17.022.747.385,1.449,1.607,2.218,1,1.969-4.98,7.175-8.058,11.68-10.05,6.587-2.331,15.686-2.6,20.824,2.807,3.237,3.078,3.146,8.284,1.743,12.155-1.4,4.074-5.07,6.745-7.854,10,.385.656.77,1.381,1.584,1.607,3.01-1.947,6.836-1.517,10.412-1.449a27.369,27.369,0,0,1,9.439,4.074c2.422,2.467,5.138,4.934,5.772,8.239.792,2.467.86,5.591-1.064,7.515-2.467,3.033-6.157,5.025-9.507,6.813a13.244,13.244,0,0,0-3.078.86c-.113.883.905.951,1.335,1.449,4.753-1.29,9.235.77,12.744,3.871,2.807,2.988,6.157,6.315,5.365,10.955-.43,4.233-4.776,6.881-8.33,7.922a34.71,34.71,0,0,1-8.443,1.177c-.475.837.656.86,1.019,1.29,3.576-.272,7.56.656,9.258,4.3,2.218,4.369,3.735,11.386.453,15.754-3.486,4.821-8.828,6.632-14.532,6.338-.838-.249-1.788-.611-2.626,0a.888.888,0,0,0,.566,1c5,2.354,5.591,8.239,5.387,13.468-.407,3.644-2.467,7.266-5.953,8.782-2.807.973-6.881,1.743-9.6,0-.77.136-1.63.045-2.173.656,1.833,4.527,2.037,11.091-1.313,14.962a7.744,7.744,0,0,1-3.667,2.422c-2.513.226-5.478.226-6.677-2.06-.43-.475-.883.249-1.313.091-.34.294-.86.34-1.019.815a8.6,8.6,0,0,1-2.716,5.976c-1.992.86-4.165.521-6.293.951a1.781,1.781,0,0,1-1.494-.86c-.34-.521-.045-1.426-.634-1.766a3.6,3.6,0,0,0-1.992.973c.272,2.2-1.177,4.052-2.807,5.206-1.064.566-2.422,1.109-3.644.521a4.95,4.95,0,0,1-2.105-3.463l-.34-.43c2.309-2.037,4.889-3.78,6.768-6.247a10.947,10.947,0,0,0,1.992-2.671c.589,1.426,2.241,1.29,3.576,1.517,2.852-.136,4.98-2.037,7.356-3.3,5.727-4.459,7.651-11.2,7.538-18.448-.34-4.029-.86-7.922-2.648-11.318-.905-1.313-1.7-3.214-3.486-3.327a5.239,5.239,0,0,0-2.241.317l.34-2.015a5.651,5.651,0,0,0,2.716.181c1.2-.838,3.214-1.335,3.4-3.124-1.924.181-3.871,2.331-5.863.905.928-5.546-1.064-10.955-3.4-15.686l-2.037-3.192a6.114,6.114,0,0,0,5.953-1.517c-.045-.43.5-.589.475-1.086-1.969.226-3.712,1.879-5.953,1.019a7.846,7.846,0,0,1-4.21-4.3,4.9,4.9,0,0,0-1.154.362c-2.082-2.988-5.183-4.685-7.945-6.587a7.7,7.7,0,0,1-1.222-.611,24.5,24.5,0,0,1-4.006-2.513,7.776,7.776,0,0,0,4.255-3.554c-.091-.453.2-1.177-.249-1.245-1.833,1.154-3.554,3.893-5.953,2.943-1.992.679-3.237-1.381-5.229-1.245-3.192-1-6.836-.272-10.163-.611a37.023,37.023,0,0,0-4.459.091c-.091-1.29-1.7-.045-2.173-1.086-1.313-.679,0-2.173-.792-3.124-.2-.226.158-.792-.34-.792A3.1,3.1,0,0,0,91.7,78.711a5.167,5.167,0,0,0,1.471,2.2c-2.377.294-4.527,1.132-6.858,1.607a119.635,119.635,0,0,0-12,5.161c-1.494.521-3.4.724-4.64-.521-.521-.589-.838-1.381-1.313-1.924-.43,0-.634.611-.77.951.181.973.181,2.2,1.268,2.6a14.005,14.005,0,0,0,2.49.838c-6.225,4.8-11.906,11.7-12.246,19.919a3.864,3.864,0,0,1-3.735.317c-.2-.181-.272-.837-.634-.5-.2.611-1.154,1.086-.77,1.788,1.29,1.132,3.441,1,4.98.475-.34,3.984.158,8.058-1.4,11.567a21.367,21.367,0,0,0-4.889,5.908c-.5-.045-1.222-.475-1.833-.181-2.648,2.015-6.293,3.69-6.836,7.334a8.269,8.269,0,0,1-3.146,4.64,8.394,8.394,0,0,0-2.807,2.558,6.918,6.918,0,0,0,.249,3.282,58.6,58.6,0,0,1,.815,9.1c-1.788,2.648-4.98,3.169-7.877,2.943-4.346-1.154-9.326-2.173-11.635-6.655-.724-.86-1.019-1.9-1.743-2.784a23.207,23.207,0,0,1-.34-15.505c.747-1.766,1.154-3.712,2.49-5.251.045-.611-.589-.7-.928-1-.951.045-1.313,1.041-2.218,1.268a8.146,8.146,0,0,1-8.284-1.675c-4.753-3.508-5.523-9.28-6.7-14.554A18.3,18.3,0,0,1,7,97.408c.679-.091,1.743.226,2.173-.656.045-.521-.475-.77-.43-1.335l-1.9-.091C2.589,91.432,1.8,85.615.823,80.115c-.317-8.149,2.49-16.207,8.828-21.322,2.9-3.078,7.651-3.463,11.612-2.422.589.543,1.517.34,2.2.634.272-.181.272-.43.272-.747-3.01-5.93-1.313-13.513,1.562-18.968,2.988-6.157,8.511-12.336,15.324-13.74,2.58-.136,4.957.091,6.881,1.517,1.992,1.517,3.214,3.712,5.116,5.546v.249l1.9.973c.815-.86-.091-2.037.091-3.1C55.125,22.712,59,17.3,63.614,13.567c4.459-4.278,10.3-7.153,16.456-5.885,2.852,1.471,4.323,4.5,6.2,6.791,1.064,1.358.724,3.4,1.313,4.98.589.521,1.2,1.177,2.082,1.041a9.609,9.609,0,0,0,.407-1.947,19.463,19.463,0,0,1,5.342-8.1c4.165-4.844,9.869-7.13,15.392-9.19,1.743-.2,3.214-.77,4.98-.407h.951" transform="translate(1.031 0.953)" fill="#ed145b"/>
          <path id="Path_7" data-name="Path 7" d="M42.744,11.271c.634-1.222,1.4-2.9,2.875-3.282,1.449-.317,1.833,1.426,2.331,2.286a6.578,6.578,0,0,1,1.4,4.12,3.35,3.35,0,0,0-1.335-.362c-.747-1.426-1.222-3.078-2.241-4.278A7.952,7.952,0,0,0,43.9,15.3c-.589-.249-1.4.249-1.992-.294a6.549,6.549,0,0,0-3.056-5.681A5.5,5.5,0,0,0,35.025,8.6c-2.173,1.2-3.35,3.644-4.278,5.7-.249-.43.407-.521.34-.905-.136-.747,1.4-1.652.249-1.947-.543.34-.294,1.154-.838,1.335.068.294-.272.566.158.611-.249.5-.86.475-.724,1.154-.091.181-.317.249-.34.43l.158.2a1.745,1.745,0,0,0-.521,1.607l.249.272c.724-.611.385-1.652,1-2.331A17.387,17.387,0,0,0,29.412,19.1c-.589-.611.905-1.7-.249-2.105-.475.158-.181.815-.272,1.245l.181.158c-.679.226.113.656,0,1.041l.091.068.158-.181c.249.747-.2,1.856.679,2.264-.475-.091-1.109.181-1.494-.249-.453-.34.181-.951-.407-1.086-.226-.521.634-1.2-.249-1.517.023.091.317.317.407,0l-.272-.43h.181a2.3,2.3,0,0,1,.181-1.086c.362.068.34-.34.475-.521-.656-.249.158-.951,0-1.517.407-.113.475-.43.679-.815-.34-.385.2-.656.181-1.086.453-.091.249-.611.543-.86-.294-.362.521-.43.272-.905.747-.453.838-1.652,1.562-1.788.136-.2.453-.294.34-.589,1.833-1.426,4.64-2.264,6.791-1a14.177,14.177,0,0,1,3.531,3.124" transform="translate(35.21 9.542)" fill="#231f20"/>
          <path id="Path_8" data-name="Path 8" d="M30.211,8.662H30.12l.317-.272c.045.136-.136.181-.2.272" transform="translate(38.078 10.635)" fill="#231f20"/>
          <path id="Path_9" data-name="Path 9" d="M30.05,8.839l.091-.249v.158l-.091.091" transform="translate(37.99 10.887)" fill="#231f20"/>
          <path id="Path_10" data-name="Path 10" d="M30.145,9.006c.045.43-.34.521-.5.77-.091-.272.34-.385.091-.611l.249-.385c0,.181.226.045.158.226" transform="translate(37.464 11.128)" fill="#231f20"/>
          <path id="Path_11" data-name="Path 11" d="M75.308,12.669c1.63,2.694,1.879,6.066,1.969,9.371-.272,3.757-.724,7.492-2.626,10.571.543.272,1.313-.045,1.992-.091a2.706,2.706,0,0,1,2.4,1.086c1.517,2.513,1.268,6.36,0,8.918-.521.611-1.154,0-1.675-.068,1.109-2.513,1.4-6.474-.634-8.579-2.943-.249-4.64,2.558-6.474,4.459a3.794,3.794,0,0,1-1.584-.679c.611-.611.905-1.313,1.494-1.924a11.531,11.531,0,0,0,4.12-5.591c.634-.656.385-1.833.928-2.6.634-4.459.86-9.3-.86-13.559-.634-.679-.973-1.72-2.037-1.766-3.282-.294-6.247,1.607-8.126,4.12v.091A2.073,2.073,0,0,1,62.18,15.34c3.033-2.807,6.677-5.229,10.933-4.459a6.065,6.065,0,0,1,2.15,1.811" transform="translate(78.587 13.599)" fill="#231f20"/>
          <path id="Path_12" data-name="Path 12" d="M28.238,12.031H28.08a.232.232,0,0,1,.158-.091v.091" transform="translate(35.5 15.12)" fill="#231f20"/>
          <path id="Path_13" data-name="Path 13" d="M29.606,17.884c-2.761,1.517-4.8,4.55-6.044,7.4-.43,2.648-1.109,6.157.294,8.533.883.634,2.241.566,3.214,1.335.385.77,1.743,1.29,1.245,2.331-2.218-.136-4.459-.566-5.795-2.422-4.165.317-7.56,4.64-8.579,8.488-.928,2.988-2.037,7.062.249,9.711.747-.2,1.154.43,1.652.77a3.158,3.158,0,0,1-2.445.385,3.969,3.969,0,0,1-1.9-1.992c-1.041-4.595.5-8.918,2.354-12.744A13.547,13.547,0,0,1,21.774,33.8a9.021,9.021,0,0,1-.589-4.165,15.917,15.917,0,0,1,3.056-9.19c.724-1.517,2.6-2.535,4.12-3.192.475,0,1.064.136,1.2.611" transform="translate(14.123 21.83)" fill="#231f20"/>
          <path id="Path_14" data-name="Path 14" d="M79.772,37.762c4.5,2.92,9.3,4.934,13.581,8.4,4.708,5.07,10.412,10.435,11.793,17.384,1.381,3.192,1.154,7.311.521,10.774.249-1.63-.724-3.848-.77-5.885-.634-1.268-.543-2.807-1.222-3.984C101,56.867,94.87,51.276,88.8,46c-1.72-1.086-3.576-2.15-5.319-3.192a63.452,63.452,0,0,0-8.579-2.6c-3.825-.34-7.7-1.562-11.816-1a40.5,40.5,0,0,0-18.606,6.066c-2.852,2.309-6.293,4.369-8.556,7.4a23.391,23.391,0,0,0-5.953,11.227c-1.335,3.825-1.947,7.922-2.875,11.861.973-6.361.317-13.423,2.965-19.059,2.422-5.546,7.605-10.05,12.585-13.287,1.7.023,2.626-1.788,4.3-1.879,3.78-2.264,8.1-3.259,12.4-4.3,5.636-1.245,11.137-.566,16.954-.611,1.154.407,2.377.611,3.486,1.132" transform="translate(34.262 46.135)" fill="#fff"/>
          <path id="Path_15" data-name="Path 15" d="M50.964,38.853a17.522,17.522,0,0,0-3.327,7.356A48.144,48.144,0,0,1,45.645,50.6c-.362-.045-.362-.611-.724-.883a11.125,11.125,0,0,1-1.177-6.813c.158-1.562.2-3.418-.973-4.459v-.181a28.544,28.544,0,0,1,8.194.566" transform="translate(54.062 48.281)" fill="#ed145b"/>
          <path id="Path_16" data-name="Path 16" d="M53.021,39.057c1.607,2.467-.679,5.84.973,8.443.294,1.335,1.449,2.241,1.584,3.69-2.807-.77-4.3-3.508-6.428-5.365A20.994,20.994,0,0,0,44.1,41.434c-.543.091-1.2.181-1.471.656.158.611.883.656,1.313.951a25.878,25.878,0,0,1,5.048,5.025l.883.611c-3.282,1.517-7.243.272-10.412-.838a29.843,29.843,0,0,0-6.2-.158c1.947-1.562,4.12-3.056,6.2-4.572,1.63-1.245,3.576-1.584,5.229-2.626,2.716-.656,5.274-1.562,7.99-2.173.249.045.158.521.34.724" transform="translate(42.046 48.439)" fill="#ed145b"/>
          <path id="Path_17" data-name="Path 17" d="M56.588,40.066a6.823,6.823,0,0,1,1.9.43c-5.908,1.222-7.99,8.715-13.649,10.435.905-1.381,1.449-3.282,2.286-4.889a13.538,13.538,0,0,1,3.667-7.4,26.582,26.582,0,0,1,5.772,1.426" transform="translate(56.677 48.856)" fill="#ed145b"/>
          <path id="Path_18" data-name="Path 18" d="M84.9,41.188l1.652,1.268c-5.274.566-8.42,5.749-13.558,6.587a.535.535,0,0,0-.34.656,5.127,5.127,0,0,0,2.173.7c4.867-.838,7.99-6.428,13.219-6.247.045-.158.2-.294.158-.521,2.037,1.517,3.3,3.35,5.319,4.98a16.514,16.514,0,0,0-9.6.656c-1.358.656-2.852-.181-4.21,0-.249.272-.792.34-.747.86,1.4,1.086,3.463.928,5.229.928A14.339,14.339,0,0,1,94.268,50.4c.34-.2.091-.611,0-.883-.113-.045-.091-.181-.091-.272,1.4,1.222,2.354,2.988,3.667,4.414-2.2-.068-4.595.317-6.881-.34-.634-.385-1.4-.475-1.947-1.154a1.9,1.9,0,0,0-1.584,1.086c1.109,1.29,2.761,1.132,4.12,1.7,2.218.656,4.821.294,7.017.34.045-.091.158-.091.249-.091a23.076,23.076,0,0,1,2.875,6.791,14.6,14.6,0,0,1-9.439-4.12,2.15,2.15,0,0,0-1.788.838c.2.838,1.154,1.041,1.7,1.607,1.833.679,3.3,2.241,5.387,2.377a17.474,17.474,0,0,0,4.64,1,25.569,25.569,0,0,1,.588,7.832c-1.4-3.192-4.595-5.161-6.972-7.492a2.828,2.828,0,0,0-1.743.679c-.181.7.77,1.086,1.222,1.449,2.331,1.992,5.07,4.255,5.908,7.334-.905-.181-1.63-1.856-2.671-.86-.294.272-.86.43-.634.86,1.879,1.177,3.486,2.761,3.78,4.98a.829.829,0,0,0,.77.272c-.973,2.9-2.241,5.7-3.056,8.647a76.987,76.987,0,0,0-2.716,17.384c-1.517.521-1.517,2.286-2.422,3.373-4.55,5.863-11.114,9.62-16.365,14.736-4.55,3.848-9.824,9.96-16.433,7.107-6.179-3.508-11.567-8.533-17.814-12.223-1.4-1.268-3.056-2.037-4.278-3.463-3.418-3.033-5.659-7.107-5.229-11.838-.634-2.286-.589-4.8-1.313-7.04-.091-2.49-.543-5-.543-7.424.113-2.286-1-4.074-.928-6.315-.724-1.992-1.019-4.21-1.743-6.247l-.091-.249c.86-.181,1.109-1.426,1.766-2.128.407-1.426,3.757-2.513,1.811-4.12-1.811.5-2.513,2.535-3.8,3.78-.249.385-.521,1.041-1.019,1.132L27.29,72.9c.43-.091,1.268.226,1.471-.475.068-.86.973-1.335.815-2.286.475-.023.973-.34,1.494-.068.294-.611.34-1.313.928-1.788,1.924-3.893,5.455-6.406,7.538-10.276,0-.475-.521-.724-.589-1.154-1.607-.045-2.015,1.72-2.9,2.671-1.7,2.648-4.3,4.64-5.523,7.583l-.34.34a48.73,48.73,0,0,1,2.558-9.529,10.321,10.321,0,0,1,5.41-4.1c2.58-1.335,5.772-1.268,8.579-2.128A2.245,2.245,0,0,0,48.477,50.6c-.294-.475-.5-1.358-1.335-.883A21.733,21.733,0,0,1,40.6,51.238c-.543.475-1.4.136-1.924.611a23.756,23.756,0,0,0-4.21,1.788,24.275,24.275,0,0,1,5.3-6.768,3.433,3.433,0,0,0,2.9.34c2.173.136,4.889,0,6.858,1.177a15.408,15.408,0,0,0,8.533.091.685.685,0,0,0,.091-.77c1.879,1.833,3.961,3.463,6.677,3.4,2.9,1.335,5.161-1.471,7.605-2.513,2.558-2.535,4.8-5.591,7.7-7.492.77.091,1.154-.679,1.9-.611a.637.637,0,0,0,.249-.656,17.579,17.579,0,0,0,2.648,1.4" transform="translate(34.502 50.36)" fill="#fff"/>
          <path id="Path_19" data-name="Path 19" d="M18.762,42.48a.791.791,0,0,1,.249.747c-2.445.385-4.142,2.58-5.749,4.414-1.019,2.331-2.852,4.414-2.716,7.062-.679,4.12-.385,9.529,3.237,12.472,3.735,2.377,7.945,0,11-2.128.226.5.679.883.656,1.517-1.924,1.766-3.825,4.029-3.961,6.836a4.8,4.8,0,0,0,4.8,2.4c.611.045,1.109-.407,1.675-.272,0,.475.091,1-.249,1.335a7.052,7.052,0,0,1-6.542-.792,3.648,3.648,0,0,1-1.494-3.757c.475-1.177.951-2.377,1.494-3.463-1.245.136-2.422.86-3.893.7-2.377.091-4.527-.475-6.021-2.445-.724-1.268-1.743-2.4-1.833-3.961l-.34-.521c-.43-4.278-.905-8.579,1.041-12.223a11.877,11.877,0,0,1,1.562-3.124c.521-1.517,1.947-2.377,2.988-3.554a6.881,6.881,0,0,1,3.644-1.584l.43.34" transform="translate(11.001 53.279)" fill="#231f20"/>
          <path id="Path_20" data-name="Path 20" d="M78.485,50.133A14.859,14.859,0,0,1,78.1,59.39a10.277,10.277,0,0,1-4.482,5.116c2.173,2.558,2.105,7.017.656,9.869a8.688,8.688,0,0,1-2.648,3.214,3.634,3.634,0,0,1-1.743-.272c-.2-.589.679-.656.973-1.086a9.058,9.058,0,0,0,1.924-9.439,3.319,3.319,0,0,0-2.988-2.128c-.385-.34-1.109-.136-1.313-.815,1.245-1.584,3.078.091,4.55-.7A10.721,10.721,0,0,0,76.9,57.783c.43-2.784.883-6.564-1.4-8.533a4.842,4.842,0,0,1-2.2-1c-.045-.226.34-.611.634-.611,1.788-.068,3.893.566,4.55,2.49" transform="translate(86.547 60.225)" fill="#231f20"/>
          <path id="Path_21" data-name="Path 21" d="M62.16,54.971l-.34.385-.091-.475c.158.045.34-.045.43.091" transform="translate(78.018 69.376)" fill="#fff"/>
          <path id="Path_22" data-name="Path 22" d="M70.384,55.041c0,.656-.724,1.177-1.019,1.947-3.146,8.058-6.044,16.252-7.538,25.057-.837,1.856-.77,4.074-1.471,5.976-.521,0-.815-.385-1.245-.566-.928-3.418.181-7.153.589-10.571,1.4-6.5,2.943-12.947,6.112-18.629,1.019-1.517,2.58-3.554,4.55-3.214" transform="translate(74.254 69.532)" fill="#fff"/>
          <path id="Path_23" data-name="Path 23" d="M29.3,57.077c1.132,4.685,2.807,9.1,2.626,14.351.34,2.648.317,5.455,1.064,7.922a34.188,34.188,0,0,1,.656,9.824c-.091.566-.023,1.335-.747,1.517a2.4,2.4,0,0,1-1.833.272.793.793,0,0,1-.656-.724c-2.762-9.145-3.961-18.765-4.459-28.769a7.325,7.325,0,0,0,.181-2.354c.2-1.471.475-3.078,1.856-3.984a2.966,2.966,0,0,1,1.29,1.924" transform="translate(32.809 69.692)" fill="#fff"/>
          <path id="Path_24" data-name="Path 24" d="M60.83,55.25c0,.113.091.34-.091.43l-.249-.43h.34" transform="translate(76.451 69.843)" fill="#fff"/>
          <path id="Path_25" data-name="Path 25" d="M55.712,56.6a13.685,13.685,0,0,1-6.768,4.753A8.191,8.191,0,0,1,46.59,60.9c.045-.77.86-.724,1.313-1.086,1.245.181,1.992-.838,3.078-1.268a19.217,19.217,0,0,1,4.55-3.033c-.091.34.475.7.181,1.064" transform="translate(58.888 70.172)" fill="#231f20"/>
          <path id="Path_26" data-name="Path 26" d="M70.465,76.253c-2.015,4.369-5.251,8.669-9.937,10.254l-.158-.2c1.019-4.233,1.766-8.669,3.056-12.812,1.584-5.749,3.78-11.272,5.863-16.841l.34-.611c2.761,5.84,2.626,13.9.815,20.213" transform="translate(76.3 70.842)" fill="#bcbec0"/>
          <path id="Path_27" data-name="Path 27" d="M45.016,59.047c.113.521.905.77.34,1.335a26.373,26.373,0,0,1-3.3-.43,8.875,8.875,0,0,1-4.731-2.6l.091-.7a.343.343,0,0,1,.43.181c.543-1,1.4.294,2.128.43a8.367,8.367,0,0,0,5.07,1.788" transform="translate(47.175 71.365)" fill="#231f20"/>
          <path id="Path_28" data-name="Path 28" d="M28.994,65.218c1.064,6.451,1.222,13.332,3.146,19.489l.792,2.965c-.453.181-.589-.385-.973-.43-4.006-1.811-8.624-5.636-9.439-10.276-1.29-3.848.294-7.673,1.313-11.137a50.311,50.311,0,0,1,4.98-9.009c-.385,2.9.34,5.5.158,8.4" transform="translate(27.864 71.827)" fill="#bcbec0"/>
          <path id="Path_29" data-name="Path 29" d="M25.808,58.04c-.589,1.788-1.652,3.327-2.331,5.07-.815-.249-1.4-1.041-2.377-.86.611-2.037,2.9-3.033,4.459-4.21h.249" transform="translate(26.681 73.369)" fill="#fff"/>
          <path id="Path_30" data-name="Path 30" d="M67.5,60.078a1.1,1.1,0,0,1-.272,1c.792,1.268,2.218,1.177,3.418,1.539.294.385-.068.792-.521.86-1.992.611-3.8-2.037-5.3.317-.045,1.041.973,1.652,1.743,2.105,0,.2.045.43-.181.521a3.479,3.479,0,0,1-2.716-.43c-.34-.294-.724-.951-1.154-.34-.407.588,0,1.607.34,2.2l.973.838a1.451,1.451,0,0,1-1.584.272c-.837-.724-1.7-1.268-1.992-2.354a1.328,1.328,0,0,0-1.064.294c.249.883.973,1.788.43,2.739-1.177-.181-1.811-1.517-2.331-2.467a2.331,2.331,0,0,0-1.584-.5c-.385.611.362,1.562-.385,2.105a3.046,3.046,0,0,1-1.562-.928c-.2-.521-.181-1.245-.679-1.607-1.652-.294-3.622.294-5.138-.521-.43-.656.249-1.132.679-1.426a15.727,15.727,0,0,1,4.391-.091c.815.158,1.607.34,2.422.521,3.735.928,6.813-.77,9.3-3.463a6.816,6.816,0,0,1,2.49-2.015l.272.86" transform="translate(60.429 74.885)" fill="#231f20"/>
          <path id="Path_31" data-name="Path 31" d="M36.4,62.155a7.246,7.246,0,0,0,7.017,2.784c1.652-.136,3.01-1.087,4.55-1.607,1.109-.77,1.29-2.105,2.694-2.173.43,0,.905.181.973.566v.611l-2.558,2.128a13.245,13.245,0,0,1-3.3,1.245c-.136.792.091,2.241-.928,2.535H43.349c-.158-.611.34-1.652-.294-2.082-1.788-.475-1.29,1.72-2.694,2.173a5.528,5.528,0,0,1-1.562.34c-.158-.86.973-1.562.679-2.513a13.08,13.08,0,0,0-1.743-.43,4.821,4.821,0,0,1-4.052,2.354c.385-.77,1.019-1.154,1.471-1.9.34-.521.86-1.041.634-1.675l-1.132-.951a8.264,8.264,0,0,1-3.486,1.584l-.181-.249c.815-1.041,3.146-1.9,2.6-3.69.407-.43.883-.249,1.4-.181.5.294.724,1.154,1.4,1.154" transform="translate(39.177 77.017)" fill="#231f20"/>
          <path id="Path_32" data-name="Path 32" d="M47.426,63.731c-.634,1.426-.158,3.282-1.041,4.64-.34,1.177-.973,2.218-1.335,3.373-.294.656-1.449,1.086-1.222,1.856,1.313,1.086,2.671,2.06,3.961,3.3.045.2.249.34.158.634a7.657,7.657,0,0,1-2.467.272c-1.449-1.607-3.056-2.558-4.459-4.12.407-.815,1.222-1.268,1.766-2.037,1.63-2.694,1.788-5.93,2.513-9.009a1.19,1.19,0,0,1,2.128,1.064" transform="translate(51.85 78.384)" fill="#231f20"/>
          <path id="Path_33" data-name="Path 33" d="M22.359,63.63A13.255,13.255,0,0,0,24.1,72.367a12,12,0,0,0,.883,1.222,15.342,15.342,0,0,0-3.531,0c-1.086-2.377-1.969-5.817-.589-8.352a4.878,4.878,0,0,1,1.494-1.607" transform="translate(25.49 80.432)" fill="#fff"/>
          <path id="Path_34" data-name="Path 34" d="M48.94,68.076c-1.358.521-1.426,2.422-3.056,2.218-.385-.045-.905.181-1.154-.181.77-1.222,2.082-2.988,3.576-2.943l.634.905" transform="translate(56.538 84.904)" fill="#231f20"/>
          <path id="Path_35" data-name="Path 35" d="M27.077,71.449l.181.181a8.289,8.289,0,0,0-2.807,2.06h-.158A16.5,16.5,0,0,1,24.451,70c.905.385,1.72,1.087,2.648,1.426" transform="translate(30.686 88.48)" fill="#ed145b"/>
          <path id="Path_36" data-name="Path 36" d="M57.142,72.049a6.024,6.024,0,0,1,1.879-.679,5.606,5.606,0,0,1,.43.589c-.045.747-.86,1.041-1.313,1.449-.815.385-1.788-.136-2.558.181a2.306,2.306,0,0,1-1.2,1.335A12.616,12.616,0,0,1,43,74.494c-.905-.272-1.7-.158-2.626-.475-.34-.656.634-.905.973-1.222,1.426.362,2.467-.34,3.871-.068a7.117,7.117,0,0,1,8.375-1.177c1.222.045,2.264,1.041,3.576.5" transform="translate(50.939 89.374)" fill="#231f20"/>
          <path id="Path_37" data-name="Path 37" d="M32.831,71.123c1.154,1.992,3.237,3.69,4.708,5.41-1.4,1-2.422,2.92-4.369,2.762a5.727,5.727,0,0,1-4.731-3.441c-.249.068-.521.181-.77.249l-.091-.091A4.588,4.588,0,0,1,31.134,73.7a.665.665,0,0,0,.272-.905c-.34-.2-.34-.589-.5-.905.656-.181,1.222-.656,1.9-.792" transform="translate(34.869 89.87)" fill="#ed145b"/>
          <path id="Path_38" data-name="Path 38" d="M50.1,72.286c-1.7,1.947-4.685,1.562-6.926,1l-.181-.2c1.4-1,3.35-2.467,5.183-1.222a7.166,7.166,0,0,1,1.924.43" transform="translate(54.34 90.223)" fill="#fff"/>
          <path id="Path_39" data-name="Path 39" d="M42.688,74.118c.475,1.992,2.513,3.644,4.369,4.323a7.535,7.535,0,0,0,5.659-.181c1.788-.747,3.327-2.173,5-3.124-.068.5.475.792.181,1.268a11.462,11.462,0,0,1-11.567,3.554A9.036,9.036,0,0,1,40.2,74.73c-.294-.566.43-1,.724-1.335.407.181.634-.453,1-.091.136.317.475.521.724.838" transform="translate(50.725 92.511)" fill="#231f20"/>
          <path id="Path_40" data-name="Path 40" d="M71.878,73.35c1.313,2.037,2.535,4.074,3.961,6.066-.521,1.471-1.2,2.852-1.675,4.369-1.109-.407-2.082-1.132-3.4-1-.385.091-.77.158-1.154.249.543-.566,1.064-1.471,1.833-1.856.181-1.335-1.358-1.992-1.064-3.373a3.237,3.237,0,0,0-1.019-1.177c-1.743.136-3.576,1.381-5.274.272a3.157,3.157,0,0,1-1.471-1.041l.068-.905c3.327.272,6.293-.656,9.19-1.607" transform="translate(79.143 92.713)" fill="#fff"/>
          <path id="Path_41" data-name="Path 41" d="M61.03,93.611c-.792,5.772-1.562,13.106.815,18.289.249.656.2,1.426.679,1.947.43,5.206-1.154,9.711-2.671,14.17-2.377,3.939-3.622,8.352-5.523,12.472a42.487,42.487,0,0,0-2.988,9.937c-.724,1.947-.385,4.5-.973,6.406-2.422-4.731-5.478-8.986-7.4-13.83a43.761,43.761,0,0,1-4.21-13.649,21.841,21.841,0,0,1,.928-11.227c.2-.905.86-1.584.973-2.513,1.562-1.72,1.924-4.21,2.626-6.428.679-4.278,1.313-9.235.43-13.513.045-4.889-.973-9.484-1.833-14.079,3.146,2.694,7.289,4.64,11.521,3.033.837-.091,1.471-.566,2.286-.656,3.418-1.607,5.953-4.12,8.941-6.768-1,5.387-2.761,10.774-3.622,16.365" transform="translate(48.545 97.578)" fill="#fff"/>
          <path id="Path_42" data-name="Path 42" d="M71.843,79.37c-3.124,1.041-6.2,3.757-6.972,7.13-.091.928-.589,1.652-.634,2.558a1.558,1.558,0,0,1-.5-.951c.181-3.622,1.29-7.017,4.459-9.1.86-.566,2.082-1.245,3.078-.475.2.294.589.475.589.815" transform="translate(80.558 98.826)" fill="#fff"/>
          <path id="Path_43" data-name="Path 43" d="M74.158,81.564c-2.377,1.766-5.568,2.762-7.266,5.614-.679,1.177-.951,2.513-1.562,3.735-.158-.091-.43-.091-.43-.34.34-4.55,1.879-9.62,6.632-11.295,1.426-.181,2.082,1.335,2.626,2.286" transform="translate(82.023 100.185)" fill="#fff"/>
          <path id="Path_44" data-name="Path 44" d="M38.611,93.587c.045.158-.158-.453.181-.34l-.181.34" transform="translate(48.782 117.837)" fill="#ed145b"/>
          <path id="Path_45" data-name="Path 45" d="M46.66,49.094,48.2,49.5l2.06-.453,2.015-1s6.179-5.07,9.982-5.387l-1.607-1.449L57.683,39.7l-.317.724-.521.136-.521.181-.5.34-.385-.136L54.22,41.986l-1.675,1.72s-4.12,4.595-5.863,5.387" transform="translate(58.977 50.196)" fill="#ed145b"/>
          <path id="Path_46" data-name="Path 46" d="M48.765,47.951a22.273,22.273,0,0,0,3.1.045s-.2-1.222,2.762-.7c0,0,.634.656,4.233-.611,0,0,5.432-.656,7.809-.181,0,0-4.618-4.595-5.568-5l-.158.521s-2.218-1.109-9.507,4.482a18.455,18.455,0,0,1-2.716,1.449" transform="translate(61.58 52.47)" fill="#ed145b"/>
          <path id="Path_47" data-name="Path 47" d="M52.438,45.829a29,29,0,0,0,3.373,2.331s.883-1.222,1.72-.815c0,0,1.449,2.309,8.692,1.245l-.362-.656-2.2-2.943L62.443,43.86l.136,1.268-1.856-.521a24.516,24.516,0,0,0-6.9.724,9.086,9.086,0,0,1-1.539.475" transform="translate(66.078 55.452)" fill="#ed145b"/>
          <path id="Path_48" data-name="Path 48" d="M53.98,45.843c2.829,1.788,7.153,1.969,7.153,1.969,1.019,0,3.871-.34,3.871-.34,1.358,1.064,3.214,7.017,3.214,7.017-5.681.2-9.982-4.142-9.982-4.142l-.589.068-.453.407-3.214-5" transform="translate(68.226 57.928)" fill="#ed145b"/>
          <path id="Path_49" data-name="Path 49" d="M56.05,48.9l2.037,4.233a1.513,1.513,0,0,1,1.947.091l3.486,3.056,1.335,1.584,1.652,2.558s.317-6.112-.475-8.488l-2.037-.091a15.564,15.564,0,0,1-5.229-1.7L56.05,48.88" transform="translate(70.841 61.795)" fill="#ed145b"/>
          <path id="Path_50" data-name="Path 50" d="M57.85,51.94,59.91,57.3s1.177-.34,2.671,1.335a10.223,10.223,0,0,0-4.731-6.7" transform="translate(73.116 65.661)" fill="#ed145b"/>
          <path id="Path_51" data-name="Path 51" d="M28.565,70.163l.77-1.245L30.512,67.9l.679-1.177a5.79,5.79,0,0,1,.86-.589,10.249,10.249,0,0,0,1.154-.589l.883-2.558,1.064-2.264,1.358-2.58.951-1.788L38.616,54.7l.679-1.788s1.539-1.584,2.037-2.06a13.181,13.181,0,0,1,2.422-2.06c.5-.2,1.268-1.086,1.652-1.177.362-.113,1.449-.7,1.811-.883a5.678,5.678,0,0,1,2.037-.792c.883-.091,1.947-.2,2.807-.385a4.88,4.88,0,0,0,1.358-.5l-3.282-.385c-3.554-1.743-5.048-1.7-8.986-1.471L39.7,42.82a31.053,31.053,0,0,0-9.778,21.1l-.86,2.965-1.358,1.177-.475.792.566,1.086.77.294" transform="translate(34.426 54.138)" fill="#ed145b"/>
          <path id="Path_52" data-name="Path 52" d="M30.615,52.45a10.321,10.321,0,0,1,5.41-4.1c2.58-1.335,5.772-1.268,8.579-2.128a2.245,2.245,0,0,0,1.743-1.086c-.294-.475-.5-1.358-1.335-.883a21.733,21.733,0,0,1-6.542,1.517c-.543.475-1.4.136-1.924.611a23.757,23.757,0,0,0-4.21,1.788l-1.358.634-1.562,3.01L29.189,52.9l-.249.883S30,52.563,30.592,52.45" transform="translate(36.587 55.78)" fill="#231f20"/>
          <path id="Path_53" data-name="Path 53" d="M29.235,62.9c.068-.86.973-1.335.815-2.286.475-.023.973-.34,1.494-.068.294-.611.34-1.313.928-1.788,1.924-3.893,5.455-6.406,7.538-10.276,0-.475-.521-.724-.589-1.154-1.607-.045-2.015,1.72-2.9,2.671-1.7,2.648-4.3,4.64-5.523,7.583l-.5.521-1.154.883L27.99,61.41l-1.064,1.177s-.091.838.045.951c.136.091,1.947.023,2.264-.634" transform="translate(34.006 59.836)" fill="#231f20"/>
          <path id="Path_54" data-name="Path 54" d="M28.882,58.927c.86-.181,1.109-1.426,1.766-2.128.407-1.426,3.757-2.513,1.811-4.12-1.811.5-2.513,2.535-3.8,3.78l-.905,1.449.249.543.883.475" transform="translate(35.084 66.596)" fill="#231f20"/>
          <g id="Group_1" data-name="Group 1" transform="translate(116.637 143.337)" clip-path="url(#clip-path-3)">
            <rect id="Rectangle_13" data-name="Rectangle 13" width="13.491" height="13.762" transform="translate(-0.023 0)" fill="#fff"/>
            <path id="Path_55" data-name="Path 55" d="M64.941,70.071A6.747,6.747,0,1,1,58.2,63.19a6.821,6.821,0,0,1,6.745,6.881" transform="translate(-51.608 -63.462)" fill="#fff"/>
            <path id="Path_56" data-name="Path 56" d="M64.86,70.033a6.7,6.7,0,1,1-6.7-6.813,6.753,6.753,0,0,1,6.7,6.813" transform="translate(-51.596 -63.424)" fill="#fffdfd"/>
            <path id="Path_57" data-name="Path 57" d="M64.764,70.008a6.633,6.633,0,1,1-6.632-6.768,6.7,6.7,0,0,1,6.632,6.768" transform="translate(-51.545 -63.398)" fill="#fffcfc"/>
            <path id="Path_58" data-name="Path 58" d="M64.694,69.983a6.588,6.588,0,1,1-6.587-6.723,6.652,6.652,0,0,1,6.587,6.723" transform="translate(-51.52 -63.373)" fill="#fffbfb"/>
            <path id="Path_59" data-name="Path 59" d="M64.623,69.945a6.543,6.543,0,1,1-6.542-6.655,6.6,6.6,0,0,1,6.542,6.655" transform="translate(-51.495 -63.335)" fill="#fffaf9"/>
            <path id="Path_60" data-name="Path 60" d="M64.517,69.92a6.475,6.475,0,1,1-6.474-6.609,6.546,6.546,0,0,1,6.474,6.609" transform="translate(-51.457 -63.31)" fill="#fff9f8"/>
            <path id="Path_61" data-name="Path 61" d="M64.447,69.894a6.43,6.43,0,1,1-6.428-6.564,6.478,6.478,0,0,1,6.428,6.564" transform="translate(-51.432 -63.285)" fill="#fff8f7"/>
            <path id="Path_62" data-name="Path 62" d="M64.376,69.856a6.384,6.384,0,1,1-6.383-6.5,6.43,6.43,0,0,1,6.383,6.5" transform="translate(-51.406 -63.247)" fill="#fff7f6"/>
            <path id="Path_63" data-name="Path 63" d="M64.27,69.831a6.317,6.317,0,1,1-6.315-6.451,6.391,6.391,0,0,1,6.315,6.451" transform="translate(-51.368 -63.222)" fill="#fef6f5"/>
            <path id="Path_64" data-name="Path 64" d="M64.2,69.793a6.271,6.271,0,1,1-6.27-6.383,6.323,6.323,0,0,1,6.27,6.383" transform="translate(-51.343 -63.184)" fill="#fef5f4"/>
            <path id="Path_65" data-name="Path 65" d="M64.129,69.768A6.226,6.226,0,1,1,57.9,63.43a6.275,6.275,0,0,1,6.225,6.338" transform="translate(-51.318 -63.158)" fill="#fef4f4"/>
            <path id="Path_66" data-name="Path 66" d="M64.024,69.743a6.158,6.158,0,1,1-6.157-6.293,6.237,6.237,0,0,1,6.157,6.293" transform="translate(-51.28 -63.133)" fill="#fef3f3"/>
            <path id="Path_67" data-name="Path 67" d="M63.953,69.7a6.113,6.113,0,1,1-6.112-6.225A6.169,6.169,0,0,1,63.953,69.7" transform="translate(-51.255 -63.095)" fill="#fef3f2"/>
            <path id="Path_68" data-name="Path 68" d="M63.882,69.679A6.067,6.067,0,1,1,57.816,63.5a6.121,6.121,0,0,1,6.066,6.179" transform="translate(-51.229 -63.07)" fill="#fef2f1"/>
            <path id="Path_69" data-name="Path 69" d="M63.789,69.654a6.011,6.011,0,1,1-6.021-6.134,6.087,6.087,0,0,1,6.021,6.134" transform="translate(-51.204 -63.045)" fill="#fef1f0"/>
            <path id="Path_70" data-name="Path 70" d="M63.706,69.616a5.954,5.954,0,1,1-5.953-6.066,6.014,6.014,0,0,1,5.953,6.066" transform="translate(-51.166 -63.007)" fill="#fef0ef"/>
            <path id="Path_71" data-name="Path 71" d="M63.636,69.591a5.909,5.909,0,1,1-5.908-6.021,5.966,5.966,0,0,1,5.908,6.021" transform="translate(-51.141 -62.981)" fill="#feefef"/>
            <path id="Path_72" data-name="Path 72" d="M63.542,69.553A5.852,5.852,0,1,1,57.68,63.6a5.913,5.913,0,0,1,5.863,5.953" transform="translate(-51.116 -62.944)" fill="#feefee"/>
            <path id="Path_73" data-name="Path 73" d="M63.459,69.528a5.8,5.8,0,1,1-5.795-5.908,5.86,5.86,0,0,1,5.795,5.908" transform="translate(-51.078 -62.918)" fill="#feeeed"/>
            <path id="Path_74" data-name="Path 74" d="M63.389,69.5a5.75,5.75,0,1,1-5.749-5.863A5.811,5.811,0,0,1,63.389,69.5" transform="translate(-51.052 -62.893)" fill="#feedec"/>
            <path id="Path_75" data-name="Path 75" d="M63.3,69.465a5.694,5.694,0,1,1-5.7-5.795,5.758,5.758,0,0,1,5.7,5.795" transform="translate(-51.027 -62.855)" fill="#feecec"/>
            <path id="Path_76" data-name="Path 76" d="M63.212,69.439a5.637,5.637,0,1,1-5.636-5.749,5.705,5.705,0,0,1,5.636,5.749" transform="translate(-50.989 -62.83)" fill="#feeceb"/>
            <path id="Path_77" data-name="Path 77" d="M63.142,69.414a5.592,5.592,0,1,1-5.591-5.7,5.637,5.637,0,0,1,5.591,5.7" transform="translate(-50.964 -62.805)" fill="#feebea"/>
            <path id="Path_78" data-name="Path 78" d="M63.049,69.376A5.535,5.535,0,1,1,57.5,63.74a5.575,5.575,0,0,1,5.546,5.636" transform="translate(-50.939 -62.767)" fill="#fdeae9"/>
            <path id="Path_79" data-name="Path 79" d="M62.965,69.351a5.479,5.479,0,1,1-5.478-5.591,5.536,5.536,0,0,1,5.478,5.591" transform="translate(-50.901 -62.741)" fill="#fde9e8"/>
            <path id="Path_80" data-name="Path 80" d="M62.895,69.326a5.434,5.434,0,1,1-5.432-5.546,5.468,5.468,0,0,1,5.432,5.546" transform="translate(-50.876 -62.716)" fill="#fde8e8"/>
            <path id="Path_81" data-name="Path 81" d="M62.8,69.288a5.377,5.377,0,1,1-5.387-5.478A5.42,5.42,0,0,1,62.8,69.288" transform="translate(-50.85 -62.678)" fill="#fde7e7"/>
            <path id="Path_82" data-name="Path 82" d="M62.719,69.262A5.32,5.32,0,1,1,57.4,63.83a5.382,5.382,0,0,1,5.319,5.432" transform="translate(-50.812 -62.653)" fill="#fde7e6"/>
            <path id="Path_83" data-name="Path 83" d="M62.648,69.225a5.275,5.275,0,1,1-5.274-5.365,5.314,5.314,0,0,1,5.274,5.365" transform="translate(-50.787 -62.615)" fill="#fde6e5"/>
            <path id="Path_84" data-name="Path 84" d="M62.555,69.2a5.218,5.218,0,1,1-5.229-5.319A5.265,5.265,0,0,1,62.555,69.2" transform="translate(-50.762 -62.59)" fill="#fde5e5"/>
            <path id="Path_85" data-name="Path 85" d="M62.472,69.174A5.162,5.162,0,1,1,57.311,63.9a5.207,5.207,0,0,1,5.161,5.274" transform="translate(-50.724 -62.565)" fill="#fde4e4"/>
            <path id="Path_86" data-name="Path 86" d="M62.4,69.136a5.116,5.116,0,1,1-5.116-5.206A5.159,5.159,0,0,1,62.4,69.136" transform="translate(-50.699 -62.527)" fill="#fde3e3"/>
            <path id="Path_87" data-name="Path 87" d="M62.308,69.111a5.06,5.06,0,1,1-5.07-5.161,5.111,5.111,0,0,1,5.07,5.161" transform="translate(-50.673 -62.501)" fill="#fde3e3"/>
            <path id="Path_88" data-name="Path 88" d="M62.225,69.086a5,5,0,1,1-5-5.116,5.053,5.053,0,0,1,5,5.116" transform="translate(-50.636 -62.476)" fill="#fde2e2"/>
            <path id="Path_89" data-name="Path 89" d="M62.154,69.048A4.958,4.958,0,1,1,57.2,64a5,5,0,0,1,4.957,5.048" transform="translate(-50.61 -62.438)" fill="#fde1e1"/>
            <path id="Path_90" data-name="Path 90" d="M62.061,69.022a4.9,4.9,0,1,1-4.912-5,4.956,4.956,0,0,1,4.912,5" transform="translate(-50.585 -62.413)" fill="#fde0e0"/>
            <path id="Path_91" data-name="Path 91" d="M61.978,68.984a4.845,4.845,0,1,1-4.844-4.934,4.884,4.884,0,0,1,4.844,4.934" transform="translate(-50.547 -62.375)" fill="#fde0e0"/>
            <path id="Path_92" data-name="Path 92" d="M61.907,68.959a4.8,4.8,0,1,1-4.8-4.889,4.85,4.85,0,0,1,4.8,4.889" transform="translate(-50.522 -62.35)" fill="#fcdfdf"/>
            <path id="Path_93" data-name="Path 93" d="M61.814,68.934a4.743,4.743,0,1,1-4.753-4.844,4.782,4.782,0,0,1,4.753,4.844" transform="translate(-50.497 -62.324)" fill="#fcdede"/>
            <path id="Path_94" data-name="Path 94" d="M61.731,68.9a4.686,4.686,0,1,1-4.685-4.776A4.729,4.729,0,0,1,61.731,68.9" transform="translate(-50.459 -62.287)" fill="#fcdddd"/>
            <path id="Path_95" data-name="Path 95" d="M61.66,68.871a4.641,4.641,0,1,1-4.64-4.731,4.7,4.7,0,0,1,4.64,4.731" transform="translate(-50.433 -62.261)" fill="#fcdcdd"/>
            <path id="Path_96" data-name="Path 96" d="M61.58,68.845a4.6,4.6,0,1,1-4.595-4.685,4.628,4.628,0,0,1,4.595,4.685" transform="translate(-50.421 -62.236)" fill="#fcdcdc"/>
            <path id="Path_97" data-name="Path 97" d="M61.484,68.808a4.528,4.528,0,1,1-4.527-4.618,4.575,4.575,0,0,1,4.527,4.618" transform="translate(-50.37 -62.198)" fill="#fcdbdb"/>
            <path id="Path_98" data-name="Path 98" d="M61.414,68.782a4.483,4.483,0,1,1-4.482-4.572,4.541,4.541,0,0,1,4.482,4.572" transform="translate(-50.345 -62.173)" fill="#fcdadb"/>
            <path id="Path_99" data-name="Path 99" d="M61.333,68.744a4.437,4.437,0,1,1-4.437-4.5,4.473,4.473,0,0,1,4.437,4.5" transform="translate(-50.332 -62.135)" fill="#fcd9da"/>
            <path id="Path_100" data-name="Path 100" d="M61.237,68.719a4.37,4.37,0,1,1-4.369-4.459,4.406,4.406,0,0,1,4.369,4.459" transform="translate(-50.282 -62.11)" fill="#fcd8d9"/>
            <path id="Path_101" data-name="Path 101" d="M61.167,68.694a4.324,4.324,0,1,1-4.323-4.414,4.372,4.372,0,0,1,4.323,4.414" transform="translate(-50.256 -62.084)" fill="#fcd8d9"/>
            <path id="Path_102" data-name="Path 102" d="M61.086,68.656a4.279,4.279,0,1,1-4.278-4.346,4.3,4.3,0,0,1,4.278,4.346" transform="translate(-50.244 -62.046)" fill="#fcd7d8"/>
            <path id="Path_103" data-name="Path 103" d="M60.99,68.631a4.211,4.211,0,1,1-4.21-4.3,4.251,4.251,0,0,1,4.21,4.3" transform="translate(-50.193 -62.021)" fill="#fcd6d7"/>
            <path id="Path_104" data-name="Path 104" d="M60.92,68.605a4.166,4.166,0,1,1-4.165-4.255,4.183,4.183,0,0,1,4.165,4.255" transform="translate(-50.168 -61.996)" fill="#fcd5d6"/>
            <path id="Path_105" data-name="Path 105" d="M60.839,68.568a4.12,4.12,0,1,1-4.12-4.188,4.149,4.149,0,0,1,4.12,4.188" transform="translate(-50.155 -61.958)" fill="#fbd5d6"/>
            <path id="Path_106" data-name="Path 106" d="M60.743,68.542A4.053,4.053,0,1,1,56.692,64.4a4.1,4.1,0,0,1,4.052,4.142" transform="translate(-50.105 -61.933)" fill="#fbd4d5"/>
            <path id="Path_107" data-name="Path 107" d="M60.673,68.5a4.007,4.007,0,1,1-4.006-4.074A4.043,4.043,0,0,1,60.673,68.5" transform="translate(-50.08 -61.895)" fill="#fbd3d4"/>
            <path id="Path_108" data-name="Path 108" d="M60.592,68.479a3.962,3.962,0,1,1-3.961-4.029,3.995,3.995,0,0,1,3.961,4.029" transform="translate(-50.067 -61.87)" fill="#fbd2d4"/>
            <path id="Path_109" data-name="Path 109" d="M60.5,68.454A3.894,3.894,0,1,1,56.6,64.47,3.942,3.942,0,0,1,60.5,68.454" transform="translate(-50.016 -61.844)" fill="#fbd1d3"/>
            <path id="Path_110" data-name="Path 110" d="M60.426,68.416A3.849,3.849,0,1,1,56.578,64.5a3.874,3.874,0,0,1,3.848,3.916" transform="translate(-49.991 -61.806)" fill="#fbd1d2"/>
            <path id="Path_111" data-name="Path 111" d="M60.345,68.391a3.8,3.8,0,1,1-3.8-3.871,3.84,3.84,0,0,1,3.8,3.871" transform="translate(-49.979 -61.781)" fill="#fbd0d2"/>
            <path id="Path_112" data-name="Path 112" d="M60.25,68.353a3.735,3.735,0,1,1-3.735-3.8,3.768,3.768,0,0,1,3.735,3.8" transform="translate(-49.928 -61.743)" fill="#fbcfd1"/>
            <path id="Path_113" data-name="Path 113" d="M60.179,68.327a3.69,3.69,0,1,1-3.69-3.757,3.72,3.72,0,0,1,3.69,3.757" transform="translate(-49.903 -61.718)" fill="#fbced0"/>
            <path id="Path_114" data-name="Path 114" d="M60.1,68.3a3.645,3.645,0,1,1-3.644-3.712A3.686,3.686,0,0,1,60.1,68.3" transform="translate(-49.89 -61.693)" fill="#fbcdcf"/>
            <path id="Path_115" data-name="Path 115" d="M60,68.264a3.577,3.577,0,1,1-3.576-3.644A3.613,3.613,0,0,1,60,68.264" transform="translate(-49.84 -61.655)" fill="#fbcdcf"/>
            <path id="Path_116" data-name="Path 116" d="M59.932,68.239a3.532,3.532,0,1,1-3.531-3.6,3.565,3.565,0,0,1,3.531,3.6" transform="translate(-49.814 -61.629)" fill="#faccce"/>
            <path id="Path_117" data-name="Path 117" d="M59.852,68.214a3.486,3.486,0,1,1-3.486-3.554,3.531,3.531,0,0,1,3.486,3.554" transform="translate(-49.802 -61.604)" fill="#facbcd"/>
            <path id="Path_118" data-name="Path 118" d="M59.756,68.176a3.419,3.419,0,1,1-3.418-3.486,3.459,3.459,0,0,1,3.418,3.486" transform="translate(-49.751 -61.566)" fill="#facacd"/>
            <path id="Path_119" data-name="Path 119" d="M59.685,68.151a3.373,3.373,0,1,1-3.373-3.441,3.411,3.411,0,0,1,3.373,3.441" transform="translate(-49.726 -61.541)" fill="#fac9cc"/>
            <path id="Path_120" data-name="Path 120" d="M59.6,68.113a3.328,3.328,0,1,1-3.327-3.373A3.357,3.357,0,0,1,59.6,68.113" transform="translate(-49.713 -61.503)" fill="#fac9cb"/>
            <path id="Path_121" data-name="Path 121" d="M59.509,68.087a3.26,3.26,0,1,1-3.259-3.327,3.3,3.3,0,0,1,3.259,3.327" transform="translate(-49.663 -61.478)" fill="#fac8cb"/>
            <path id="Path_122" data-name="Path 122" d="M59.438,68.062a3.215,3.215,0,1,1-3.214-3.282,3.256,3.256,0,0,1,3.214,3.282" transform="translate(-49.637 -61.453)" fill="#fac7ca"/>
          </g>
          <path id="Path_124" data-name="Path 124" d="M59.358,68.024a3.169,3.169,0,1,1-3.169-3.214,3.174,3.174,0,0,1,3.169,3.214" transform="translate(67.013 81.923)" fill="#fac6c9"/>
          <g id="Group_2" data-name="Group 2" transform="translate(116.637 143.337)" clip-path="url(#clip-path-3)">
            <path id="Path_125" data-name="Path 125" d="M59.262,68a3.1,3.1,0,1,1-3.1-3.169A3.135,3.135,0,0,1,59.262,68" transform="translate(-49.574 -61.389)" fill="#fac5c8"/>
            <path id="Path_126" data-name="Path 126" d="M59.192,67.974a3.056,3.056,0,1,1-3.056-3.124,3.087,3.087,0,0,1,3.056,3.124" transform="translate(-49.549 -61.364)" fill="#fac5c8"/>
            <path id="Path_127" data-name="Path 127" d="M59.121,67.936a3.011,3.011,0,1,1-3.01-3.056,3.019,3.019,0,0,1,3.01,3.056" transform="translate(-49.524 -61.326)" fill="#fac4c7"/>
            <path id="Path_128" data-name="Path 128" d="M59.015,67.91a2.943,2.943,0,1,1-2.943-3.01,2.981,2.981,0,0,1,2.943,3.01" transform="translate(-49.486 -61.301)" fill="#fac3c6"/>
            <path id="Path_129" data-name="Path 129" d="M58.945,67.885a2.9,2.9,0,1,1-2.9-2.965,2.913,2.913,0,0,1,2.9,2.965" transform="translate(-49.46 -61.276)" fill="#fac2c6"/>
            <path id="Path_130" data-name="Path 130" d="M58.874,67.847a2.852,2.852,0,1,1-2.852-2.9,2.865,2.865,0,0,1,2.852,2.9" transform="translate(-49.435 -61.238)" fill="#f9c1c5"/>
            <path id="Path_131" data-name="Path 131" d="M58.768,67.822a2.785,2.785,0,1,1-2.784-2.852,2.826,2.826,0,0,1,2.784,2.852" transform="translate(-49.397 -61.213)" fill="#f9c1c4"/>
            <path id="Path_132" data-name="Path 132" d="M58.7,67.784A2.739,2.739,0,1,1,55.959,65,2.758,2.758,0,0,1,58.7,67.784" transform="translate(-49.372 -61.175)" fill="#f9c0c4"/>
          </g>
          <path id="Path_134" data-name="Path 134" d="M58.627,67.759a2.694,2.694,0,1,1-2.694-2.739,2.71,2.71,0,0,1,2.694,2.739" transform="translate(67.291 82.188)" fill="#f9bfc3"/>
          <path id="Path_135" data-name="Path 135" d="M58.521,67.734A2.627,2.627,0,1,1,55.9,65.04a2.672,2.672,0,0,1,2.626,2.694" transform="translate(67.329 82.213)" fill="#f9bec2"/>
          <path id="Path_136" data-name="Path 136" d="M58.451,67.7a2.581,2.581,0,1,1-2.58-2.626,2.6,2.6,0,0,1,2.58,2.626" transform="translate(67.354 82.251)" fill="#f9bdc2"/>
          <path id="Path_137" data-name="Path 137" d="M58.38,67.67a2.536,2.536,0,1,1-2.535-2.58,2.555,2.555,0,0,1,2.535,2.58" transform="translate(67.379 82.276)" fill="#f9bdc1"/>
          <path id="Path_138" data-name="Path 138" d="M58.274,67.645a2.468,2.468,0,1,1-2.467-2.535,2.5,2.5,0,0,1,2.467,2.535" transform="translate(67.417 82.302)" fill="#f9bcc0"/>
          <path id="Path_139" data-name="Path 139" d="M58.2,67.607a2.422,2.422,0,1,1-2.422-2.467A2.449,2.449,0,0,1,58.2,67.607" transform="translate(67.442 82.34)" fill="#f9bbc0"/>
          <path id="Path_140" data-name="Path 140" d="M58.133,67.582a2.377,2.377,0,1,1-2.377-2.422,2.4,2.4,0,0,1,2.377,2.422" transform="translate(67.468 82.365)" fill="#f9babf"/>
          <path id="Path_141" data-name="Path 141" d="M58.04,67.544a2.32,2.32,0,1,1-2.331-2.354,2.362,2.362,0,0,1,2.331,2.354" transform="translate(67.493 82.403)" fill="#f9b9be"/>
          <path id="Path_142" data-name="Path 142" d="M57.957,67.519a2.264,2.264,0,1,1-2.264-2.309,2.295,2.295,0,0,1,2.264,2.309" transform="translate(67.531 82.428)" fill="#f9b9be"/>
          <path id="Path_143" data-name="Path 143" d="M57.887,67.494a2.219,2.219,0,1,1-2.218-2.264,2.246,2.246,0,0,1,2.218,2.264" transform="translate(67.556 82.453)" fill="#f8b8bd"/>
          <path id="Path_144" data-name="Path 144" d="M57.793,67.456a2.162,2.162,0,1,1-2.173-2.2,2.208,2.208,0,0,1,2.173,2.2" transform="translate(67.581 82.491)" fill="#f8b7bc"/>
          <path id="Path_145" data-name="Path 145" d="M57.71,67.43a2.106,2.106,0,1,1-2.105-2.15,2.14,2.14,0,0,1,2.105,2.15" transform="translate(67.619 82.517)" fill="#f8b6bc"/>
          <path id="Path_146" data-name="Path 146" d="M57.64,67.405A2.06,2.06,0,1,1,55.58,65.3a2.092,2.092,0,0,1,2.06,2.105" transform="translate(67.644 82.542)" fill="#f8b5bb"/>
          <path id="Path_147" data-name="Path 147" d="M57.546,67.367a2,2,0,1,1-2.015-2.037,2.024,2.024,0,0,1,2.015,2.037" transform="translate(67.67 82.58)" fill="#f8b5ba"/>
          <path id="Path_148" data-name="Path 148" d="M57.463,67.342a1.947,1.947,0,1,1-1.947-1.992,1.986,1.986,0,0,1,1.947,1.992" transform="translate(67.708 82.605)" fill="#f8b4ba"/>
          <path id="Path_149" data-name="Path 149" d="M57.393,67.3a1.9,1.9,0,1,1-1.9-1.924,1.918,1.918,0,0,1,1.9,1.924" transform="translate(67.733 82.643)" fill="#f8b3b9"/>
          <path id="Path_150" data-name="Path 150" d="M57.3,67.279a1.855,1.855,0,0,1-1.856,1.879,1.879,1.879,0,0,1,0-3.757A1.869,1.869,0,0,1,57.3,67.279" transform="translate(67.758 82.668)" fill="#f8b2b8"/>
          <path id="Path_151" data-name="Path 151" d="M57.216,67.253a1.789,1.789,0,1,1-1.788-1.833,1.8,1.8,0,0,1,1.788,1.833" transform="translate(67.796 82.693)" fill="#f8b1b8"/>
          <path id="Path_152" data-name="Path 152" d="M57.146,67.216A1.743,1.743,0,1,1,55.4,65.45a1.749,1.749,0,0,1,1.743,1.766" transform="translate(67.821 82.731)" fill="#f8b1b7"/>
          <path id="Path_153" data-name="Path 153" d="M57.065,67.19a1.7,1.7,0,1,1-1.7-1.72,1.7,1.7,0,0,1,1.7,1.72" transform="translate(67.834 82.757)" fill="#f8b0b7"/>
          <path id="Path_154" data-name="Path 154" d="M56.969,67.165a1.63,1.63,0,1,1-1.63-1.675,1.648,1.648,0,0,1,1.63,1.675" transform="translate(67.885 82.782)" fill="#f8afb6"/>
          <path id="Path_155" data-name="Path 155" d="M56.9,67.127a1.585,1.585,0,1,1-1.584-1.607A1.594,1.594,0,0,1,56.9,67.127" transform="translate(67.91 82.82)" fill="#f8aeb5"/>
          <path id="Path_156" data-name="Path 156" d="M56.806,67.1a1.546,1.546,0,0,1-1.539,1.562,1.563,1.563,0,0,1,0-3.124A1.56,1.56,0,0,1,56.806,67.1" transform="translate(67.935 82.845)" fill="#f7aeb5"/>
          <path id="Path_157" data-name="Path 157" d="M56.723,67.064a1.471,1.471,0,1,1-1.471-1.494,1.473,1.473,0,0,1,1.471,1.494" transform="translate(67.973 82.883)" fill="#f7adb4"/>
          <path id="Path_158" data-name="Path 158" d="M56.652,67.039a1.426,1.426,0,1,1-1.426-1.449,1.439,1.439,0,0,1,1.426,1.449" transform="translate(67.998 82.908)" fill="#f7acb3"/>
          <path id="Path_159" data-name="Path 159" d="M56.559,67.013a1.391,1.391,0,0,1-1.381,1.4,1.372,1.372,0,0,1-1.358-1.4,1.387,1.387,0,0,1,1.358-1.4,1.406,1.406,0,0,1,1.381,1.4" transform="translate(68.024 82.933)" fill="#f7abb3"/>
          <path id="Path_160" data-name="Path 160" d="M56.476,66.975a1.319,1.319,0,0,1-1.313,1.335,1.336,1.336,0,1,1,1.313-1.335" transform="translate(68.061 82.971)" fill="#f7aab2"/>
          <path id="Path_161" data-name="Path 161" d="M56.405,66.95a1.268,1.268,0,1,1-1.268-1.29,1.285,1.285,0,0,1,1.268,1.29" transform="translate(68.087 82.997)" fill="#f7aab1"/>
          <path id="Path_162" data-name="Path 162" d="M56.312,66.925a1.217,1.217,0,0,1-1.222,1.222,1.2,1.2,0,0,1-1.2-1.222,1.211,1.211,0,1,1,2.422,0" transform="translate(68.112 83.022)" fill="#f7a9b1"/>
          <path id="Path_163" data-name="Path 163" d="M56.229,66.887a1.155,1.155,0,1,1-1.154-1.177,1.164,1.164,0,0,1,1.154,1.177" transform="translate(68.15 83.06)" fill="#f7a8b0"/>
          <path id="Path_164" data-name="Path 164" d="M56.158,66.862a1.131,1.131,0,0,1-1.109,1.132,1.132,1.132,0,1,1,1.109-1.132" transform="translate(68.175 83.085)" fill="#f7a7b0"/>
          <path id="Path_165" data-name="Path 165" d="M56.078,66.837a1.064,1.064,0,0,1-2.128,0,1.082,1.082,0,0,1,1.064-1.087,1.068,1.068,0,0,1,1.064,1.087" transform="translate(68.188 83.11)" fill="#f7a7af"/>
          <path id="Path_166" data-name="Path 166" d="M55.982,66.8a1,1,0,1,1-1-1.019,1.01,1.01,0,0,1,1,1.019" transform="translate(68.238 83.148)" fill="#f7a6ae"/>
          <path id="Path_167" data-name="Path 167" d="M55.911,66.773a.951.951,0,1,1-.951-.973.961.961,0,0,1,.951.973" transform="translate(68.264 83.174)" fill="#f7a5ae"/>
          <path id="Path_168" data-name="Path 168" d="M55.831,66.735a.905.905,0,1,1-.905-.905.908.908,0,0,1,.905.905" transform="translate(68.276 83.211)" fill="#f7a4ad"/>
          <path id="Path_169" data-name="Path 169" d="M55.735,66.71a.838.838,0,1,1-.838-.86.855.855,0,0,1,.838.86" transform="translate(68.327 83.237)" fill="#f6a4ad"/>
          <path id="Path_170" data-name="Path 170" d="M55.664,66.685a.793.793,0,1,1-.792-.815.807.807,0,0,1,.792.815" transform="translate(68.352 83.262)" fill="#f6a3ac"/>
          <path id="Path_171" data-name="Path 171" d="M55.584,66.647a.747.747,0,1,1-.747-.747.754.754,0,0,1,.747.747" transform="translate(68.365 83.3)" fill="#f6a2ab"/>
          <path id="Path_172" data-name="Path 172" d="M55.488,66.622a.679.679,0,1,1-.679-.7.7.7,0,0,1,.679.7" transform="translate(68.415 83.325)" fill="#f6a1ab"/>
          <path id="Path_173" data-name="Path 173" d="M55.418,66.6a.619.619,0,0,1-.634.634.633.633,0,0,1-.634-.634.652.652,0,0,1,.634-.656.638.638,0,0,1,.634.656" transform="translate(68.441 83.35)" fill="#f6a0aa"/>
          <g id="Group_3" data-name="Group 3" transform="translate(116.637 143.337)" clip-path="url(#clip-path-3)">
            <path id="Path_174" data-name="Path 174" d="M55.337,66.559a.589.589,0,1,1-1.177,0,.589.589,0,1,1,1.177,0" transform="translate(-48.184 -59.949)" fill="#f6a0aa"/>
            <path id="Path_175" data-name="Path 175" d="M55.241,66.533a.521.521,0,1,1-.521-.543.532.532,0,0,1,.521.543" transform="translate(-48.134 -59.924)" fill="#f69fa9"/>
          </g>
          <path id="Path_177" data-name="Path 177" d="M55.171,66.5a.464.464,0,0,1-.475.475.475.475,0,1,1,.475-.475" transform="translate(68.529 83.452)" fill="#f69ea8"/>
          <path id="Path_178" data-name="Path 178" d="M55.09,66.47a.43.43,0,0,1-.43.43.43.43,0,0,1,0-.86.43.43,0,0,1,.43.43" transform="translate(68.542 83.477)" fill="#f69da8"/>
          <path id="Path_179" data-name="Path 179" d="M54.994,66.445a.377.377,0,0,1-.362.385.386.386,0,0,1,0-.77.377.377,0,0,1,.362.385" transform="translate(68.592 83.502)" fill="#f69da7"/>
          <path id="Path_180" data-name="Path 180" d="M54.924,66.407a.317.317,0,1,1-.317-.317.309.309,0,0,1,.317.317" transform="translate(68.617 83.54)" fill="#f69ca7"/>
          <path id="Path_181" data-name="Path 181" d="M54.843,66.382a.272.272,0,1,1-.272-.272.262.262,0,0,1,.272.272" transform="translate(68.63 83.565)" fill="#f69ba6"/>
          <path id="Path_182" data-name="Path 182" d="M54.747,66.356a.2.2,0,0,1-.407,0,.223.223,0,0,1,.2-.226.209.209,0,0,1,.2.226" transform="translate(68.681 83.591)" fill="#f59aa5"/>
          <path id="Path_183" data-name="Path 183" d="M54.677,66.318s-.068.158-.158.158a.158.158,0,1,1,.158-.158" transform="translate(68.706 83.628)" fill="#f59aa5"/>
          <path id="Path_184" data-name="Path 184" d="M54.6,66.293s-.045.113-.113.113a.113.113,0,1,1,.113-.113" transform="translate(68.718 83.654)" fill="#f599a4"/>
          <path id="Path_185" data-name="Path 185" d="M54.5,66.255s-.023.045-.045.045-.045,0-.045-.045a.049.049,0,0,1,.045-.045c.023,0,.045,0,.045.045" transform="translate(68.769 83.692)" fill="#f598a4"/>
          <g id="Group_4" data-name="Group 4" transform="translate(69.42 144.718)" clip-path="url(#clip-path-6)">
            <rect id="Rectangle_14" data-name="Rectangle 14" width="13.491" height="13.762" fill="#fff"/>
            <path id="Path_186" data-name="Path 186" d="M44.091,70.681A6.747,6.747,0,1,1,37.345,63.8a6.807,6.807,0,0,1,6.745,6.881" transform="translate(-30.736 -64.072)" fill="#fff"/>
            <path id="Path_187" data-name="Path 187" d="M44.02,70.643a6.7,6.7,0,1,1-6.7-6.813,6.753,6.753,0,0,1,6.7,6.813" transform="translate(-30.711 -64.034)" fill="#fffdfd"/>
            <path id="Path_188" data-name="Path 188" d="M43.924,70.618a6.633,6.633,0,1,1-6.632-6.768,6.7,6.7,0,0,1,6.632,6.768" transform="translate(-30.66 -64.008)" fill="#fffcfc"/>
            <path id="Path_189" data-name="Path 189" d="M43.844,70.593a6.588,6.588,0,1,1-6.587-6.723,6.652,6.652,0,0,1,6.587,6.723" transform="translate(-30.647 -63.983)" fill="#fffbfb"/>
            <path id="Path_190" data-name="Path 190" d="M43.773,70.555A6.543,6.543,0,1,1,37.232,63.9a6.6,6.6,0,0,1,6.542,6.655" transform="translate(-30.622 -63.945)" fill="#fffaf9"/>
            <path id="Path_191" data-name="Path 191" d="M43.677,70.529A6.475,6.475,0,1,1,37.2,63.92a6.546,6.546,0,0,1,6.474,6.609" transform="translate(-30.572 -63.92)" fill="#fff9f8"/>
            <path id="Path_192" data-name="Path 192" d="M43.6,70.5a6.43,6.43,0,1,1-6.428-6.564A6.5,6.5,0,0,1,43.6,70.5" transform="translate(-30.559 -63.895)" fill="#fff8f7"/>
            <path id="Path_193" data-name="Path 193" d="M43.526,70.466a6.384,6.384,0,1,1-6.383-6.5,6.43,6.43,0,0,1,6.383,6.5" transform="translate(-30.534 -63.857)" fill="#fff7f6"/>
            <path id="Path_194" data-name="Path 194" d="M43.43,70.441a6.317,6.317,0,1,1-6.315-6.451,6.391,6.391,0,0,1,6.315,6.451" transform="translate(-30.483 -63.832)" fill="#fef6f5"/>
            <path id="Path_195" data-name="Path 195" d="M43.35,70.4a6.271,6.271,0,1,1-6.27-6.383A6.323,6.323,0,0,1,43.35,70.4" transform="translate(-30.47 -63.794)" fill="#fef5f4"/>
            <path id="Path_196" data-name="Path 196" d="M43.279,70.378a6.226,6.226,0,1,1-6.225-6.338,6.275,6.275,0,0,1,6.225,6.338" transform="translate(-30.445 -63.768)" fill="#fef4f4"/>
            <path id="Path_197" data-name="Path 197" d="M43.184,70.353a6.158,6.158,0,1,1-6.157-6.293,6.237,6.237,0,0,1,6.157,6.293" transform="translate(-30.395 -63.743)" fill="#fef3f3"/>
            <path id="Path_198" data-name="Path 198" d="M43.1,70.315a6.113,6.113,0,1,1-6.112-6.225A6.169,6.169,0,0,1,43.1,70.315" transform="translate(-30.382 -63.705)" fill="#fef3f2"/>
            <path id="Path_199" data-name="Path 199" d="M43.032,70.289a6.067,6.067,0,1,1-6.066-6.179,6.121,6.121,0,0,1,6.066,6.179" transform="translate(-30.357 -63.68)" fill="#fef2f1"/>
            <path id="Path_200" data-name="Path 200" d="M42.949,70.264a6.011,6.011,0,1,1-6-6.134,6.082,6.082,0,0,1,6,6.134" transform="translate(-30.319 -63.655)" fill="#fef1f0"/>
            <path id="Path_201" data-name="Path 201" d="M42.856,70.226A5.954,5.954,0,1,1,36.9,64.16a6.014,6.014,0,0,1,5.953,6.066" transform="translate(-30.294 -63.617)" fill="#fef0ef"/>
            <path id="Path_202" data-name="Path 202" d="M42.786,70.2a5.909,5.909,0,1,1-5.908-6.021A5.966,5.966,0,0,1,42.786,70.2" transform="translate(-30.268 -63.592)" fill="#feefef"/>
            <path id="Path_203" data-name="Path 203" d="M42.7,70.163a5.852,5.852,0,1,1-5.84-5.953,5.894,5.894,0,0,1,5.84,5.953" transform="translate(-30.23 -63.554)" fill="#feefee"/>
            <path id="Path_204" data-name="Path 204" d="M42.609,70.138a5.8,5.8,0,1,1-5.795-5.908,5.86,5.86,0,0,1,5.795,5.908" transform="translate(-30.205 -63.528)" fill="#feeeed"/>
            <path id="Path_205" data-name="Path 205" d="M42.539,70.113a5.75,5.75,0,1,1-5.749-5.863,5.811,5.811,0,0,1,5.749,5.863" transform="translate(-30.18 -63.503)" fill="#feedec"/>
            <path id="Path_206" data-name="Path 206" d="M42.468,70.075a5.7,5.7,0,1,1-5.7-5.795,5.758,5.758,0,0,1,5.7,5.795" transform="translate(-30.155 -63.465)" fill="#feecec"/>
            <path id="Path_207" data-name="Path 207" d="M42.362,70.049A5.637,5.637,0,1,1,36.726,64.3a5.691,5.691,0,0,1,5.636,5.749" transform="translate(-30.117 -63.44)" fill="#feeceb"/>
            <path id="Path_208" data-name="Path 208" d="M42.292,70.011A5.592,5.592,0,1,1,36.7,64.33a5.623,5.623,0,0,1,5.591,5.681" transform="translate(-30.091 -63.402)" fill="#feebea"/>
            <path id="Path_209" data-name="Path 209" d="M42.221,69.986a5.546,5.546,0,1,1-5.546-5.636,5.575,5.575,0,0,1,5.546,5.636" transform="translate(-30.066 -63.377)" fill="#fdeae9"/>
            <path id="Path_210" data-name="Path 210" d="M42.115,69.961a5.479,5.479,0,1,1-5.478-5.591,5.551,5.551,0,0,1,5.478,5.591" transform="translate(-30.028 -63.351)" fill="#fde9e8"/>
            <path id="Path_211" data-name="Path 211" d="M42.045,69.923A5.433,5.433,0,1,1,36.612,64.4a5.468,5.468,0,0,1,5.432,5.523" transform="translate(-30.003 -63.314)" fill="#fde8e8"/>
            <path id="Path_212" data-name="Path 212" d="M41.974,69.9a5.388,5.388,0,1,1-5.387-5.478A5.42,5.42,0,0,1,41.974,69.9" transform="translate(-29.978 -63.288)" fill="#fde7e7"/>
            <path id="Path_213" data-name="Path 213" d="M41.869,69.872a5.32,5.32,0,1,1-5.319-5.432,5.382,5.382,0,0,1,5.319,5.432" transform="translate(-29.94 -63.263)" fill="#fde7e6"/>
            <path id="Path_214" data-name="Path 214" d="M41.8,69.835a5.275,5.275,0,1,1-5.274-5.365A5.314,5.314,0,0,1,41.8,69.835" transform="translate(-29.915 -63.225)" fill="#fde6e5"/>
            <path id="Path_215" data-name="Path 215" d="M41.715,69.809a5.218,5.218,0,1,1-5.206-5.319,5.261,5.261,0,0,1,5.206,5.319" transform="translate(-29.877 -63.2)" fill="#fde5e5"/>
            <path id="Path_216" data-name="Path 216" d="M41.622,69.771a5.162,5.162,0,1,1-5.161-5.251,5.227,5.227,0,0,1,5.161,5.251" transform="translate(-29.851 -63.162)" fill="#fde4e4"/>
            <path id="Path_217" data-name="Path 217" d="M41.551,69.746a5.116,5.116,0,1,1-5.116-5.206,5.159,5.159,0,0,1,5.116,5.206" transform="translate(-29.826 -63.137)" fill="#fde3e3"/>
            <path id="Path_218" data-name="Path 218" d="M41.468,69.721A5.06,5.06,0,1,1,36.42,64.56a5.106,5.106,0,0,1,5.048,5.161" transform="translate(-29.788 -63.111)" fill="#fde3e3"/>
            <path id="Path_219" data-name="Path 219" d="M41.375,69.683a5,5,0,1,1-5-5.093,5.073,5.073,0,0,1,5,5.093" transform="translate(-29.763 -63.073)" fill="#fde2e2"/>
            <path id="Path_220" data-name="Path 220" d="M41.3,69.658a4.958,4.958,0,1,1-4.957-5.048A5,5,0,0,1,41.3,69.658" transform="translate(-29.738 -63.048)" fill="#fde1e1"/>
            <path id="Path_221" data-name="Path 221" d="M41.221,69.632a4.9,4.9,0,1,1-4.889-5,4.952,4.952,0,0,1,4.889,5" transform="translate(-29.7 -63.023)" fill="#fde0e0"/>
            <path id="Path_222" data-name="Path 222" d="M41.128,69.594a4.845,4.845,0,1,1-4.844-4.934,4.884,4.884,0,0,1,4.844,4.934" transform="translate(-29.674 -62.985)" fill="#fde0e0"/>
            <path id="Path_223" data-name="Path 223" d="M41.057,69.569a4.8,4.8,0,1,1-4.8-4.889,4.85,4.85,0,0,1,4.8,4.889" transform="translate(-29.649 -62.96)" fill="#fcdfdf"/>
            <path id="Path_224" data-name="Path 224" d="M40.974,69.544A4.743,4.743,0,1,1,36.243,64.7a4.8,4.8,0,0,1,4.731,4.844" transform="translate(-29.611 -62.934)" fill="#fcdede"/>
            <path id="Path_225" data-name="Path 225" d="M40.881,69.506A4.686,4.686,0,1,1,36.2,64.73a4.729,4.729,0,0,1,4.685,4.776" transform="translate(-29.586 -62.897)" fill="#fcdddd"/>
            <path id="Path_226" data-name="Path 226" d="M40.81,69.481a4.641,4.641,0,1,1-4.64-4.731,4.7,4.7,0,0,1,4.64,4.731" transform="translate(-29.561 -62.871)" fill="#fcdcdd"/>
            <path id="Path_227" data-name="Path 227" d="M40.74,69.443a4.6,4.6,0,1,1-4.595-4.663,4.647,4.647,0,0,1,4.595,4.663" transform="translate(-29.535 -62.833)" fill="#fcdcdc"/>
            <path id="Path_228" data-name="Path 228" d="M40.634,69.418A4.528,4.528,0,1,1,36.107,64.8a4.575,4.575,0,0,1,4.527,4.618" transform="translate(-29.498 -62.808)" fill="#fcdbdb"/>
            <path id="Path_229" data-name="Path 229" d="M40.564,69.392a4.483,4.483,0,1,1-4.482-4.572,4.541,4.541,0,0,1,4.482,4.572" transform="translate(-29.472 -62.783)" fill="#fcdadb"/>
            <path id="Path_230" data-name="Path 230" d="M40.493,69.354a4.437,4.437,0,1,1-4.437-4.5,4.473,4.473,0,0,1,4.437,4.5" transform="translate(-29.447 -62.745)" fill="#fcd9da"/>
            <path id="Path_231" data-name="Path 231" d="M40.387,69.329a4.37,4.37,0,1,1-4.369-4.459,4.406,4.406,0,0,1,4.369,4.459" transform="translate(-29.409 -62.72)" fill="#fcd8d9"/>
            <path id="Path_232" data-name="Path 232" d="M40.317,69.3a4.324,4.324,0,1,1-4.323-4.414A4.372,4.372,0,0,1,40.317,69.3" transform="translate(-29.384 -62.694)" fill="#fcd8d9"/>
            <path id="Path_233" data-name="Path 233" d="M40.246,69.266a4.279,4.279,0,1,1-4.278-4.346,4.3,4.3,0,0,1,4.278,4.346" transform="translate(-29.359 -62.656)" fill="#fcd7d8"/>
            <path id="Path_234" data-name="Path 234" d="M40.14,69.241a4.211,4.211,0,1,1-4.21-4.3,4.251,4.251,0,0,1,4.21,4.3" transform="translate(-29.321 -62.631)" fill="#fcd6d7"/>
            <path id="Path_235" data-name="Path 235" d="M40.07,69.215A4.166,4.166,0,1,1,35.9,64.96a4.2,4.2,0,0,1,4.165,4.255" transform="translate(-29.295 -62.606)" fill="#fcd5d6"/>
            <path id="Path_236" data-name="Path 236" d="M40,69.178a4.12,4.12,0,1,1-4.12-4.188A4.149,4.149,0,0,1,40,69.178" transform="translate(-29.27 -62.568)" fill="#fbd5d6"/>
            <path id="Path_237" data-name="Path 237" d="M39.893,69.152a4.053,4.053,0,1,1-4.052-4.142,4.1,4.1,0,0,1,4.052,4.142" transform="translate(-29.232 -62.543)" fill="#fbd4d5"/>
            <path id="Path_238" data-name="Path 238" d="M39.823,69.114a4.007,4.007,0,1,1-4.006-4.074,4.029,4.029,0,0,1,4.006,4.074" transform="translate(-29.207 -62.505)" fill="#fbd3d4"/>
            <path id="Path_239" data-name="Path 239" d="M39.752,69.089a3.962,3.962,0,1,1-3.961-4.029,3.995,3.995,0,0,1,3.961,4.029" transform="translate(-29.182 -62.48)" fill="#fbd2d4"/>
            <path id="Path_240" data-name="Path 240" d="M39.647,69.064a3.894,3.894,0,1,1-3.893-3.984,3.942,3.942,0,0,1,3.893,3.984" transform="translate(-29.144 -62.454)" fill="#fbd1d3"/>
            <path id="Path_241" data-name="Path 241" d="M39.576,69.026a3.849,3.849,0,1,1-3.848-3.916,3.874,3.874,0,0,1,3.848,3.916" transform="translate(-29.118 -62.416)" fill="#fbd1d2"/>
            <path id="Path_242" data-name="Path 242" d="M39.505,69a3.8,3.8,0,1,1-3.8-3.871A3.84,3.84,0,0,1,39.505,69" transform="translate(-29.093 -62.391)" fill="#fbd0d2"/>
            <path id="Path_243" data-name="Path 243" d="M39.4,68.963a3.735,3.735,0,1,1-3.735-3.8,3.768,3.768,0,0,1,3.735,3.8" transform="translate(-29.055 -62.353)" fill="#fbcfd1"/>
            <path id="Path_244" data-name="Path 244" d="M39.329,68.937a3.69,3.69,0,1,1-3.69-3.757,3.72,3.72,0,0,1,3.69,3.757" transform="translate(-29.03 -62.328)" fill="#fbced0"/>
            <path id="Path_245" data-name="Path 245" d="M39.259,68.912A3.645,3.645,0,1,1,35.614,65.2a3.686,3.686,0,0,1,3.644,3.712" transform="translate(-29.005 -62.303)" fill="#fbcdcf"/>
            <path id="Path_246" data-name="Path 246" d="M39.153,68.874a3.577,3.577,0,1,1-3.576-3.644,3.613,3.613,0,0,1,3.576,3.644" transform="translate(-28.967 -62.265)" fill="#fbcdcf"/>
            <path id="Path_247" data-name="Path 247" d="M39.082,68.849a3.532,3.532,0,1,1-3.531-3.6,3.565,3.565,0,0,1,3.531,3.6" transform="translate(-28.942 -62.24)" fill="#faccce"/>
            <path id="Path_248" data-name="Path 248" d="M39.012,68.824a3.486,3.486,0,1,1-3.486-3.554,3.517,3.517,0,0,1,3.486,3.554" transform="translate(-28.916 -62.214)" fill="#facbcd"/>
            <path id="Path_249" data-name="Path 249" d="M38.906,68.786A3.419,3.419,0,1,1,35.488,65.3a3.459,3.459,0,0,1,3.418,3.486" transform="translate(-28.878 -62.176)" fill="#facacd"/>
            <path id="Path_250" data-name="Path 250" d="M38.835,68.761a3.373,3.373,0,1,1-3.373-3.441,3.411,3.411,0,0,1,3.373,3.441" transform="translate(-28.853 -62.151)" fill="#fac9cc"/>
            <path id="Path_251" data-name="Path 251" d="M38.765,68.723a3.328,3.328,0,1,1-3.327-3.373,3.343,3.343,0,0,1,3.327,3.373" transform="translate(-28.828 -62.113)" fill="#fac9cb"/>
            <path id="Path_252" data-name="Path 252" d="M38.659,68.7A3.26,3.26,0,1,1,35.4,65.37,3.3,3.3,0,0,1,38.659,68.7" transform="translate(-28.79 -62.088)" fill="#fac8cb"/>
            <path id="Path_253" data-name="Path 253" d="M38.588,68.672a3.215,3.215,0,1,1-3.214-3.282,3.256,3.256,0,0,1,3.214,3.282" transform="translate(-28.765 -62.063)" fill="#fac7ca"/>
            <path id="Path_254" data-name="Path 254" d="M38.518,68.634a3.169,3.169,0,1,1-3.169-3.214,3.188,3.188,0,0,1,3.169,3.214" transform="translate(-28.739 -62.025)" fill="#fac6c9"/>
            <path id="Path_255" data-name="Path 255" d="M38.422,68.609a3.1,3.1,0,1,1-3.1-3.169,3.135,3.135,0,0,1,3.1,3.169" transform="translate(-28.689 -61.999)" fill="#fac5c8"/>
            <path id="Path_256" data-name="Path 256" d="M38.342,68.584a3.056,3.056,0,1,1-3.056-3.124,3.087,3.087,0,0,1,3.056,3.124" transform="translate(-28.676 -61.974)" fill="#fac5c8"/>
            <path id="Path_257" data-name="Path 257" d="M38.271,68.546a3.011,3.011,0,1,1-3.01-3.056,3.019,3.019,0,0,1,3.01,3.056" transform="translate(-28.651 -61.936)" fill="#fac4c7"/>
            <path id="Path_258" data-name="Path 258" d="M38.175,68.52a2.943,2.943,0,1,1-2.943-3.01,2.981,2.981,0,0,1,2.943,3.01" transform="translate(-28.6 -61.911)" fill="#fac3c6"/>
            <path id="Path_259" data-name="Path 259" d="M38.095,68.483a2.9,2.9,0,1,1-2.9-2.943,2.913,2.913,0,0,1,2.9,2.943" transform="translate(-28.588 -61.873)" fill="#fac2c6"/>
            <path id="Path_260" data-name="Path 260" d="M38.024,68.457a2.852,2.852,0,1,1-2.852-2.9,2.865,2.865,0,0,1,2.852,2.9" transform="translate(-28.563 -61.848)" fill="#f9c1c5"/>
            <path id="Path_261" data-name="Path 261" d="M37.928,68.432a2.785,2.785,0,1,1-2.784-2.852,2.812,2.812,0,0,1,2.784,2.852" transform="translate(-28.512 -61.823)" fill="#f9c1c4"/>
            <path id="Path_262" data-name="Path 262" d="M37.848,68.394a2.739,2.739,0,1,1-2.739-2.784,2.758,2.758,0,0,1,2.739,2.784" transform="translate(-28.499 -61.785)" fill="#f9c0c4"/>
            <path id="Path_263" data-name="Path 263" d="M37.777,68.369a2.694,2.694,0,1,1-2.694-2.739,2.71,2.71,0,0,1,2.694,2.739" transform="translate(-28.474 -61.759)" fill="#f9bfc3"/>
            <path id="Path_264" data-name="Path 264" d="M37.681,68.344a2.627,2.627,0,1,1-2.626-2.694,2.672,2.672,0,0,1,2.626,2.694" transform="translate(-28.424 -61.734)" fill="#f9bec2"/>
            <path id="Path_265" data-name="Path 265" d="M37.6,68.306a2.581,2.581,0,1,1-2.58-2.626,2.6,2.6,0,0,1,2.58,2.626" transform="translate(-28.411 -61.696)" fill="#f9bdc2"/>
            <path id="Path_266" data-name="Path 266" d="M37.53,68.28A2.536,2.536,0,1,1,35,65.7a2.555,2.555,0,0,1,2.535,2.58" transform="translate(-28.386 -61.671)" fill="#f9bdc1"/>
            <path id="Path_267" data-name="Path 267" d="M37.447,68.255A2.479,2.479,0,1,1,34.98,65.72a2.5,2.5,0,0,1,2.467,2.535" transform="translate(-28.348 -61.646)" fill="#f9bcc0"/>
            <path id="Path_268" data-name="Path 268" d="M37.354,68.217a2.422,2.422,0,1,1-2.422-2.467,2.449,2.449,0,0,1,2.422,2.467" transform="translate(-28.322 -61.608)" fill="#f9bbc0"/>
            <path id="Path_269" data-name="Path 269" d="M37.283,68.192a2.377,2.377,0,1,1-2.377-2.422,2.4,2.4,0,0,1,2.377,2.422" transform="translate(-28.297 -61.583)" fill="#f9babf"/>
            <path id="Path_270" data-name="Path 270" d="M37.2,68.154a2.328,2.328,0,0,1-2.309,2.354,2.354,2.354,0,0,1,0-4.708A2.328,2.328,0,0,1,37.2,68.154" transform="translate(-28.259 -61.545)" fill="#f9b9be"/>
            <path id="Path_271" data-name="Path 271" d="M37.107,68.129a2.264,2.264,0,1,1-2.264-2.309,2.295,2.295,0,0,1,2.264,2.309" transform="translate(-28.234 -61.519)" fill="#f9b9be"/>
            <path id="Path_272" data-name="Path 272" d="M37.037,68.1a2.219,2.219,0,1,1-2.218-2.264A2.246,2.246,0,0,1,37.037,68.1" transform="translate(-28.209 -61.494)" fill="#f8b8bd"/>
            <path id="Path_273" data-name="Path 273" d="M36.953,68.066a2.174,2.174,0,0,1-2.15,2.2,2.2,2.2,0,0,1,0-4.391,2.174,2.174,0,0,1,2.15,2.2" transform="translate(-28.171 -61.456)" fill="#f8b7bc"/>
            <path id="Path_274" data-name="Path 274" d="M36.86,68.04a2.106,2.106,0,1,1-2.105-2.15,2.14,2.14,0,0,1,2.105,2.15" transform="translate(-28.146 -61.431)" fill="#f8b6bc"/>
            <path id="Path_275" data-name="Path 275" d="M36.79,68.015a2.06,2.06,0,1,1-2.06-2.105,2.092,2.092,0,0,1,2.06,2.105" transform="translate(-28.12 -61.406)" fill="#f8b5bb"/>
            <path id="Path_276" data-name="Path 276" d="M36.719,67.977A2.015,2.015,0,1,1,34.7,65.94a2.024,2.024,0,0,1,2.015,2.037" transform="translate(-28.095 -61.368)" fill="#f8b5ba"/>
            <path id="Path_277" data-name="Path 277" d="M36.613,67.952a1.947,1.947,0,1,1-1.947-1.992,1.971,1.971,0,0,1,1.947,1.992" transform="translate(-28.057 -61.342)" fill="#f8b4ba"/>
            <path id="Path_278" data-name="Path 278" d="M36.543,67.914a1.9,1.9,0,1,1-1.9-1.924,1.918,1.918,0,0,1,1.9,1.924" transform="translate(-28.032 -61.305)" fill="#f8b3b9"/>
            <path id="Path_279" data-name="Path 279" d="M36.472,67.889a1.856,1.856,0,1,1-1.856-1.879,1.855,1.855,0,0,1,1.856,1.879" transform="translate(-28.007 -61.279)" fill="#f8b2b8"/>
            <path id="Path_280" data-name="Path 280" d="M36.366,67.863a1.789,1.789,0,1,1-1.788-1.833,1.8,1.8,0,0,1,1.788,1.833" transform="translate(-27.969 -61.254)" fill="#f8b1b8"/>
            <path id="Path_281" data-name="Path 281" d="M36.3,67.826a1.743,1.743,0,1,1-1.743-1.766A1.749,1.749,0,0,1,36.3,67.826" transform="translate(-27.943 -61.216)" fill="#f8b1b7"/>
            <path id="Path_282" data-name="Path 282" d="M36.2,67.8a1.676,1.676,0,1,1-1.675-1.72A1.7,1.7,0,0,1,36.2,67.8" transform="translate(-27.893 -61.191)" fill="#f8b0b7"/>
            <path id="Path_283" data-name="Path 283" d="M36.119,67.775A1.63,1.63,0,1,1,34.49,66.1a1.648,1.648,0,0,1,1.63,1.675" transform="translate(-27.88 -61.166)" fill="#f8afb6"/>
            <path id="Path_284" data-name="Path 284" d="M36.049,67.737a1.585,1.585,0,1,1-1.584-1.607,1.594,1.594,0,0,1,1.584,1.607" transform="translate(-27.855 -61.128)" fill="#f8aeb5"/>
            <path id="Path_285" data-name="Path 285" d="M35.953,67.712a1.517,1.517,0,1,1-1.517-1.562,1.541,1.541,0,0,1,1.517,1.562" transform="translate(-27.804 -61.102)" fill="#f7aeb5"/>
            <path id="Path_286" data-name="Path 286" d="M35.873,67.674A1.471,1.471,0,1,1,34.4,66.18a1.473,1.473,0,0,1,1.471,1.494" transform="translate(-27.792 -61.064)" fill="#f7adb4"/>
            <path id="Path_287" data-name="Path 287" d="M35.8,67.649A1.426,1.426,0,1,1,34.376,66.2,1.439,1.439,0,0,1,35.8,67.649" transform="translate(-27.767 -61.039)" fill="#f7acb3"/>
            <path id="Path_288" data-name="Path 288" d="M35.719,67.623a1.387,1.387,0,0,1-1.358,1.4,1.406,1.406,0,0,1-1.381-1.4,1.391,1.391,0,0,1,1.381-1.4,1.372,1.372,0,0,1,1.358,1.4" transform="translate(-27.729 -61.014)" fill="#f7abb3"/>
            <path id="Path_289" data-name="Path 289" d="M35.626,67.585a1.313,1.313,0,1,1-1.313-1.335,1.319,1.319,0,0,1,1.313,1.335" transform="translate(-27.703 -60.976)" fill="#f7aab2"/>
            <path id="Path_290" data-name="Path 290" d="M35.555,67.56a1.271,1.271,0,0,1-1.268,1.29,1.29,1.29,0,1,1,1.268-1.29" transform="translate(-27.678 -60.951)" fill="#f7aab1"/>
            <path id="Path_291" data-name="Path 291" d="M35.472,67.535a1.232,1.232,0,0,1-1.2,1.245,1.252,1.252,0,0,1-1.222-1.245,1.237,1.237,0,0,1,1.222-1.245,1.218,1.218,0,0,1,1.2,1.245" transform="translate(-27.64 -60.925)" fill="#f7a9b1"/>
            <path id="Path_292" data-name="Path 292" d="M35.379,67.5a1.155,1.155,0,1,1-1.154-1.177A1.164,1.164,0,0,1,35.379,67.5" transform="translate(-27.615 -60.888)" fill="#f7a8b0"/>
            <path id="Path_293" data-name="Path 293" d="M35.308,67.472A1.131,1.131,0,0,1,34.2,68.6a1.132,1.132,0,1,1,1.109-1.132" transform="translate(-27.59 -60.862)" fill="#f7a7b0"/>
            <path id="Path_294" data-name="Path 294" d="M35.238,67.446a1.082,1.082,0,0,1-1.064,1.087,1.087,1.087,0,1,1,1.064-1.087" transform="translate(-27.564 -60.837)" fill="#f7a7af"/>
            <path id="Path_295" data-name="Path 295" d="M35.132,67.409a1,1,0,1,1-1-1.019,1.01,1.01,0,0,1,1,1.019" transform="translate(-27.526 -60.799)" fill="#f7a6ae"/>
            <path id="Path_296" data-name="Path 296" d="M35.061,67.383a.951.951,0,1,1-.951-.973.961.961,0,0,1,.951.973" transform="translate(-27.501 -60.774)" fill="#f7a5ae"/>
            <path id="Path_297" data-name="Path 297" d="M34.991,67.345a.905.905,0,1,1-.905-.905.908.908,0,0,1,.905.905" transform="translate(-27.476 -60.736)" fill="#f7a4ad"/>
            <path id="Path_298" data-name="Path 298" d="M34.885,67.32a.838.838,0,1,1-.838-.86.855.855,0,0,1,.838.86" transform="translate(-27.438 -60.711)" fill="#f6a4ad"/>
            <path id="Path_299" data-name="Path 299" d="M34.814,67.295a.793.793,0,1,1-.792-.815.807.807,0,0,1,.792.815" transform="translate(-27.413 -60.685)" fill="#f6a3ac"/>
            <path id="Path_300" data-name="Path 300" d="M34.744,67.257A.747.747,0,1,1,34,66.51a.754.754,0,0,1,.747.747" transform="translate(-27.387 -60.647)" fill="#f6a2ab"/>
            <path id="Path_301" data-name="Path 301" d="M34.638,67.232a.679.679,0,1,1-.679-.7.7.7,0,0,1,.679.7" transform="translate(-27.35 -60.622)" fill="#f6a1ab"/>
            <path id="Path_302" data-name="Path 302" d="M34.568,67.206a.634.634,0,1,1-.634-.656.638.638,0,0,1,.634.656" transform="translate(-27.324 -60.597)" fill="#f6a0aa"/>
            <path id="Path_303" data-name="Path 303" d="M34.5,67.169a.589.589,0,1,1-.589-.589.584.584,0,0,1,.589.589" transform="translate(-27.299 -60.559)" fill="#f6a0aa"/>
          </g>
          <path id="Path_305" data-name="Path 305" d="M34.391,67.143a.521.521,0,1,1-.521-.543.532.532,0,0,1,.521.543" transform="translate(42.159 84.184)" fill="#f69fa9"/>
          <g id="Group_5" data-name="Group 5" transform="translate(69.42 144.718)" clip-path="url(#clip-path-6)">
            <path id="Path_306" data-name="Path 306" d="M34.321,67.105a.464.464,0,0,1-.475.475.475.475,0,1,1,.475-.475" transform="translate(-27.236 -60.496)" fill="#f69ea8"/>
            <path id="Path_307" data-name="Path 307" d="M34.25,67.08a.43.43,0,1,1-.43-.43.43.43,0,0,1,.43.43" transform="translate(-27.211 -60.471)" fill="#f69da8"/>
          </g>
          <path id="Path_309" data-name="Path 309" d="M34.144,67.055a.377.377,0,0,1-.362.385.386.386,0,1,1,.362-.385" transform="translate(42.248 84.273)" fill="#f69da7"/>
          <path id="Path_310" data-name="Path 310" d="M34.074,67.017a.317.317,0,1,1-.317-.317.309.309,0,0,1,.317.317" transform="translate(42.273 84.311)" fill="#f69ca7"/>
          <path id="Path_311" data-name="Path 311" d="M34,66.992a.272.272,0,1,1-.272-.272.262.262,0,0,1,.272.272" transform="translate(42.298 84.336)" fill="#f69ba6"/>
          <path id="Path_312" data-name="Path 312" d="M33.9,66.966a.223.223,0,0,1-.2.226.228.228,0,1,1,.2-.226" transform="translate(42.336 84.361)" fill="#f59aa5"/>
          <path id="Path_313" data-name="Path 313" d="M33.827,66.928s-.068.158-.158.158a.158.158,0,1,1,.158-.158" transform="translate(42.361 84.399)" fill="#f59aa5"/>
          <path id="Path_314" data-name="Path 314" d="M33.756,66.9s-.045.113-.113.113a.113.113,0,1,1,.113-.113" transform="translate(42.387 84.424)" fill="#f599a4"/>
          <path id="Path_315" data-name="Path 315" d="M33.651,66.865s-.023.045-.045.045a.045.045,0,1,1,.045-.045" transform="translate(42.425 84.462)" fill="#f598a4"/>
          <path id="Path_316" data-name="Path 316" d="M67.5,60.078a1.1,1.1,0,0,1-.272,1c.792,1.268,2.218,1.177,3.418,1.539.294.385-.068.792-.521.86-1.992.611-3.8-2.037-5.3.317-.045,1.041.973,1.652,1.743,2.105,0,.2.045.43-.181.521a3.479,3.479,0,0,1-2.716-.43c-.34-.294-.724-.951-1.154-.34-.407.588,0,1.607.34,2.2l.973.838a1.451,1.451,0,0,1-1.584.272c-.837-.724-1.7-1.268-1.992-2.354a1.328,1.328,0,0,0-1.064.294c.249.883.973,1.788.43,2.739-1.177-.181-1.811-1.517-2.331-2.467a2.331,2.331,0,0,0-1.584-.5c-.385.611.362,1.562-.385,2.105a3.046,3.046,0,0,1-1.562-.928c-.2-.521-.181-1.245-.679-1.607-1.652-.294-3.622.294-5.138-.521-.43-.656.249-1.132.679-1.426a15.727,15.727,0,0,1,4.391-.091c.815.158,1.607.34,2.422.521,3.735.928,6.813-.77,9.3-3.463a6.816,6.816,0,0,1,2.49-2.015l.272.86" transform="translate(60.429 74.885)" fill="#231f20"/>
          <path id="Path_317" data-name="Path 317" d="M36.4,62.155a7.246,7.246,0,0,0,7.017,2.784c1.652-.136,3.01-1.087,4.55-1.607,1.109-.77,1.29-2.105,2.694-2.173.43,0,.905.181.973.566v.611l-2.558,2.128a13.245,13.245,0,0,1-3.3,1.245c-.136.792.091,2.241-.928,2.535H43.349c-.158-.611.34-1.652-.294-2.082-1.788-.475-1.29,1.72-2.694,2.173a5.528,5.528,0,0,1-1.562.34c-.158-.86.973-1.562.679-2.513a13.08,13.08,0,0,0-1.743-.43,4.821,4.821,0,0,1-4.052,2.354c.385-.77,1.019-1.154,1.471-1.9.34-.521.86-1.041.634-1.675l-1.132-.951a8.264,8.264,0,0,1-3.486,1.584l-.181-.249c.815-1.041,3.146-1.9,2.6-3.69.407-.43.883-.249,1.4-.181.5.294.724,1.154,1.4,1.154" transform="translate(39.177 77.017)" fill="#231f20"/>
          <path id="Path_318" data-name="Path 318" d="M41.646,75.077c2.4.158,4.391-1.607,6.542-2.467,2.15-.883,4.278.385,6.293,1.2a3.979,3.979,0,0,0,1.924.249,1.177,1.177,0,0,0,.023-2.354,2.436,2.436,0,0,1-.815-.068c-1.811-.611-3.531-1.562-5.455-1.7-2.6-.2-4.618,1.652-6.972,2.513a2.144,2.144,0,0,1-1.109.294,1.154,1.154,0,0,0-1.335.973,1.179,1.179,0,0,0,.928,1.358" transform="translate(51.474 88.383)" fill="#ed145b"/>
          <path id="Path_319" data-name="Path 319" d="M57.142,72.049a6.024,6.024,0,0,1,1.879-.679,5.606,5.606,0,0,1,.43.589c-.045.747-.86,1.041-1.313,1.449-.815.385-1.788-.136-2.558.181a2.306,2.306,0,0,1-1.2,1.335A12.616,12.616,0,0,1,43,74.494c-.905-.272-1.7-.158-2.626-.475-.34-.656.634-.905.973-1.222,1.426.362,2.467-.34,3.871-.068a7.117,7.117,0,0,1,8.375-1.177c1.222.045,2.264,1.041,3.576.5" transform="translate(50.939 89.374)" fill="#231f20"/>
          <path id="Path_320" data-name="Path 320" d="M50.1,72.286c-1.7,1.947-4.685,1.562-6.926,1l-.181-.2c1.4-1,3.35-2.467,5.183-1.222a7.166,7.166,0,0,1,1.924.43" transform="translate(54.34 90.223)" fill="#fff"/>
          <path id="Path_321" data-name="Path 321" d="M42.688,74.118c.475,1.992,2.513,3.644,4.369,4.323a7.535,7.535,0,0,0,5.659-.181c1.788-.747,3.327-2.173,5-3.124-.068.5.475.792.181,1.268a11.462,11.462,0,0,1-11.567,3.554A9.036,9.036,0,0,1,40.2,74.73c-.294-.566.43-1,.724-1.335.407.181.634-.453,1-.091.136.317.475.521.724.838" transform="translate(50.725 92.511)" fill="#231f20"/>
          <path id="Path_322" data-name="Path 322" d="M69.314,74.99l5.5-7.9-3.667,8.986L78.73,78l-8.352-.158L71.713,88.48l-2.988-9.846-7.243,8.76,5.795-9.959L58.2,76.552l9.258-.792-.951-7.786,2.807,7.017" transform="translate(73.558 84.803)" fill="#fff200"/>
          <path id="Path_323" data-name="Path 323" d="M53.569,21.267c.385-.77,1.222-.951,1.833-1.268-.838-1.743-3.1-.566-3.871.747-1.064,2.6-1.109,5.636-1.652,8.443a12.382,12.382,0,0,1-2.6.181c-.249.226-.724.317-.634.747a4.758,4.758,0,0,0,2.965.589,28.137,28.137,0,0,1-1.4,5.636,10.529,10.529,0,0,1-1.924,4.369,3.754,3.754,0,0,0,1.743.34,12.9,12.9,0,0,0,1.924-4.8c.589-.43.294-1.245.634-1.788a17.042,17.042,0,0,0,.77-3.418c-.045-1.381,1.743-.181,2.286-1.041,0-1.132-1.358-.385-1.833-1a22.245,22.245,0,0,1,.43-3.622c-.091-1.471.724-2.784,1.313-4.12" transform="translate(58.497 24.196)" fill="#8dc63f"/>
          <path id="Path_324" data-name="Path 324" d="M58.533,23.455c-.543.136-1.449-.045-1.675.611a3.691,3.691,0,0,0,3.418.521,4.149,4.149,0,0,1,1.947,2.49c.679,3.554-.973,6.338-2.626,9.009-1,2.354-3.1,3.939-3.576,6.5a3.908,3.908,0,0,0,1.9.905c-.294-1.652,1.087-2.807,1.811-4.12.656-1.268,1.494-2.422,2.218-3.644,1.449-2.648,2.535-5.636,1.9-8.918a5.4,5.4,0,0,0-5.342-3.373" transform="translate(70.803 29.636)" fill="#8dc63f"/>
          <path id="Path_325" data-name="Path 325" d="M58.011,28.145a3.048,3.048,0,0,0-2.9.566c-.86.023-.5-.883-1.154-1.109-.543-.34-1.154-.023-1.652-.249-.091-.2.068-.294.158-.475.5-.045.136-.747.34-1.041l-.589-1.086c-.5.136-1.109-.045-1.4.521-.634,1.743-.158,3.939-.973,5.636a6.865,6.865,0,0,0,2.218.34,2.715,2.715,0,0,1,.589-2.286c.679.249.566,1.154.724,1.856a4.894,4.894,0,0,0,1.833.5c.294-.2.158-.634.34-.928a1.994,1.994,0,0,1,1.381-1.177,3.718,3.718,0,0,1,.973,2.309c0,1-.679,1.72-.792,2.671l1.222.272a2.171,2.171,0,0,0,1.313-1.607,4.717,4.717,0,0,0-1.652-4.731" transform="translate(62.995 31.306)" fill="#8dc63f"/>
          <path id="Path_326" data-name="Path 326" d="M62.185,32.745A12.22,12.22,0,0,1,66.1,28.376a2.338,2.338,0,0,0-.679-1.426,4.028,4.028,0,0,0-1.4.43,17.434,17.434,0,0,0-3.486,4.708c-1.064,1.517-.724,3.735.091,5.3a3.869,3.869,0,0,0,3.644,1.7c.973-.566,1.154-1.607,1.652-2.422.543-1.268-.5-2.082-.77-3.124-1.019-.838-2.082-.294-3.214-.43,0-.181.158-.272.249-.34M62,34.872c.77.045,1.788-.7,2.241.091.2,1.132-.611,1.947-1.132,2.694-.611.091-1.041-.656-1.29-1.086.045-.543-.543-1.29.181-1.675Z" transform="translate(75.661 34.086)" fill="#8dc63f"/>
          <path id="Path_327" data-name="Path 327" d="M69.09,35.163c.249-.77,1.109-1.29,1.4-2.015,1.064-1.041.589-2.739.091-3.939a2.589,2.589,0,0,0-1.154-1.154,3.415,3.415,0,0,0-2.535.475c-.656.521-1.222,1-1.109,1.947a2.5,2.5,0,0,0,2.082,1.268l-.249-1.177c.453-.294.724-1.222,1.4-1,1.109,2.852-2.037,4.821-3.531,6.723-.294.905-1.222,1.517-1.471,2.467,1.109,2.037,3.3,2.694,5.274,3.214.385-.249.068-.566.158-.951-1.2-.679-2.716-.951-3.486-2.331.656-.951,1.335-1.811,2.082-2.694.566-.091.475-.7,1.087-.792" transform="translate(80.911 35.379)" fill="#8dc63f"/>
          <path id="Path_328" data-name="Path 328" d="M44.5,18.641a1.379,1.379,0,0,0-2.082-.091,11.38,11.38,0,0,0,1,3.463,3.392,3.392,0,0,0,1.856.385c.2-.634-.272-1.358-.385-2.015-.226-.521-.091-1.245-.385-1.72" transform="translate(53.619 22.929)" fill="#8dc63f"/>
          <path id="Path_329" data-name="Path 329" d="M45.539,18.213c-.5-.2-1.358-.362-1.7.226a9.182,9.182,0,0,0,.724,2.807,1.752,1.752,0,0,0,1.766.294l.136-.724c-.2-.928-.226-1.969-.905-2.6" transform="translate(55.412 22.813)" fill="#8dc63f"/>
          <path id="Path_330" data-name="Path 330" d="M44.844,23.671c.815-.362,1.879-.158,2.467-.86a.812.812,0,0,0-.181-.475c-.679-.2-1.607.158-2.422.113a18.216,18.216,0,0,1-.656-3.237c-.181-.2-.385-.543-.724-.566a1.282,1.282,0,0,0-1.109.385l.385,3.554-.068.136c-1.584.136-2.807.928-4.323,1.154-.136.136-.5.317-.34.566,1.607,1.132,3.169-.453,4.867-.589a7.834,7.834,0,0,1,.634,2.58c-.815.43-2.015.5-2.241,1.607a5.426,5.426,0,0,0,.951,4.55c.589.543,1.471.136,2.173.272,1-.385,1.245-1.607,1.471-2.513h.068a9.363,9.363,0,0,1,1.562,4.934c.045,2.558.272,5.161-1.019,7.334-.362.5-.77,1.019-1.4.838-.181.158-.521.407-.407.679.634.611,1.517.249,2.331.136,2.422-1.652,2.513-4.618,2.6-7.221.068-3.757-1.086-7.424-3.848-9.8-.091-1.313-.634-2.422-.747-3.6m-1.471,7.605h-.136c-.34-1.064-.611-2.6.34-3.35A7.841,7.841,0,0,1,43.395,31.254Z" transform="translate(47.823 23.558)" fill="#8dc63f"/>
          <path id="Path_331" data-name="Path 331" d="M42.216,36.264a3.087,3.087,0,0,1-2.558-.838c-2.377-1.9-2.173-5.817-1.675-8.488.091-.407.362-.77.249-1.222a1.2,1.2,0,0,0-1.313-.385,30.84,30.84,0,0,0-4.437,4.188,4.577,4.577,0,0,1-.453-1.856,3.62,3.62,0,0,1,1.29-.634c.136-.113.475-.226.317-.521-.136-.113-.385-.362-.634-.317-.475-.181-.928.362-1.313,0a21.053,21.053,0,0,1-.362-3.576,1.159,1.159,0,0,0-1.879.181c-.181,1.4.317,2.965.294,4.414a2.083,2.083,0,0,1-1.4.362c-.294.226-1.041.362-.792.973a4.9,4.9,0,0,0,2.558,0l.747,2.92a18.1,18.1,0,0,1-3.124,3.3v.181c-.045.272.249.272.385.317a3.232,3.232,0,0,0,3.078-1.652h.294c.611,2.286,1.562,4.64,1.766,7.017.43.362.928-.226,1.381,0,.158-.158.634-.045.589-.43-.2-3.192-1.471-5.749-2.241-8.647l2.513-2.875h.158c-.226,3.259.249,6.994,3.531,8.466a4.3,4.3,0,0,0,3.259-.43.475.475,0,0,0-.226-.475" transform="translate(34.765 28.099)" fill="#8dc63f"/>
          <path id="Path_332" data-name="Path 332" d="M24.6,29.957a7.418,7.418,0,0,0,1.63-2.875,3.618,3.618,0,0,0-.611-2.422A4.258,4.258,0,0,0,23.4,23.484a3.364,3.364,0,0,0-2.105.634c-.272.34-.679.634-.43,1.086a5.774,5.774,0,0,0,2.128-.249,2.208,2.208,0,0,1,1.019,1.064c.475,1.041-.113,1.924-.521,2.761-.43.905-1.743,1.222-1.517,2.264,2.49.068,4.074,2.648,5,4.595,1.132,2.626-.521,5-2.15,6.9-.113.385.272.385.566.385,2.2.023,2.875-2.445,3.69-3.961.792-2.2-.249-4.776-1.517-6.428A8.575,8.575,0,0,0,24.621,30" transform="translate(26.284 29.675)" fill="#8dc63f"/>
          <path id="Path_333" data-name="Path 333" d="M45.225,30.323c-3.486,1.584-3.984-3.033-6.112-4.414-1.2-.362-2.218.475-3.033,1.245-.611-1.086-.362-2.377-.543-3.531-.294-.5-.838-.43-1.268-.453-.34.158-.724.362-.77.77a35.233,35.233,0,0,0,1.471,7.379,3.18,3.18,0,0,0,1.9.045c.226-.77-.2-1.924.362-2.694.34-.43.475-1.064,1.019-1.2,1.086,1.29,1.426,3.282,3.35,3.916,1.132.34,2.943.566,3.8-.5.068-.158.091-.521-.181-.566" transform="translate(42.349 29.31)" fill="#8dc63f"/>
          <path id="Path_334" data-name="Path 334" d="M25.913,26.742a1.419,1.419,0,0,0-.656.656,2.915,2.915,0,0,0,1.517,2.739c.543.249,1.222-.068,1.766-.226-.294-.973-1.064-1.63-1.177-2.716a1.313,1.313,0,0,0-1.449-.453" transform="translate(31.918 33.751)" fill="#8dc63f"/>
          <path id="Path_335" data-name="Path 335" d="M20.412,27.908c-1.109.43-.045,1.426-.068,2.15a31.6,31.6,0,0,1,.385,3.418c.656.249,1.154-.272,1.788-.317.43-1.607-.181-3.463-.521-5.093-.362-.543-1.132-.43-1.607-.181" transform="translate(25.173 35.006)" fill="#8dc63f"/>
        </g>
      </g>
    </g>
  </g>
</svg>
