<svg xmlns="http://www.w3.org/2000/svg" xmlns:xlink="http://www.w3.org/1999/xlink" width="199" height="196.122" viewBox="0 0 199 196.122">
  <defs>
    <clipPath id="clip-path">
      <rect id="Rectangle_66" data-name="Rectangle 66" width="81" height="112" transform="translate(1420 5804)" fill="#fff" stroke="#707070" stroke-width="1"/>
    </clipPath>
  </defs>
  <g id="Group_217" data-name="Group 217" transform="translate(-1302 -489.878)">
    <g id="Group_29" data-name="Group 29" transform="translate(1302 495.878)">
      <path id="Path_386" data-name="Path 386" d="M90.533,180.446l-16.638-6.868H55.888L43.152,160.889l-16.635-6.868L19.623,137.44,6.891,124.749V106.8L0,90.223,6.891,73.642V55.7L19.623,43.005l6.894-16.581,16.635-6.865L55.888,6.868H73.895L90.533,0l16.638,6.868h18.006L137.91,19.559l16.638,6.865,6.891,16.581L174.175,55.7V73.642l6.891,16.581L174.175,106.8v17.945L161.439,137.44l-6.891,16.581-16.638,6.868-12.733,12.688H107.171Z" transform="translate(0 -6)" fill="#fec700"/>
      <path id="Path_387" data-name="Path 387" d="M77.981,324.836c-4.305-3.177-8.418-6.565-12.5-10.016l.559.374q-5.7-1.831-11.343-3.838c-.754-.278-4.037-1.438-4.7-1.681-1.8-3.89-3.723-8.076-5.436-11.985l-1.585-3.643.681,1.016c-4.072-3.96-8.268-8.118-12.212-12.209.074-5.58.221-11.544.457-17.121l.208,1.039c-.77-2.164-1.937-5.334-2.665-7.491-.965-2.771-1.9-5.564-2.8-8.361,1.288-2.541,2.627-5.062,3.985-7.568,1.282-2.333,2.579-4.663,3.973-6.951-1.294,5.181-2.857,10.259-4.5,15.331V250.4c2.461,4.768,4.887,9.812,7.175,14.679.224,5.376.393,11.151.46,16.53l-.924-2.224c1.649,1.588,4.014,3.944,5.673,5.574,2.02,2.045,4.069,4.072,6.063,6.143.943,2.371,2.215,5.564,3.11,7.932.85,2.17,1.975,5.235,2.8,7.443L53,305.021l3.608,1.7q5.628,2.665,11.173,5.5c3.512,4.113,6.958,8.265,10.192,12.615h0Z" transform="translate(-18.133 -160.847)" fill="#fff"/>
      <path id="Path_388" data-name="Path 388" d="M388.7,328.19c.949,5.388,1.489,11.058,1.988,16.517-3.592,4.241-7.418,8.559-11.208,12.643l.63-.94c-1.959,5.264-4.184,10.828-6.325,16.018-3.969,1.614-8.342,3.4-12.337,4.909l-3.73,1.4.943-.626-2.943,2.685c-3.19,2.9-6.453,5.711-9.741,8.489-2.876-.243-5.75-.518-8.616-.86-2.665-.313-5.324-.665-7.974-1.138,3.966-.7,7.961-1.157,11.959-1.572,1.329-.128,2.659-.256,3.985-.368l-1.371.566c3.375-4,7.031-8.07,10.595-11.921l.32-.345.623-.281c2.841-1.3,6.267-2.8,9.109-4.033,1.16-.489,4.305-1.809,5.51-2.314l-1.732,1.726c1.988-4.756,4.222-9.876,6.376-14.561l.281-.623c.214-.2,3.017-2.749,3.289-3q4.439-4.008,9.01-7.859l-.566,1.365c.467-5.241,1.026-10.7,1.927-15.878h0Z" transform="translate(-224.117 -223.301)" fill="#fff"/>
      <path id="Path_389" data-name="Path 389" d="M283.27,32.46a148.351,148.351,0,0,1,15.571,4.059l-.834-.166q8.548-.748,17.137-.93,6.3,5.906,12.269,12.167l-1-.668c5.2,2.292,10.313,4.794,15.363,7.408a152.291,152.291,0,0,1,4.283,16.207A145.576,145.576,0,0,1,337.931,56.7l1.189,1.186q-7.867-2.469-15.564-5.436-3.154-2.963-6.219-6.024c-1.876-1.876-3.736-3.771-5.561-5.7l2.18.9q-7.982-.206-15.948-.9l-.617-.048-.217-.118a148.235,148.235,0,0,1-13.9-8.105h0Z" transform="translate(-192.737 -22.086)" fill="#fff"/>
    </g>
    <g id="レイヤー_3" data-name="レイヤー 3" transform="translate(1336.744 543.141)">
      <g id="Group_20" data-name="Group 20" transform="translate(-6.829 -3.775)">
        <path id="Path_351" data-name="Path 351" d="M48.37,39.3a3.744,3.744,0,0,1-.577,1.155Q46.111,43.4,42.72,49.233q-4.874,8.3-4.868,10c0,.34.1.509.317.509a3.121,3.121,0,0,0,.6-.374,2.1,2.1,0,0,1,1.291-.385c1.064,0,1.608.611,1.608,1.845S41.011,62.7,39.675,62.7a2.766,2.766,0,0,1-2.072-.589,4.37,4.37,0,0,1-.94-1.8c-.5-1.426.5-3.713,1.71-5.989,1.257-2.366,3.294-5.989,6.147-10.868H36.969a3.266,3.266,0,0,0-2.06.464,4.354,4.354,0,0,0-.826,2.219,4.087,4.087,0,0,1-.226.849c-.057.125-.192.17-.4.17-.238,0-.34-.125-.34-.374a8.036,8.036,0,0,1,.136-.872c.408-2.094.747-3.974,1-5.615a8.363,8.363,0,0,1,.374-1.2c2.4.1,3.928.147,4.6.147H45.7a10.653,10.653,0,0,0,2.434-.147h.034c.136,0,.2.068.2.181Z" transform="translate(4.376 5.166)" fill="#fff"/>
        <path id="Path_352" data-name="Path 352" d="M39.809,64.207a3.865,3.865,0,0,1-2.977-1,5.691,5.691,0,0,1-1.211-2.253c-.691-1.993.453-4.585,1.789-7.1,1.155-2.185,2.876-5.23,4.993-8.887H37.1a2.74,2.74,0,0,0-1.257.17,6.65,6.65,0,0,0-.385,1.438,4.881,4.881,0,0,1-.351,1.245,1.57,1.57,0,0,1-1.494.86,1.593,1.593,0,0,1-1.6-1.7,8.95,8.95,0,0,1,.158-1.121c.43-2.185.747-4.008.985-5.57a10.24,10.24,0,0,1,.442-1.472l.328-.894.894.034c2.377.1,3.883.147,4.551.147h6.476a12.058,12.058,0,0,0,2.06-.091l.2-.079h.17a1.48,1.48,0,0,1,1.494,1.528A3.636,3.636,0,0,1,49,41.349c-.849,1.483-2.06,3.566-3.6,6.238L43.953,50.1a80.01,80.01,0,0,0-4.166,7.755c.136-.011.272-.023.419-.023,1.766,0,2.864,1.223,2.864,3.181a2.983,2.983,0,0,1-3.238,3.2Zm-1.3-2.989a1.665,1.665,0,0,0,.113.136c.034.034.215.2,1.189.2.736,0,.736-.136.736-.555a1.094,1.094,0,0,0-.068-.487h0a.89.89,0,0,0-.283-.034.862.862,0,0,0-.566.136,2.924,2.924,0,0,1-1.109.6ZM35.643,40.636a.637.637,0,0,0-.023.113c-.079.543-.17,1.132-.283,1.755a6.528,6.528,0,0,1,1.766-.2h8.4c.328-.566.623-1.087.894-1.551h-7.03c-.589,0-1.823-.034-3.713-.113Z" transform="translate(4.231 5.012)" fill="#231f20"/>
        <path id="Path_353" data-name="Path 353" d="M64.273,48.491A7.432,7.432,0,0,1,62,54.084a8.606,8.606,0,0,1-11.536-.045q-3.006-2.836-3.011-7.97a15.316,15.316,0,0,1,3.408-10.11,10.542,10.542,0,0,1,8.412-4.1,5.867,5.867,0,0,1,3.362.849,2.674,2.674,0,0,1,1.234,2.3,2.077,2.077,0,0,1-.566,1.517,2.022,2.022,0,0,1-1.494.577c-1.211,0-1.823-.532-1.823-1.619a2.039,2.039,0,0,1,1.1-1.8q.509-.323.509-.509c0-.475-.691-.713-2.083-.713a4.135,4.135,0,0,0-2.536.86,9.627,9.627,0,0,0-2.977,4.732,24.02,24.02,0,0,0-1.1,5.027A6.3,6.3,0,0,1,57.322,41.3,6.614,6.614,0,0,1,62.3,43.328a7.117,7.117,0,0,1,1.97,5.151Zm-5.106,1.574q0-4.195-.917-5.91A2.335,2.335,0,0,0,55.828,42.8a3.111,3.111,0,0,0-2.445,1.1c-.668.917-.77,2.23-.77,4.687a10.459,10.459,0,0,0,1.177,5.536c.668,1.042,1.642,1.03,2.683,1.03,1.891,0,2.694-1.336,2.694-5.072Z" transform="translate(6.269 4.21)" fill="#fff"/>
        <path id="Path_354" data-name="Path 354" d="M56.335,57.77a9.338,9.338,0,0,1-6.555-2.581c-2.276-2.151-3.43-5.162-3.43-8.966A16.77,16.77,0,0,1,50.063,35.23a11.776,11.776,0,0,1,9.351-4.54,6.913,6.913,0,0,1,4.042,1.064,4,4,0,0,1,1.8,3.419,3.486,3.486,0,0,1-.94,2.468,3.227,3.227,0,0,1-2.366.962,2.8,2.8,0,0,1-3.079-2.944,3.345,3.345,0,0,1,.442-1.676,3.1,3.1,0,0,0-1.483.6,8.446,8.446,0,0,0-2.513,4.087c-.215.645-.408,1.313-.566,1.97a7.448,7.448,0,0,1,2.706-.487,7.861,7.861,0,0,1,5.864,2.4,8.469,8.469,0,0,1,2.355,6.1,8.747,8.747,0,0,1-2.694,6.578,9.259,9.259,0,0,1-6.657,2.536Zm2.728-14.786a4.693,4.693,0,0,1,.43.679c.725,1.37,1.076,3.51,1.076,6.566a11.52,11.52,0,0,1-.521,3.974,6.541,6.541,0,0,0,1.245-.94,6.075,6.075,0,0,0,1.868-4.619,5.729,5.729,0,0,0-1.6-4.2A5.137,5.137,0,0,0,59.064,42.985Zm-3.079,1.3a1.976,1.976,0,0,0-1.46.577c-.43.589-.509,1.766-.509,3.872a9.424,9.424,0,0,0,.962,4.789c.249.385.555.442,1.619.442.668,0,1.46,0,1.46-3.747,0-3.17-.408-4.619-.759-5.264-.294-.566-.521-.679-1.325-.679Zm-1.71-9.442a11.329,11.329,0,0,0-2.332,2.128,14.05,14.05,0,0,0-3.091,9.238c0,3.057.849,5.344,2.593,6.985a7.594,7.594,0,0,0,.894.725,13.72,13.72,0,0,1-.826-5.2c0-.86,0-1.653.068-2.366l-.147.136.362-3.4a25.687,25.687,0,0,1,1.155-5.321,14.949,14.949,0,0,1,1.313-2.932Zm7.144,1.019a1.5,1.5,0,0,0,.532.068.752.752,0,0,0,.623-.215.729.729,0,0,0,.17-.555,1.262,1.262,0,0,0-.192-.725,3.477,3.477,0,0,1-.679.555c-.487.306-.487.521-.487.657a.978.978,0,0,0,.023.215h0Z" transform="translate(6.124 4.055)" fill="#231f20"/>
        <path id="Path_355" data-name="Path 355" d="M79.42,47.755s-.057.374-.17,1.053c-.159,1-.351,3.045-.577,6.159-.747,0-2.491-.057-5.208-.181-1.1-.045-2.06-.079-2.887-.079-1,0-2.717.079-5.14.226-.34.023-.645.023-.894.023-1.042,0-1.574-.079-1.574-.249,0-.147.238-.328.713-.532a46.284,46.284,0,0,0,4.178-2.468q4.789-3.04,4.789-7.37a4.545,4.545,0,0,0-1.042-3.159A3.562,3.562,0,0,0,68.778,40,2.975,2.975,0,0,0,66.3,41a2.917,2.917,0,0,0-.8,1.687c0,.238.2.4.623.464,1.528.26,2.3.906,2.3,1.879,0,1.211-.577,1.811-1.755,1.811a2.1,2.1,0,0,1-1.676-.759,2.923,2.923,0,0,1-.657-1.959,4.71,4.71,0,0,1,1.811-3.838A7.26,7.26,0,0,1,70.872,38.8a7.72,7.72,0,0,1,4.845,1.483,4.518,4.518,0,0,1,1.936,3.736c0,1.766-.951,3.294-2.842,4.608a25.814,25.814,0,0,1-4.076,2.049s-.17.158-.079.283c.068.1.125.147.464.147,2.264,0,3.51-.045,5.038-.17a2.79,2.79,0,0,0,1.732-.566,3.156,3.156,0,0,0,.668-1.789q.17-1.121.577-1.121a.248.248,0,0,1,.272.283Z" transform="translate(8.32 5.126)" fill="#fff"/>
        <path id="Path_356" data-name="Path 356" d="M79.985,56.447H78.819c-.759,0-2.513-.057-5.264-.181-1.075-.045-2.026-.079-2.83-.079-.951,0-2.661.079-5.061.226-.374.023-.691.034-.974.034-1.053,0-2.83,0-2.83-1.574,0-1.109,1.087-1.585,1.494-1.766a46.649,46.649,0,0,0,4.019-2.377c2.808-1.777,4.178-3.815,4.178-6.238a3.189,3.189,0,0,0-.7-2.242,2.4,2.4,0,0,0-1.925-.77c-1.1,0-1.415.4-1.528.532-.045.057-.091.125-.136.17,2.2.668,2.547,2.128,2.547,3A2.853,2.853,0,0,1,66.8,48.319a3.35,3.35,0,0,1-2.615-1.2,4.264,4.264,0,0,1-.974-2.842,6.084,6.084,0,0,1,2.31-4.891,8.474,8.474,0,0,1,5.491-1.766A8.955,8.955,0,0,1,76.6,39.363a5.964,5.964,0,0,1,2.015,7.076A1.532,1.532,0,0,1,80.8,47.911a7.98,7.98,0,0,1-.113.8l-.079.475c-.159.928-.34,2.966-.566,6.034l-.091,1.223Zm-9.261-2.91c.838,0,1.811.034,2.932.079,1.743.079,3.068.125,4,.159.045-.577.091-1.121.125-1.608a6.143,6.143,0,0,1-1.37.26c-1.6.136-2.9.181-5.14.181a1.672,1.672,0,0,1-1.325-.5c-.4.306-.826.611-1.291.906-.362.226-.7.442-1.019.634,1.359-.068,2.377-.1,3.079-.1Zm6.8-5.287a9.434,9.434,0,0,1-1.743,1.562l.43-.034a2.156,2.156,0,0,0,.985-.226h0a2.919,2.919,0,0,0,.272-1.03c.011-.1.034-.192.045-.283Zm-4.834-7.812a5.874,5.874,0,0,1,1.37,4.053,8.517,8.517,0,0,1-.883,3.827,8.533,8.533,0,0,0,1.1-.657c1.528-1.053,2.276-2.2,2.276-3.487a3.152,3.152,0,0,0-1.415-2.649,5.842,5.842,0,0,0-2.457-1.087Zm-6.94,4.11a1.386,1.386,0,0,0,.317.815.879.879,0,0,0,.747.317c.328,0,.43-.068.442-.079h0a.948.948,0,0,0,.057-.408c0-.215-.509-.453-1.245-.577C65.958,44.594,65.856,44.571,65.755,44.549Z" transform="translate(8.173 4.971)" fill="#231f20"/>
        <path id="Path_357" data-name="Path 357" d="M48.37,39.331a3.872,3.872,0,0,1-.577,1.166q-1.681,2.938-5.072,8.774-4.874,8.3-4.868,10.008c0,.34.1.5.317.5a2.894,2.894,0,0,0,.6-.385,2.178,2.178,0,0,1,1.291-.385c1.064,0,1.608.611,1.608,1.845s-.657,1.891-1.993,1.891a2.766,2.766,0,0,1-2.072-.589,4.493,4.493,0,0,1-.94-1.811c-.5-1.415.5-3.7,1.71-5.978C39.63,52,41.668,48.377,44.52,43.486H36.969a3.182,3.182,0,0,0-2.06.475,4.349,4.349,0,0,0-.826,2.208,4.283,4.283,0,0,1-.226.86c-.057.113-.192.17-.4.17-.238,0-.34-.125-.34-.362a8.036,8.036,0,0,1,.136-.872c.408-2.106.747-3.974,1-5.615a8.831,8.831,0,0,1,.374-1.2c2.4.091,3.928.147,4.6.147H45.7a10.653,10.653,0,0,0,2.434-.147h.034c.136,0,.2.057.2.181Z" transform="translate(4.376 5.173)" fill="#fff"/>
        <path id="Path_358" data-name="Path 358" d="M64.273,48.522A7.457,7.457,0,0,1,62,54.126a8.623,8.623,0,0,1-11.536-.057q-3.006-2.836-3.011-7.981a15.316,15.316,0,0,1,3.408-10.11,10.542,10.542,0,0,1,8.412-4.1,5.78,5.78,0,0,1,3.362.849,2.674,2.674,0,0,1,1.234,2.3,2.1,2.1,0,0,1-.566,1.528,2.022,2.022,0,0,1-1.494.577c-1.211,0-1.823-.543-1.823-1.619a2.065,2.065,0,0,1,1.1-1.8q.509-.323.509-.509c0-.475-.691-.713-2.083-.713a4.207,4.207,0,0,0-2.536.86,9.574,9.574,0,0,0-2.977,4.732A24.074,24.074,0,0,0,52.9,43.1a6.347,6.347,0,0,1,4.427-1.777A6.623,6.623,0,0,1,62.3,43.36a7.072,7.072,0,0,1,1.97,5.14ZM59.168,50.1q0-4.195-.917-5.91a2.335,2.335,0,0,0-2.423-1.359,3.111,3.111,0,0,0-2.445,1.1c-.668.917-.77,2.23-.77,4.687a10.486,10.486,0,0,0,1.177,5.536c.668,1.042,1.642,1.03,2.683,1.03,1.891,0,2.694-1.336,2.694-5.072Z" transform="translate(6.269 4.212)" fill="#fff"/>
        <path id="Path_359" data-name="Path 359" d="M79.42,47.78s-.057.385-.17,1.053c-.159,1-.351,3.045-.577,6.159-.747,0-2.491-.057-5.208-.181q-1.647-.068-2.887-.068c-1,0-2.717.068-5.14.226-.34.023-.645.023-.894.023-1.042,0-1.574-.079-1.574-.249,0-.147.238-.317.713-.543a46.9,46.9,0,0,0,4.178-2.445q4.789-3.04,4.789-7.381a4.5,4.5,0,0,0-1.042-3.147,3.562,3.562,0,0,0-2.83-1.177,2.975,2.975,0,0,0-2.479,1,2.887,2.887,0,0,0-.8,1.687c0,.249.2.4.623.475,1.528.272,2.3.894,2.3,1.891a1.576,1.576,0,0,1-1.755,1.811,2.1,2.1,0,0,1-1.676-.759,2.923,2.923,0,0,1-.657-1.959,4.747,4.747,0,0,1,1.811-3.849,7.319,7.319,0,0,1,4.732-1.472,7.785,7.785,0,0,1,4.845,1.472,4.552,4.552,0,0,1,1.936,3.747q0,2.649-2.842,4.6a24.883,24.883,0,0,1-4.076,2.049s-.17.17-.079.294c.068.1.125.158.464.158,2.264,0,3.51-.045,5.038-.17a2.862,2.862,0,0,0,1.732-.566,3.156,3.156,0,0,0,.668-1.789c.113-.747.306-1.132.577-1.132a.248.248,0,0,1,.272.283Z" transform="translate(8.32 5.136)" fill="#fff"/>
        <path id="Path_360" data-name="Path 360" d="M50.066,10.761c-1.109,4.291-2.819,10.676-6.385,13.257-4.189,3.045-8.265,2.91-11.321,3.113V22.751h0c8.842-.249,11.5-1.947,17.2-12h.509Z" transform="translate(4.276 1.42)" fill="#fff"/>
        <path id="Path_361" data-name="Path 361" d="M31.261,28.716v-7.1l1.211-.034c8.491-.238,10.755-1.834,16.155-11.355L49,9.56l2.842.091-.419,1.63c-1.076,4.155-2.864,11.095-6.883,14S36.56,28.41,33.65,28.568l-2.4.158Zm2.5-4.529v1.7c2.83-.158,6.023-.385,9.351-2.808A11.911,11.911,0,0,0,46.6,18.1c-3.453,4.449-6.736,5.785-12.85,6.091Z" transform="translate(4.129 1.263)" fill="#231f20"/>
        <path id="Path_362" data-name="Path 362" d="M64.475,12.935c-.385.362-1.483-.442-2.445-1.8S60.58,8.384,60.976,8.01c.374-.362,1.472.442,2.445,1.8S64.86,12.561,64.475,12.935Z" transform="translate(8.038 1.047)" fill="#fff"/>
        <path id="Path_363" data-name="Path 363" d="M64.383,14.5H64.2c-1.291-.136-2.547-1.732-3.023-2.4-.577-.8-2.332-3.544-.894-4.9a1.547,1.547,0,0,1,1.245-.419c1.279.125,2.559,1.721,3.045,2.4.577.815,2.332,3.544.894,4.913h0a1.524,1.524,0,0,1-1.076.43Z" transform="translate(7.892 0.895)" fill="#231f20"/>
        <path id="Path_364" data-name="Path 364" d="M66.774,12.935c-.385.362-1.472-.442-2.445-1.8S62.891,8.384,63.276,8.01s1.483.442,2.445,1.8S67.159,12.561,66.774,12.935Z" transform="translate(8.343 1.047)" fill="#fff"/>
        <path id="Path_365" data-name="Path 365" d="M66.683,14.5h-.17c-1.279-.125-2.547-1.721-3.034-2.4-.577-.8-2.321-3.532-.906-4.9a1.578,1.578,0,0,1,1.268-.43c1.279.136,2.547,1.721,3.034,2.4.577.8,2.344,3.532.894,4.9h0a1.524,1.524,0,0,1-1.076.43Z" transform="translate(8.196 0.894)" fill="#231f20"/>
        <path id="Path_366" data-name="Path 366" d="M17.922,8.939a4.008,4.008,0,0,0-2.457-.589H1.11v1.913l12.318.045a1.362,1.362,0,0,1,1.121,1.562,14.793,14.793,0,0,1-.577,2.706,19.624,19.624,0,0,1-1.993,4.891A19.172,19.172,0,0,1,3.17,26.928v.419q6.844-1.1,10.472-4.846a17.009,17.009,0,0,0,3.476-5.242,15.785,15.785,0,0,0,1.438-6.4A2.41,2.41,0,0,0,17.9,8.939Z" transform="translate(0.147 1.103)" fill="#fff"/>
        <path id="Path_367" data-name="Path 367" d="M2.06,29.053V26.211l.77-.34a17.978,17.978,0,0,0,8.242-6.963,18.839,18.839,0,0,0,1.845-4.54A13.636,13.636,0,0,0,13.4,12.2l.057-.374A.476.476,0,0,0,13.4,11.8L.023,11.742,0,7.18H15.6a5,5,0,0,1,3.215.86l.034.023a3.689,3.689,0,0,1,1.121,2.966,17.2,17.2,0,0,1-1.562,6.963,18.577,18.577,0,0,1-3.747,5.638C12.068,26.3,8.31,28.056,3.5,28.826l-1.449.226ZM15.125,9.84a2.642,2.642,0,0,1,.815,2.4l-.057.351a16.744,16.744,0,0,1-.566,2.513,20.9,20.9,0,0,1-2.151,5.242,18.848,18.848,0,0,1-2.4,3.113,13.005,13.005,0,0,0,2.14-1.755,15.864,15.864,0,0,0,3.215-4.857,14.481,14.481,0,0,0,1.325-5.842,1.514,1.514,0,0,0-.17-.883,3.018,3.018,0,0,0-1.687-.306H15.1Z" transform="translate(0 0.949)" fill="#231f20"/>
        <path id="Path_368" data-name="Path 368" d="M34.363,19.933a11.629,11.629,0,0,1-3.238,2.989,13.933,13.933,0,0,1-6.929,2.06,2.11,2.11,0,0,1-1.438-.328c-.238-.192-.34-.679-.34-1.483V7.57L18.864,7.6s-.034,1.721-.034,2.536V24.79a3.255,3.255,0,0,0,1.064,2.638,3.509,3.509,0,0,0,2.321.781,13.047,13.047,0,0,0,9.8-3.883,15.557,15.557,0,0,0,2.9-4.4h-.543Z" transform="translate(2.488 1)" fill="#fff"/>
        <path id="Path_369" data-name="Path 369" d="M22.352,29.69a4.731,4.731,0,0,1-3.1-1.064,4.55,4.55,0,0,1-1.54-3.679V10.3c0-.826.034-2.57.034-2.57l.023-1.291L23.8,6.38V23.317a2.411,2.411,0,0,0,.023.453c.113.011.283.023.509.023a12.847,12.847,0,0,0,6.329-1.9,10.651,10.651,0,0,0,2.876-2.683l.374-.464h3.136l-.894,1.913a16.921,16.921,0,0,1-3.159,4.778,14.258,14.258,0,0,1-10.665,4.245ZM20.235,9.074c0,.442-.011.906-.011,1.223v14.65a1.887,1.887,0,0,0,.589,1.6,2.3,2.3,0,0,0,1.54.487,13.524,13.524,0,0,0,5.434-1.042,13.042,13.042,0,0,1-3.43.475A3.206,3.206,0,0,1,22.08,25.8a3.272,3.272,0,0,1-.77-2.479V9.052H20.246Z" transform="translate(2.34 0.843)" fill="#231f20"/>
        <path id="Path_370" data-name="Path 370" d="M64.641,23.159A8.777,8.777,0,0,0,62.2,21.065a9.3,9.3,0,0,0-2.649-1.087A20.879,20.879,0,0,0,61.709,15.7a13.088,13.088,0,0,0,1.1-4.472A2.748,2.748,0,0,0,62.161,9.3a2.434,2.434,0,0,0-1.879-.7H48.01l.034,1.811,9.748-.034a1.269,1.269,0,0,1,.872,1.189,7.916,7.916,0,0,1-.77,3.272,25.943,25.943,0,0,1-1.755,3.928,21.12,21.12,0,0,1-3.974,5.106,20.411,20.411,0,0,1-4.925,3.464v.577a19.05,19.05,0,0,0,6.442-2.5,20.552,20.552,0,0,0,5.5-4.846,7.134,7.134,0,0,1,1.54,2.14,14.433,14.433,0,0,1,.894,1.913c.2.623.419,1.279.634,1.959.351.826.781,1.245,1.279,1.245a1.8,1.8,0,0,0,1.426-.657,2.59,2.59,0,0,0,.543-1.7,3.541,3.541,0,0,0-.894-2.276Z" transform="translate(6.242 1.136)" fill="#fff"/>
        <path id="Path_371" data-name="Path 371" d="M46.144,29.632v-3l.713-.362a19.308,19.308,0,0,0,4.619-3.249,19.892,19.892,0,0,0,3.713-4.778,24.03,24.03,0,0,0,1.664-3.736l.091-.272a6.159,6.159,0,0,0,.589-2.389l-10.6.045L46.857,7.42H60.4a3.582,3.582,0,0,1,2.774,1.109,4.085,4.085,0,0,1,1.008,2.853,14.18,14.18,0,0,1-1.2,4.981,25.979,25.979,0,0,1-1.37,3.023,11.988,11.988,0,0,1,1.313.668,9.873,9.873,0,0,1,2.808,2.411,4.936,4.936,0,0,1,1.177,3.125,3.945,3.945,0,0,1-.86,2.581,3,3,0,0,1-2.366,1.1c-.713,0-1.721-.351-2.434-2.027l-.113-.328c-.192-.6-.374-1.177-.566-1.732a14.171,14.171,0,0,0-.8-1.687c-.17-.317-.328-.589-.464-.8a21.841,21.841,0,0,1-4.868,4,20.71,20.71,0,0,1-6.849,2.66l-1.472.272Zm16.133-6.895a13.953,13.953,0,0,1,.679,1.528c.2.611.4,1.189.589,1.8l.068.2a1.084,1.084,0,0,0,.249.385,1.013,1.013,0,0,0,.34-.26,1.156,1.156,0,0,0,.226-.815,2.245,2.245,0,0,0-.589-1.415l-.023-.034a6.759,6.759,0,0,0-1.54-1.415ZM59.492,10.08a2.744,2.744,0,0,1,.577,1.608,8.309,8.309,0,0,1-.747,3.476l-.1.283a28.424,28.424,0,0,1-1.845,4.144,21.575,21.575,0,0,1-2.706,3.849,19.319,19.319,0,0,0,3.43-3.227l.589-.86a19.025,19.025,0,0,0,2.015-4,11.913,11.913,0,0,0,1.008-3.974,1.377,1.377,0,0,0-.294-1.008,1.315,1.315,0,0,0-.974-.306H59.5Z" transform="translate(6.092 0.98)" fill="#231f20"/>
        <path id="Path_372" data-name="Path 372" d="M95.765,4.891,68.39,0l4.325,38.209,5.106-17.74L90.059,16.54,78.772,12.906l.464-4.3Z" transform="translate(9.036)"/>
        <path id="Path_373" data-name="Path 373" d="M100.639,9.249,87.62,0l5.672,38.594L96.835,16.8l3.781,5.57,3.815-5.581,3.532,21.85L113.659.023Z" transform="translate(11.577)"/>
        <path id="Path_374" data-name="Path 374" d="M89.308,4.723,70.13,1.87,73.1,30.705l3.091-11.933,7.744-2.479-7.257-2.355.77-7.189Z" transform="translate(9.266 0.247)" fill="#ed1c24"/>
        <path id="Path_375" data-name="Path 375" d="M73.34,30.8l-.43-.034-3-29.141.283.045,19.19,2.853v.464L77.688,7l-.736,6.827,7.778,2.513-8.321,2.672L73.34,30.816ZM70.408,2.173l2.808,27.318,2.819-10.868,7.166-2.3-6.736-2.174.8-7.563L87.854,4.777,70.4,2.173Z" transform="translate(9.237 0.215)" fill="#ed1c24"/>
        <path id="Path_376" data-name="Path 376" d="M100.4,10.845,89.41,2.75l3.657,28.235,2.457-19.269,4.857,7.166,4.9-7.166,2.445,19.269L111.4,2.75Z" transform="translate(11.813 0.363)" fill="#ed1c24"/>
        <path id="Path_377" data-name="Path 377" d="M107.977,31.077h-.442L105.17,12.386l-4.755,6.951-4.71-6.951L93.316,31.077h-.442L89.15,2.31l11.287,8.31,11.276-8.31ZM89.727,3.306l3.362,26,2.321-18.148,5,7.381,5.049-7.381,2.3,18.137,3.374-26-10.71,7.88-10.71-7.88Z" transform="translate(11.779 0.305)" fill="#ed1c24"/>
        <path id="Path_378" data-name="Path 378" d="M40.618,11.533a4.411,4.411,0,1,1-8.808,0,4.411,4.411,0,1,1,8.808,0Z" transform="translate(4.203 0.909)" fill="#ed1c24"/>
        <path id="Path_379" data-name="Path 379" d="M36.295,17.008A5.251,5.251,0,0,1,31.2,11.619a5.1,5.1,0,1,1,10.189,0A5.251,5.251,0,0,1,36.295,17.008Zm0-9.317a3.831,3.831,0,0,0-3.713,3.928,3.719,3.719,0,1,0,7.427,0A3.831,3.831,0,0,0,36.295,7.69Z" transform="translate(4.122 0.823)" fill="#231f20"/>
        <path id="Path_380" data-name="Path 380" d="M50.066,10.793c-1.109,4.291-2.819,10.676-6.385,13.257-4.189,3.045-8.265,2.9-11.321,3.113V22.782h0c8.842-.26,11.5-1.947,17.2-12.012l.509.023Z" transform="translate(4.276 1.423)" fill="#fff"/>
        <path id="Path_381" data-name="Path 381" d="M64.475,12.955c-.385.362-1.483-.442-2.445-1.8S60.58,8.4,60.976,8.03c.374-.362,1.472.442,2.445,1.8S64.86,12.581,64.475,12.955Z" transform="translate(8.038 1.05)" fill="#fff"/>
        <path id="Path_382" data-name="Path 382" d="M66.774,12.955c-.385.362-1.472-.442-2.445-1.8S62.891,8.4,63.276,8.03s1.483.442,2.445,1.8S67.159,12.581,66.774,12.955Z" transform="translate(8.343 1.05)" fill="#fff"/>
        <path id="Path_383" data-name="Path 383" d="M17.922,8.969a4.008,4.008,0,0,0-2.457-.589H1.11v1.9l12.318.045a1.362,1.362,0,0,1,1.121,1.562,14.792,14.792,0,0,1-.577,2.706,19.624,19.624,0,0,1-1.993,4.891A19.172,19.172,0,0,1,3.17,26.947v.419q6.844-1.1,10.472-4.845a17.145,17.145,0,0,0,3.476-5.242,15.785,15.785,0,0,0,1.438-6.4A2.41,2.41,0,0,0,17.9,8.957Z" transform="translate(0.147 1.107)" fill="#fff"/>
        <path id="Path_384" data-name="Path 384" d="M34.363,19.951a11.74,11.74,0,0,1-3.238,2.977A13.839,13.839,0,0,1,24.2,25a2.11,2.11,0,0,1-1.438-.328c-.238-.192-.34-.679-.34-1.483V7.6l-3.555.034s-.034,1.721-.034,2.536V24.82a3.215,3.215,0,0,0,1.064,2.627,3.509,3.509,0,0,0,2.321.781,13.047,13.047,0,0,0,9.8-3.883,15.557,15.557,0,0,0,2.9-4.4h-.543Z" transform="translate(2.488 1.004)" fill="#fff"/>
        <path id="Path_385" data-name="Path 385" d="M64.641,23.178A8.777,8.777,0,0,0,62.2,21.083,8.979,8.979,0,0,0,59.546,20a20.763,20.763,0,0,0,2.162-4.268,13.088,13.088,0,0,0,1.1-4.472,2.729,2.729,0,0,0-.645-1.925,2.394,2.394,0,0,0-1.879-.7H48.01l.034,1.811,9.748-.034a1.269,1.269,0,0,1,.872,1.189,7.873,7.873,0,0,1-.77,3.261,26.082,26.082,0,0,1-1.755,3.94A21.12,21.12,0,0,1,52.165,23.9a20.411,20.411,0,0,1-4.925,3.464v.577a19.288,19.288,0,0,0,6.442-2.5,20.552,20.552,0,0,0,5.5-4.845,7.134,7.134,0,0,1,1.54,2.14,14.433,14.433,0,0,1,.894,1.913c.2.623.419,1.279.634,1.959.351.826.781,1.245,1.279,1.245a1.8,1.8,0,0,0,1.426-.657,2.59,2.59,0,0,0,.543-1.7,3.564,3.564,0,0,0-.894-2.276Z" transform="translate(6.242 1.14)" fill="#fff"/>
      </g>
    </g>
    <path id="Path_1096" data-name="Path 1096" d="M-36.575-1.742A12.223,12.223,0,0,0-36.723-3.9a1.984,1.984,0,0,0-.507-1.115,1.4,1.4,0,0,0-.984-.329,2.372,2.372,0,0,0-1.1.267,3.682,3.682,0,0,0-1.045.86A12.271,12.271,0,0,0-41.5-2.642L-42.815-3.4q.609-.91,1.066-1.681t.835-1.516q.377-.745.691-1.528t.613-1.708l1.586.259Q-38.39-8.49-38.8-7.569t-.893,1.818l-.3-.187A4.48,4.48,0,0,1-38.9-6.386a4.512,4.512,0,0,1,1.157-.154,2.518,2.518,0,0,1,1.606.48,2.789,2.789,0,0,1,.886,1.538,11.3,11.3,0,0,1,.278,2.78ZM-36.635.749a6.115,6.115,0,0,1-2.9-.572,1.754,1.754,0,0,1-1.047-1.591,2.254,2.254,0,0,1,.526-1.392,5.429,5.429,0,0,1,1.526-1.278A13.136,13.136,0,0,1-36.11-5.178a24.741,24.741,0,0,1,3.222-.858l.231,1.313a24.309,24.309,0,0,0-2.616.676,14.654,14.654,0,0,0-1.994.793,5.132,5.132,0,0,0-1.277.846,1.217,1.217,0,0,0-.445.845q0,.476.613.734a4.706,4.706,0,0,0,1.756.257,15.4,15.4,0,0,0,1.632-.1q.91-.1,2.01-.3l.2,1.342q-.617.108-1.308.192T-35.437.7Q-36.1.749-36.635.749Zm-6.122-8.092V-8.618h9.6v1.276Zm12.646,2.258-.62-1.311q.952-.512,1.76-1.024a18.821,18.821,0,0,0,1.54-1.086q.732-.574,1.448-1.25h2.015q.72.676,1.45,1.25A18.55,18.55,0,0,0-20.98-7.42q.808.512,1.76,1.024l-.62,1.311a22.242,22.242,0,0,1-2.746-1.658,20.074,20.074,0,0,1-2.39-1.994,20.074,20.074,0,0,1-2.39,1.994A22.242,22.242,0,0,1-30.112-5.084ZM-25.84,1.2l-.816-1.231A17.808,17.808,0,0,0-23.748-1.8a12.656,12.656,0,0,0,2.084-1.944l1.367.624a14.275,14.275,0,0,1-1.528,1.614A16.338,16.338,0,0,1-23.682-.054,18.856,18.856,0,0,1-25.84,1.2ZM-29.656-3.12V-4.464h9.36V-3.12Zm1.52-2.32v-1.3h6.32v1.3ZM-15.534-.6a7.448,7.448,0,0,0,1.918-.333,3.741,3.741,0,0,0,1.347-.72,1.293,1.293,0,0,0,.5-.973v-.276l.559.17a1.551,1.551,0,0,1-.356.393,2.333,2.333,0,0,1-.515.308,3.312,3.312,0,0,1-.631.2,3.2,3.2,0,0,1-.691.075A2.972,2.972,0,0,1-14.8-2.065a2.23,2.23,0,0,1-.917-.867,2.527,2.527,0,0,1-.326-1.3,2.421,2.421,0,0,1,.346-1.309,2.358,2.358,0,0,1,.97-.867,3.181,3.181,0,0,1,1.442-.312,2.616,2.616,0,0,1,1.04.193,3.824,3.824,0,0,1,.934.6l-.8.27V-9.807h1.618v5.485l-.118-.656a2.522,2.522,0,0,1,.336.759,3.662,3.662,0,0,1,.1.9,3.7,3.7,0,0,1-.605,2.115A4.031,4.031,0,0,1-12.527.2a7.694,7.694,0,0,1-2.759.6Zm2.377-2.418a1.463,1.463,0,0,0,.517-.086,1.18,1.18,0,0,0,.4-.245,1.052,1.052,0,0,0,.259-.386,1.34,1.34,0,0,0,.09-.5,1.178,1.178,0,0,0-.344-.892,1.281,1.281,0,0,0-.926-.33,1.284,1.284,0,0,0-.916.33,1.166,1.166,0,0,0-.351.892,1.162,1.162,0,0,0,.349.88A1.28,1.28,0,0,0-13.157-3.023ZM-17.814-7.19V-8.471H-7.178V-7.19Zm20.342,8.5Q1.724.724,1.05.253T-.235-.617q-.61-.4-1.222-.788t-1.3-.812q-.716-.444-1.154-.734a4.6,4.6,0,0,1-.668-.516,1.247,1.247,0,0,1-.312-.452,1.525,1.525,0,0,1-.082-.522,1.545,1.545,0,0,1,.09-.552,1.322,1.322,0,0,1,.33-.468,4.35,4.35,0,0,1,.686-.514q.446-.282,1.158-.686t1.542-.89q.826-.49,1.694-1.042T2.2-9.712l.916,1.3q-.488.336-1.056.692t-1.142.7q-.574.346-1.106.65t-.954.54q-.422.236-.678.384-.524.284-.81.462a2.14,2.14,0,0,0-.4.294.345.345,0,0,0-.11.236.378.378,0,0,0,.076.228,1.252,1.252,0,0,0,.33.262q.254.158.786.482.28.152.74.426t1.04.63q.58.356,1.208.76T2.3-.834q.63.426,1.186.838Zm-.444-4.94q-.28-.62-.6-1.176T.752-5.948L1.864-6.56q.412.588.736,1.16t.616,1.212ZM3.956-4.3q-.268-.628-.578-1.192t-.7-1.156l1.1-.572q.4.6.718,1.174a12.057,12.057,0,0,1,.586,1.23Zm6.788.976v-3.86h2.681V-7.82h-2.8V-9.1h2.8V-9.92h1.6V-9.1H18.1V-7.82H15.028v.636H17.84v3.86H12.06V-4.484h4.425V-6.1H15.74v1.616h-1.1V-6.1H13.9v1.616H12.8V-6.1H12.06v2.776ZM6.868-.16,6.736-1.48q.7-.128,1.47-.3T9.752-2.16L9.936-.84q-.8.216-1.574.384T6.868-.16ZM11.08.9,9.928.124a9.567,9.567,0,0,0,.558-1.25,13.233,13.233,0,0,0,.454-1.522l1.24.4a13.316,13.316,0,0,1-.464,1.728A8.38,8.38,0,0,1,11.08.9ZM9.1,1.136v-4.36h-.68v-1.14H9.1V-5.7h-.68v-1.14H9.1V-8.12h-.68v7h-1.2v-7H6.84V-9.44h3.884V-8.12h-.376V1.136ZM14.32,1.08q-.752,0-1.19-.044a1.192,1.192,0,0,1-.64-.211A.8.8,0,0,1,12.236.3a7.22,7.22,0,0,1-.052-.984v-2.04h1.439V-.84q0,.254.013.4a.306.306,0,0,0,.077.2.349.349,0,0,0,.209.071q.146.012.416.012a4.733,4.733,0,0,0,.521-.022.365.365,0,0,0,.267-.135.773.773,0,0,0,.107-.374q.024-.261.032-.733l1.359.248a11.435,11.435,0,0,1-.1,1.25,1.17,1.17,0,0,1-.294.674,1.147,1.147,0,0,1-.67.274A10.191,10.191,0,0,1,14.32,1.08Zm.892-2.352q-.4-.372-.852-.712t-.944-.644l.74-.967q.5.3.968.63t.88.69Zm1.912,2.1Q16.88.06,16.574-.724t-.67-1.52L17.14-2.76q.344.736.642,1.508t.542,1.54Zm10.644.36Q26.964.616,26.29.155t-1.284-.85q-.61-.39-1.222-.766t-1.3-.8q-.716-.432-1.154-.72a4.842,4.842,0,0,1-.668-.508,1.212,1.212,0,0,1-.312-.44,1.476,1.476,0,0,1-.082-.516,1.492,1.492,0,0,1,.09-.538,1.242,1.242,0,0,1,.33-.456,4.769,4.769,0,0,1,.686-.5q.446-.28,1.158-.672t1.542-.876q.826-.48,1.694-1.016T27.44-9.592l.916,1.3q-.488.324-1.056.67t-1.142.68q-.574.334-1.106.632l-.954.532q-.422.234-.678.37-.524.284-.81.452a1.975,1.975,0,0,0-.4.282.338.338,0,0,0-.11.234.353.353,0,0,0,.076.222,1.277,1.277,0,0,0,.33.25q.254.152.786.464.28.152.74.418t1.04.61q.58.344,1.208.736t1.258.808q.63.416,1.186.816Zm8.924-3.868-.24-6.084h1.992L38.2-2.676ZM36.524,0V-1.716h1.848V0Z" transform="translate(1389.492 624.615)"/>
    <g id="Mask_Group_2" data-name="Mask Group 2" transform="translate(0 -5230)" clip-path="url(#clip-path)">
      <g id="レイヤー_3-2" data-name="レイヤー 3" transform="translate(1426.179 5803.98)">
        <g id="Group_30" data-name="Group 30" transform="translate(0 4)">
          <path id="Path_390" data-name="Path 390" d="M29.511,111.692H69.854s-.346-4.975-.693-7.449l-1.318-7.584-2.233-7.93L64,83.148l-2.916-6.178-2.406-6.544L57.42,65.931l-1.492-2.666-2.29-1.694L50.366,60.06l-2.348,1.328-5.909,1.761L35.574,66.3l-2.348,2.242-.626,2-2.011,4.668-.568,3.513-.289,6.419L29.79,94.9l-.51,7.882.231,8.9Z" transform="translate(-1.098 -2.205)" fill="#e4a025"/>
          <path id="Path_391" data-name="Path 391" d="M45.172,74.1s2.878-2.724,5.717-.635l.433,4.321.3,8.084.395,5.957.346,2.454.818,4.639,1.03,12.771h-9.5l.472-3.359.25-5.187-.346-6.275-.212-1.136-.039-2.627.51-4.687L45.3,81.977l.269-4L45.172,74.1Z" transform="translate(-1.678 -2.679)" fill="#fff"/>
          <path id="Path_392" data-name="Path 392" d="M65.494.787a8.393,8.393,0,0,1,1.569,2.521c.616,2.367,2.887,3.474,4.177,5.514a5.2,5.2,0,0,1,.587,2.435c-.087.8-.154,1.559-.269,2.339.154.144.029.308-.019.452a8.889,8.889,0,0,1-1.982,1.646,7.8,7.8,0,0,0-2.849,3.859,10.787,10.787,0,0,1-.443,1.617,5.9,5.9,0,0,1-.269,1.78c.067.577-.52.876-.712,1.347-.953,2.29-3.927,2.868-4.052,5.582-.029.731-.106,1.415-.087,2.136-.25.664-.115,1.5-.722,2.021a25.032,25.032,0,0,1-2.165,2.348c-1.068,1.107-2.185,2.29-3.32,3.253a9.088,9.088,0,0,1-1.184,1.174,1.678,1.678,0,0,1,.327.962c-.067.221.115.51-.115.587a.885.885,0,0,1-.654.212c-.039-.1-.115-.106-.2-.106-.038.067-.1.144-.192.106-.279-.058-.375-.366-.568-.568-.106.115-.279.2-.241.346.549.289.7.962.934,1.492.529,1.511-.395,2.8-.693,4.148a1.707,1.707,0,0,0,.135,1.713,9.091,9.091,0,0,0,2.175,1.713,7.3,7.3,0,0,1,1.752,1.453c.125.346.433.606.51.943a2.541,2.541,0,0,1,.327,1.107,5.152,5.152,0,0,1,.019,2.858c-.106.606-.606.943-1.068,1.29-.106,1.213-.192,2.512.654,3.416a1.959,1.959,0,0,0,.674.491c.818-.077,1.241-1,1.771-1.569.115-.067.154.221.3.1.1.164-.019.327.1.452.019.048-.048.1,0,.144-.067.3-.029.664-.308.914-.01.164-.192.289-.308.385a3.518,3.518,0,0,1-1.261.51c-.173.164-.683.077-.462.51a18.02,18.02,0,0,0,.423,2.146c.366.731.558,1.53.885,2.271.876,2.05,1.646,4.148,2.531,6.2,1.3,3.051,2.887,6.005,3.744,9.248.337,1.02.5,2.156.885,3.166.712,2.589,1.578,5.11,2.05,7.8a21.375,21.375,0,0,1,.51,2.6c.135,1.8.529,3.522.741,5.312l.154.635c-.038.635.26,1.434-.173,1.963-.058-.019-.106-.019-.135.019-.115-.2-.279.135-.414-.038-.154.019-.241-.125-.308-.25a35.142,35.142,0,0,0-.52-4.437,68.918,68.918,0,0,0-1.357-7.709c-.934-3.763-2.05-7.439-3.185-11.116C61.6,78.2,59.576,74.361,58.074,70.29c-.626-1.367-1.03-2.839-1.655-4.234-.26-.9-.308-1.8-.51-2.733a8.035,8.035,0,0,1-1.078-2.05c-.375-.077-.4-.491-.712-.722a9.93,9.93,0,0,0-2.146-1.405,8.452,8.452,0,0,0-1.925-.818.617.617,0,0,1-.279.481c-1.251,0-2.185.837-3.33,1.087-.327.135-.674.183-.982.327A28.907,28.907,0,0,1,48.4,65.632a29.937,29.937,0,0,1,1.723,4.3v.414c1.309.8,2.878,1.29,3.8,2.82a20.664,20.664,0,0,1,2.146,4.773c.375,1.617.982,3.06,1.222,4.745a12.517,12.517,0,0,1,.443,2.088c.318,1.636.539,3.272.722,4.966.173,1.059.077,2.2.269,3.272a52.882,52.882,0,0,0,.982,5.563,7.886,7.886,0,0,1,.221,1.232c.135.067.058.241.135.327a16.387,16.387,0,0,1,.539,2.512,20.9,20.9,0,0,1,.4,2.425,17.912,17.912,0,0,1,.106,3.994c-.067.2-.221.308-.308.529-.067,0-.135,0-.164-.077l-.125.115-.048-.087a.494.494,0,0,1,.01-.1v-.019c-.115.077-.106.183-.241.125-.087-.857.019-1.684-.067-2.55a21.559,21.559,0,0,0-.212-2.387,15.506,15.506,0,0,1-.289-1.53c-.106-.221-.048-.491-.125-.712-.2-.549-.2-1.174-.395-1.723-.115-.51-.221-1.011-.366-1.521-.212-.52-.173-1.145-.337-1.694-.366-1.328-.366-2.724-.683-4.071a12.213,12.213,0,0,1-.125-1.424,39.9,39.9,0,0,0-.4-3.984A48.117,48.117,0,0,0,56.073,81.7c-.25-1.742-.982-3.291-1.376-4.976-.808-1.569-1.222-3.638-2.955-4.456-.481-.25-.962-.549-1.453-.77-.1.058,0,.154,0,.221.2,2.2.289,4.129.318,6.342.423,3.291.039,6.419.346,9.71.077,1.27.327,2.55.414,3.763.029.183.173.395.125.635.154.683.327,1.184.423,1.877.125.25.087.51.212.76,0,.048,0,.1.048.115a10.094,10.094,0,0,0,1.27-1.29c.173-.279.375-.5.568-.76v-.038c.173.029.2-.183.375-.077a.686.686,0,0,1,.173.654c-.443,1.087-1.521,1.79-2.185,2.714a11.141,11.141,0,0,1,.135,1.27l.038.038c.173.943,0,1.973.241,2.878A29.36,29.36,0,0,0,55.3,98.4c.2-.144.289-.414.568-.385a3.044,3.044,0,0,1-.087.876,14.645,14.645,0,0,1-2.868,2.464,7.22,7.22,0,0,1,.038.789,4.36,4.36,0,0,1,.106.876c.106,1.415.067,3.051.192,4.639.01.144-.164.125-.231.2-.029-.115-.1,0-.154,0-.048-.019.038-.164-.048-.164-.106.058.019.116-.019.183-.135.029-.192-.067-.279-.164a.574.574,0,0,1,0-.337,3.761,3.761,0,0,1-.067-.731c-.087-.164.019-.51-.067-.693.019-.626.029-1.222.058-1.838-.077-.452-.029-.962-.106-1.424,0-.289-.077-.654-.077-.924-.154-.115-.337.125-.52.164a5.894,5.894,0,0,1-.934.308c.019-.019.039-.038.019-.058-.125-.087-.3.019-.433-.019a2.235,2.235,0,0,0-.221-.135.4.4,0,0,1-.346-.048v-.038c-.106-.077-.25.067-.26-.1.2-.192.462,0,.664-.221a8.3,8.3,0,0,0,1.857-.866c-.019-.818-.154-1.463-.154-2.252a7.326,7.326,0,0,0-.2-1.838c-.058.1-.173.067-.192.173a14.378,14.378,0,0,0-1.511,1.386,13.155,13.155,0,0,1-1.809,1.29c-.231.087-.2-.3-.414-.1-.048,0-.125,0-.125-.077.038-.144-.241-.058-.241-.231a48.76,48.76,0,0,0,3.869-3.253l.269-.308c-.221-1.338-.722-2.579-.837-3.975-.154-.067.019-.192-.077-.308-.135-.4-.087-.818-.2-1.241.029-.366-.077-.635-.077-1-.019-.529-.192-1.1-.154-1.569-.183-.308.087-.654-.077-.972a6.26,6.26,0,0,0-.038-1.107,60.207,60.207,0,0,0-.289-7.584,36.953,36.953,0,0,0-.375-5.4c-.048-.462-.077-.972-.135-1.4a4.779,4.779,0,0,0-2.339-.423,4.243,4.243,0,0,0-2.425,1.01l-.038.038a39.839,39.839,0,0,1,.192,5.794c-.539,3.84.019,7.718-.491,11.52a22.906,22.906,0,0,0-.173,3.975c.038,1.184.212,2.329.269,3.561a52.385,52.385,0,0,1,.144,6.948,25.239,25.239,0,0,1-.337,2.733c-.087.2-.25-.019-.346.106-.192-.067-.087-.308-.173-.423.087-.8.173-1.646.241-2.425-.038-.366.192-.77.048-1.164.173-.346-.029-.674.058-1-.077-.568-.077-1.145-.154-1.732-.077-1.164-.048-2.252-.173-3.416-.192-.164.029-.481-.106-.7,0-.337-.029-.664-.048-1-.241-.135.087-.308-.058-.491a4.075,4.075,0,0,1-.077-.76.7.7,0,0,1-.1-.087c.154-.385,0-.857.058-1.261l-.058.077a2.357,2.357,0,0,1,.1-.693c-.01-.308.058-.635.038-.9-.038-.019-.048.019-.067.029a1.318,1.318,0,0,0,.125-.472,7.4,7.4,0,0,0,.1-1.838c.115-.221.039-.423.087-.693.058-.164,0-.346.058-.549a6.18,6.18,0,0,1,.067-.934c-.212-.106.067-.375-.067-.52.115-.125-.077-.366,0-.529.01.048.038.019.1,0-.221-.366.087-.76-.1-1.087.125-.318-.029-.683.038-.982-.192-2.81.433-5.563.192-8.546-.077-.626-.125-1.261-.192-1.848a10.565,10.565,0,0,0-1.713,2.752c-.423.962-.693,2-1.116,2.983-.375,1.521-.77,3.07-1.164,4.591-.192,1.434-.635,2.752-.722,4.206-.375,2.165-.77,4.34-1.011,6.563-.346,2.348-.481,4.4-.693,6.785a2.892,2.892,0,0,0-.029.587c-.2,1.53-.173,3.128-.366,4.658-.173.192-.087.616-.433.693-.154.125-.327-.019-.491-.038-.077-.087-.154-.125-.154-.241l.1-.048c-.1-.337.106-.606-.019-.953.038-1.107.106-2.31.144-3.426.1.048.067-.115.1-.164a1.344,1.344,0,0,1,0-.78c-.029-.241.173-.452.038-.664a10.566,10.566,0,0,1,.154-1.578c0-.029-.019.058.01.058.289-1.963.385-4.08.693-6.053.115-1.174.414-2.339.529-3.561-.683-.106-1.424-.067-2.117-.2-1.01-.164-2.194-.135-3.214-.289a1.026,1.026,0,0,1-.722-.789,4.025,4.025,0,0,1,.019-1.126c.135-.26-.019-.78.395-.837a14.075,14.075,0,0,1,4.562-.414,4.807,4.807,0,0,0,1.617.019c.481-1.463.51-3.1,1.03-4.533a.24.24,0,0,0,.106-.25h-.019a13.756,13.756,0,0,1,.77-2.618.752.752,0,0,1,.173-.616c-.058-.327.25-.539.241-.9.039-.308.26-.481.26-.77.221-.183.173-.529.366-.76.067-.067,0-.231.135-.269.038-.231.231-.414.289-.645.327-.25.327-.7.558-1.03a13.627,13.627,0,0,1,1.53-1.8c-.192-.144-.192-.433-.308-.645a10.412,10.412,0,0,0-.606-1.607c.058-.192-.154-.25-.2-.395-.221-.308-.125-.76-.433-1.02.067-.192-.231-.308-.125-.472a3.1,3.1,0,0,0-.568-1.174,26.7,26.7,0,0,0-1.6-3.349l-.019-.25a8.211,8.211,0,0,0-1.723.857c-.115.144-.308.144-.462.241a17.393,17.393,0,0,0-3.6,2.695c-.2.154-.375.558-.664.443a1.316,1.316,0,0,0,0,.549c-.154,2.233-1.819,3.811-2.406,5.851a8.493,8.493,0,0,0-.616,2.416c-.577,2.839-.356,6-.414,8.979a25.038,25.038,0,0,0,0,3.291,77.03,77.03,0,0,1-.289,8.055,62.568,62.568,0,0,0-.318,9.787c-.038.212-.038.51-.231.577-.038-.106-.154-.038-.212-.1a.252.252,0,0,0-.087.183h-.067c0-.125-.144-.144-.231-.183-.048.019-.077.144-.135.067l-.077-.067v.019a7.435,7.435,0,0,1-.135-1.742,31.321,31.321,0,0,1,.125-4.87c.048-.943.106-1.857.2-2.82-.058-.327.1-.712.019-1.049a1.017,1.017,0,0,1-.395-.241,17.582,17.582,0,0,0-3.821-4.244,6.118,6.118,0,0,1-2.04-4.013,3.159,3.159,0,0,1,.135-2,15.777,15.777,0,0,1,2.974-3.821,19.3,19.3,0,0,0,1.424-1.53c.616-.568,1.136-1.107,1.761-1.655.077-.327.462-.443.443-.8a16.574,16.574,0,0,1,1.636-6.458,10.374,10.374,0,0,1,.606-1.347A5.944,5.944,0,0,0,32,66.45a3.528,3.528,0,0,0-.606-1.357,12.177,12.177,0,0,0-3.744-2.849,38.416,38.416,0,0,0-6.188-2.55c-1.357-.654-3.1-1.145-3.715-2.8-.25-1.222.914-1.983,1.636-2.82,1.309-1.145,2.916-1.607,4.263-2.6a4.329,4.329,0,0,1,.924-.549,12.049,12.049,0,0,1,1.6-.837c.192-.164.5-.106.664-.308a10.536,10.536,0,0,0,1.723-.914,5.506,5.506,0,0,0-1.357-.808,5.683,5.683,0,0,0-2.579-.26c-.722-.029-1.415.241-2.146.241l-.048.058a5.414,5.414,0,0,1-2.685-.279,2.441,2.441,0,0,1-1.463-2.2c-.106-.962.25-2.069-.395-2.82-.616-1.116-1.752-1.27-2.55-2.146a3.021,3.021,0,0,1-.318-2.271,2.561,2.561,0,0,1,.76-1.155,3.706,3.706,0,0,0-.452-.712c-.154-.635-.577-1.338-.2-2.021.375-.414,1.03-.818.885-1.472A8.678,8.678,0,0,0,14.5,31.131a4.741,4.741,0,0,1-1.068-1.222,3.245,3.245,0,0,1-.346-1.877c.5-.934,1.578-.934,2.473-1.078a9.143,9.143,0,0,0,1.617-.183,6.629,6.629,0,0,0,3.907-2.983c.808-1.415,1.646-2.849,2.425-4.273a3.043,3.043,0,0,0,.423-.693.611.611,0,0,0-.414,0c-1.27.029-2.464.144-3.744.144-2.223-.115-4.591.1-6.881-.1-.135-.125-.356-.019-.481-.183a1.52,1.52,0,0,1-1.222-.982.78.78,0,0,1,.067-.78v-.067A2.566,2.566,0,0,1,12,16.329c.067.135.135-.029.241-.019.135-.192.462-.125.654-.164a21.283,21.283,0,0,1,2.117-.375,5.086,5.086,0,0,0,1.049-.144,1.609,1.609,0,0,0,.645-.077c.587-.077,1.222-.183,1.78-.231a52.952,52.952,0,0,1,6.13-.635c.1-.067-.029-.125-.048-.192a17.261,17.261,0,0,1,2.108-3.474,11.979,11.979,0,0,1,4.764-3.975c.154.067.26-.1.395-.115a5.183,5.183,0,0,1,2.685-.038A7,7,0,0,0,36.565,7c.837-.038,1.251-1,1.867-1.511a2.292,2.292,0,0,1,.472-.452,5.408,5.408,0,0,1,2.733-2.146,9.448,9.448,0,0,1,4.523-.289,5.486,5.486,0,0,0,3.493.539c1.809-.472,3.214-2.088,5.206-1.944,1.983-.289,3.628,1.963,5.514.616.337-.125.491-.491.818-.616.241-.106.375-.385.587-.5a2.121,2.121,0,0,1,.982-.626A3.569,3.569,0,0,1,64.388.007a2.893,2.893,0,0,1,1.1.731Z" transform="translate(-0.414 0.057)"/>
          <path id="Path_393" data-name="Path 393" d="M65.789,1.833c.192.231.221.577.481.751a12.962,12.962,0,0,0,1.867,3.58c.953,1.136,2.185,1.983,2.878,3.253a6.068,6.068,0,0,1,.106,2.82c-.029.529-.241.953-.279,1.492l.077.087c-.192.087-.289.337-.52.462a.837.837,0,0,1-.472.346,12.1,12.1,0,0,0-2.6,2.6c-.962,1-.991,2.454-1.4,3.734a7.965,7.965,0,0,1-.462,2.185c-.789.857-1.155,1.925-2.088,2.618-.327.106-.4.568-.76.616a.242.242,0,0,1-.2.154H62.4a5.226,5.226,0,0,0-1.463,2.05c-.4.356-.3,1.011-.366,1.559-.154.674.115,1.472-.173,2.088-.1,1.309-1.241,2.127-2.031,3.118-.77.76-1.444,1.54-2.233,2.233-.818.837-1.636,1.521-2.387,2.435a3.58,3.58,0,0,1-.5-.76,5.282,5.282,0,0,0,1.02-1.241c-.038-.164-.077-.385-.279-.433-.433-.038-.568.549-.914.76-.135.058-.212.25-.327.25-.568-.722-.962-1.559-1.617-2.271-.414-.674-.934-1.184-1.376-1.819a24.524,24.524,0,0,0-3.349-3.214A36.19,36.19,0,0,0,42.971,29.1a10.968,10.968,0,0,0-1.463-.741c-.067-.135-.154,0-.25-.058a10.6,10.6,0,0,0-3.416-.9c-.115-.038-.183.019-.308.038-.048-.048-.019-.144,0-.2.087-.067.029-.183.048-.269-.269-.289-.443-.693-.722-1a7.832,7.832,0,0,0-.52-.78c-.327-.529-.683-.962-.982-1.492-1.29-1.578-2.733-3.128-3.936-4.677a12.874,12.874,0,0,0-1.569-1.588c-.038-.1.067-.1.106-.125a2.562,2.562,0,0,1,.828-1.1.59.59,0,0,0-.019-.539c-.038-.164-.221-.038-.289-.164-.366.058-.529.414-.78.674a1.506,1.506,0,0,0-.318.741c-.192-.019-.346-.192-.5-.346a10.469,10.469,0,0,1,2.387-3.349.5.5,0,0,0,.154-.491c-.029-.173-.221-.164-.327-.26-.241-.029-.337.231-.51.337a6.132,6.132,0,0,0-.962,1.164A11.937,11.937,0,0,0,28.314,16.1c-.25-.183-.568-.366-.828-.6a13.992,13.992,0,0,1,4.09-4.745,5.225,5.225,0,0,1,4.215-.7,2.725,2.725,0,0,0,2.262-.087,13.594,13.594,0,0,0,2.714-2.088.717.717,0,0,0,0-.6c-.087-.048-.154-.144-.279-.115-.115.241-.443.2-.462.491a2.585,2.585,0,0,1-.885.664c-.192.164-.414.269-.587.395a2.26,2.26,0,0,1-2.3.712,5.532,5.532,0,0,0-3.676.087,11.015,11.015,0,0,0-4.35,3.513,19.053,19.053,0,0,0-1.251,2.185,5.454,5.454,0,0,1-.606-.346c.087-.2.144-.452.241-.674a34.045,34.045,0,0,1,2.512-3.436,10.4,10.4,0,0,1,3.262-2.618,5.45,5.45,0,0,1,2.5-.3c1.29.366,2.724.683,3.946-.067.9-.943,1.732-1.963,2.589-2.906a6.455,6.455,0,0,1,5.2-1.193,10.975,10.975,0,0,1,1.53.51,5.57,5.57,0,0,0,4-.346c.876-.327,1.617-.982,2.531-1.241,1.434-.51,2.849.1,4.08.674a4.1,4.1,0,0,0,2.714-.087c.106-.115.241-.1.366-.154.183-.164.462-.231.587-.491.7-.385,1.116-1.29,1.934-1.367a1.317,1.317,0,0,1,1.434.712Z" transform="translate(-0.988 0.012)" fill="#009a4e"/>
          <path id="Path_394" data-name="Path 394" d="M47.365,9.8a1.222,1.222,0,0,1-.529,1.309c-.135.289-.837-.038-.587.433,0,.635.087,1.482-.443,1.9a1.965,1.965,0,0,1-2.127.366c-.221-.26-.539-.558-.539-.943.135-.058.038-.192.038-.269a.179.179,0,0,1,.115.087c.106-.029.087-.135.154-.192a.829.829,0,0,0,.722.462,1.25,1.25,0,0,0,.934-.212,1.156,1.156,0,0,0,.289-.982,1.709,1.709,0,0,0-.481-.9,2.144,2.144,0,0,1-.1-.414c0-.106.125-.2.183-.308a.2.2,0,0,0,.212-.1c.346.048.606.433,1,.3L46.451,10a2.44,2.44,0,0,1-.279-.654c.087-.087.019-.164,0-.241a.7.7,0,0,1,.674-.038,1.19,1.19,0,0,1,.529.731Z" transform="translate(-1.619 -0.284)"/>
          <path id="Path_395" data-name="Path 395" d="M43,10.282c.115.472-.241.876-.423,1.251-.125.067-.308.183-.443.038a.9.9,0,0,1-.241-.549c.125-.395.154-1,.645-1.107l.048-.1c.087.241.375.221.414.452Z" transform="translate(-1.572 -0.315)"/>
          <path id="Path_396" data-name="Path 396" d="M9.9,11.059c-.26-.962-1.347-1.27-1.261-2.271,0-.231-.183-.414-.289-.606C8.2,7.989,8.012,8.1,7.819,7.96l-.048.135c-.491.26-.6.914-.837,1.405a6.1,6.1,0,0,1-.4.924c-.115-.221-.366-.25-.52-.414a1.543,1.543,0,0,0-1.925.212,2.5,2.5,0,0,0-.606,1,1.566,1.566,0,0,0-.279.857,2.036,2.036,0,0,0,1.2,1.694,1.411,1.411,0,0,0,1.684-.221c.106-.183.366-.356.366-.558a6.587,6.587,0,0,0,.481-.828c.289-.231.337-.654.491-.991.183-.414.289-.818.472-1.2l.25.3a2.875,2.875,0,0,1,1.1,2.281c-.212.664-.885.9-1.472,1.164.019,0,.019.019.029.029l-.038.164H7.81l-.029.192c.087-.067.077.115.164.038l.048.106a1.262,1.262,0,0,0,.635.173c.664.144,1.2-.558,1.521-1.087.472-.76-.029-1.53-.25-2.262ZM4.817,12.926a.948.948,0,0,1-.626-.568,1.6,1.6,0,0,1,.9-1.578c-.183.395-.635.924-.385,1.453a1.14,1.14,0,0,0,.491.606.4.4,0,0,1-.366.087ZM5.962,11.9c-.106-.067-.125-.106-.144-.26A.214.214,0,0,1,6,11.463a.133.133,0,0,1,.1.144.48.48,0,0,1-.125.3Z" transform="translate(-0.117 -0.245)"/>
          <path id="Path_397" data-name="Path 397" d="M50.567,13.766a.572.572,0,0,1-.038.529,2.1,2.1,0,0,0-.4.674c.52.077.606-.606.962-.876.106-.1.308-.221.327-.385.087.038.164-.144.269-.067.115.154.289.212.366.414a1.23,1.23,0,0,1-.125.693,1.423,1.423,0,0,1,1.049.76,1.483,1.483,0,0,1-.587,1.453,1.842,1.842,0,0,0-.818,1.184c.106.289.587.51.2.857.019.048.087.087.067.164a.539.539,0,0,1-.616.039,1.709,1.709,0,0,1-.587-1.578c.135-.8.808-1.145,1.29-1.742a1.5,1.5,0,0,0-.962.038,9.276,9.276,0,0,1-1.376,1.886.528.528,0,0,0-.327-.029c-.067-.135-.279-.077-.279-.241-.423-.375.241-.606.3-.962a.872.872,0,0,1-.52-.019.717.717,0,0,1-.3-.751,3.138,3.138,0,0,1,.452-.9,6.264,6.264,0,0,1,1.2-1.434c.087.038.154-.077.25-.077l.2.356Z" transform="translate(-1.819 -0.449)"/>
          <path id="Path_398" data-name="Path 398" d="M47.361,13.752a.983.983,0,0,1,.2.77,1.793,1.793,0,0,1-.616.866c-.106-.106-.221.038-.346-.038a.835.835,0,0,1-.25-.375,4.622,4.622,0,0,1,.346-1.068c.173-.058.067-.308.279-.25.173-.3.192.192.395.106Z" transform="translate(-1.74 -0.455)"/>
          <path id="Path_399" data-name="Path 399" d="M70.453,14.663a1.355,1.355,0,0,1,.067.433,2.793,2.793,0,0,1-1.415,1.068c0,.125-.067-.01-.115.077a4.481,4.481,0,0,0-2.339,3.3c-.1.058-.087.221-.221.183-.414-.289-.173-.876-.115-1.3A5.35,5.35,0,0,1,69.183,15.3a3.993,3.993,0,0,0,.635-.385c.221-.164.385-.693.635-.269Z" transform="translate(-2.487 -0.49)"/>
          <path id="Path_400" data-name="Path 400" d="M40.346,14.988l.9.914a3.8,3.8,0,0,1,2.579-.433l.019-.077c.366.385,1.059.51,1.059,1.164.077.346.135.857-.164,1.107-.029.038-.106,0-.135.019-.048-.067-.077-.067-.135-.019l-.019.019c-.443-.289.058-.924-.433-1.2a2.141,2.141,0,0,0-2.031.029c-.019.212.26.221.318.4a.836.836,0,0,1,.25.7c-.1.067-.087.125-.173.2.029.01.029.039.029.067-.51-.029-.9-.433-1.347-.693A6.864,6.864,0,0,0,39.6,19.627c-.115.067-.115.25-.279.241-.067-.115-.269.067-.327-.135-.1-.058-.2-.038-.221-.183-.2-.529.221-.914.366-1.347a7.358,7.358,0,0,1,1.213-1.675,6.111,6.111,0,0,1-.577-.76.6.6,0,0,1-.067-.5c.173-.087.173-.414.385-.308.1.087.183,0,.269.019Z" transform="translate(-1.453 -0.507)"/>
          <path id="Path_401" data-name="Path 401" d="M6.193,15.963c.067.395-.366.558-.346.943-.452,1.376.289,2.714.972,3.917.982,1.078,2.213,1.8,3.118,2.964a2.74,2.74,0,0,1,.4,2.464c-.2.115-.221.366-.346.529v-.058c-.1-.048-.087.067-.115.125-.087-.038-.164-.067-.2.019,0,.115-.106.125-.115.192-.2-.048-.318.144-.472.269.048-.115-.106-.077-.115-.164l-.058.038c-.067-.115.048-.231.077-.337A2.693,2.693,0,0,0,9.234,24.4a24.489,24.489,0,0,0-3.012-2.82A8.44,8.44,0,0,1,4.73,18.051a4.13,4.13,0,0,1,.76-2.367c.25-.366.693-.058.712.289Z" transform="translate(-0.174 -0.529)"/>
          <path id="Path_402" data-name="Path 402" d="M25.466,16.67l.115.125.048-.106a6.359,6.359,0,0,1,1.655.962,3.035,3.035,0,0,1,.722.683c-.587-.1-1.068.01-1.617-.1-.635.058-1.174.019-1.79.038-.192.077-.337,0-.549.058,0-.048-.039-.058-.048-.1-.019,0-.029.019-.058.038l.058.058a6.575,6.575,0,0,1-1.684,0,.663.663,0,0,1-.616.01c-.1.173-.279.048-.414.029-2.81-.048-5.668.115-8.556-.067l-.173-.038c.173-.154.452-.164.693-.26,1.27-.25,2.589-.452,3.888-.577.876,0,1.617-.25,2.512-.3,1.155-.164,2.262-.26,3.32-.414A.334.334,0,0,0,23.3,16.7c.443.019.934-.019,1.415-.038a2.355,2.355,0,0,0,.78,0Z" transform="translate(-0.469 -0.572)" fill="#009a4e"/>
          <path id="Path_403" data-name="Path 403" d="M54.85,17.982c.279.2.154.568.1.837-.077.087-.2.125-.25.25.289.125.4.385.664.6a3.756,3.756,0,0,1-.173,2.387c.019.289.4.289.481.549l-.173.26c.087.067-.115.125-.019.212-.192.115-.395.039-.6.058a1.233,1.233,0,0,1-.616-1.241,10.423,10.423,0,0,0,.327-1.578,1.387,1.387,0,0,0-1.2.674c-.135,0-.356-.019-.423-.183a.787.787,0,0,1-.154-.606c.019-.231.289-.375.346-.635a17.532,17.532,0,0,1,1.193-1.588c.183.038.491-.433.51,0Z" transform="translate(-1.983 -0.614)"/>
          <path id="Path_404" data-name="Path 404" d="M44.016,19.614a4.129,4.129,0,0,1,.173,1.059c.154.212.4.019.539.241.6.183.808.847.972,1.4a2.079,2.079,0,0,1-.375,1.453c-.269.164-.443.549-.789.491a1.275,1.275,0,0,1-.866.106c0-.038.019-.058.019-.106-.048-.087-.1.048-.192,0l.058-.115c-.087-.058-.192.038-.192-.106.029-.144.2-.221.087-.385a1.93,1.93,0,0,0,1.27-1.068c0-.289.058-.626-.212-.77-.664-.019-1.136.549-1.511,1.039a.426.426,0,0,1-.346.115.673.673,0,0,1-.395-.568,3.883,3.883,0,0,0,.279-.568,1.861,1.861,0,0,0,.722-1.723.344.344,0,0,0-.423-.125A3.024,3.024,0,0,0,41.5,21.5a.664.664,0,0,1-.269.25c-.192.038-.241-.106-.346-.231-.106-.2,0-.452-.038-.654.346-.876,1.03-1.9,2.021-1.915.433.106.953.2,1.136.664Z" transform="translate(-1.533 -0.658)"/>
          <path id="Path_405" data-name="Path 405" d="M29.45,19.705l.26.144a65.731,65.731,0,0,1,5.948,7.43l.52.78c-.289.125-.789-.135-.789.395.106.269.154.654.472.76a6.569,6.569,0,0,0,1.222.115c.173.067-.067.212.048.337a3.056,3.056,0,0,0-1.241,2.079,7.293,7.293,0,0,0,.549,4.619,8.284,8.284,0,0,0,1.771,2.55A29.679,29.679,0,0,0,35.7,41.561a3.72,3.72,0,0,0-.616,3.349,6.888,6.888,0,0,0,.5,2.04c-2.069.568-3.975,1.472-5.986,2.223A7.327,7.327,0,0,0,27.7,48a10.194,10.194,0,0,0-4.841-.173c-1.02,0-2.512.568-3.234-.577-.241-.308-.087-.693-.135-1.087a4.374,4.374,0,0,0-1.771-4.215c-.587-.52-1.7-.568-1.732-1.626a1.716,1.716,0,0,1,.683-1.511c.135-.038.279.067.395.164,1.01.346,2.165.818,3.234.375.087-.087.375-.135.279-.356l.173-.2c-.087-.125-.067-.308-.279-.308a4.718,4.718,0,0,1-3.888-.982c-.308-.481-.722-1.126-.375-1.694a1.851,1.851,0,0,0,.962-1.617A7,7,0,0,0,15.4,31.514c-.549-.577-1.29-1.02-1.29-1.934.308-.837,1.29-.731,1.973-.857a8.173,8.173,0,0,0,2.136-.337A9.286,9.286,0,0,0,20.77,27a6.42,6.42,0,0,0,1.241-1.549c.414-.722.76-1.472,1.2-2.185.048-.289.25-.452.395-.722a15.032,15.032,0,0,1,1.53-2.579,1.272,1.272,0,0,1,.462-.385c1.27.106,2.579-.048,3.83.125Z" transform="translate(-0.527 -0.682)" fill="#fff"/>
          <path id="Path_406" data-name="Path 406" d="M28.46,20.821c.3.78-.693.924-1.059,1.4a2.083,2.083,0,0,1-.837.751c-.183-.038-.462-.019-.549-.269a.786.786,0,0,1-.1-.5,6.17,6.17,0,0,1,2.06-1.617c.183-.019.318.221.491.241Z" transform="translate(-0.971 -0.719)"/>
          <path id="Path_407" data-name="Path 407" d="M49.94,21.9a2.771,2.771,0,0,1,.4,2.618,9.508,9.508,0,0,1-3.224,2.637c-.3.1-.577.375-.885.212-.135.058-.279-.048-.395-.115v.038c-.038-.067-.038-.144-.106-.2-.038.058-.087-.019-.115-.048,0-.019.019-.058-.019-.067.231-.144.154-.568.481-.51a19.251,19.251,0,0,0,2.974-2.04.361.361,0,0,1,.154-.2c.154-.346.587-.712.269-1.126-.269-.712-1.01-1.1-1.049-1.9.087-.067.135-.269.26-.327.067-.019.115-.067.192-.048a2.571,2.571,0,0,1,.462.308l.587.76Z" transform="translate(-1.712 -0.728)"/>
          <path id="Path_408" data-name="Path 408" d="M59.428,21.817a2.608,2.608,0,0,1,.577-.751c.279-.115.241.26.395.423a3.192,3.192,0,0,1-.308.943c.144.183.462.346.462.616-.106.164,0,.577-.327.491a.716.716,0,0,1-.654-.183c-.395.2-.029.577-.087.914a2.148,2.148,0,0,1-.847,1.983,2.065,2.065,0,0,1-2.31.087c-.289-.164-.231-.452-.289-.722.1.048.115-.077.154-.125v-.115s.019-.019.029-.019c0-.038-.01-.038-.01-.058a1.231,1.231,0,0,0,1.184.327,1.51,1.51,0,0,0,1.174-1.03c-.067-.327-.385.038-.6-.058-.52-.087-1-.106-1.261-.674-.26-.269-.067-.674-.038-.982a1.257,1.257,0,0,1,1.078-.51,1.43,1.43,0,0,1,.934.414.149.149,0,0,0,.106-.029,3.372,3.372,0,0,0-.52-.529c-.192-.25-.5-.549-.346-.924a.465.465,0,0,1,.443-.327c.077.01.154.164.269.125a3.585,3.585,0,0,0,.78.712Z" transform="translate(-2.105 -0.734)"/>
          <path id="Path_409" data-name="Path 409" d="M62.458,22.767c-.135.1-.019.221-.087.327-.279.327-.452,1.059-.962.885-.173,0-.2-.192-.279-.308a2.924,2.924,0,0,1,.626-1.357.486.486,0,0,0,.327-.144c.1.212.443.337.375.6Z" transform="translate(-2.296 -0.779)"/>
          <path id="Path_410" data-name="Path 410" d="M63.606,23.769c.067.183-.058.385-.067.587a2.049,2.049,0,0,1-.847.693c-.154,0-.269-.087-.4-.077v-.125c-.058-.067-.087.048-.173.048.067-.087-.038-.144-.038-.212-.067-.019-.087-.077-.106-.115l.038-.2c.462-.318.76-.982,1.27-1.126C63.346,23.423,63.587,23.567,63.606,23.769Z" transform="translate(-2.328 -0.819)"/>
          <path id="Path_411" data-name="Path 411" d="M58,23.614a2.8,2.8,0,0,1-.568,0c0-.106.115-.087.173-.144A.543.543,0,0,1,58,23.614Z" transform="translate(-2.157 -0.828)" fill="#aa975f"/>
          <path id="Path_412" data-name="Path 412" d="M29.553,24.147c.231-.212.433,0,.674-.038.231-.106.385-.635.693-.327.087.1.115.221.26.279,0,.308.039.693-.279.866-.154.2-.423.144-.635.241a4.659,4.659,0,0,1,.221.818c.337.106.654-.135.962-.26.26.125.26.452.241.712a.934.934,0,0,1-.972.366c-.106.01-.212-.144-.279,0,.019.308-.173.558-.106.837a4.764,4.764,0,0,1,.982.452c.087.125.395.125.269.327.135.144-.077.231-.077.375a.977.977,0,0,1-.972-.106l-.462-.549c-.192.221-.26.606-.568.674a3.7,3.7,0,0,1-2.483.693.77.77,0,0,0-.346-.164,2.464,2.464,0,0,1-.722-2.2,2.74,2.74,0,0,1,.231-1.145,5.418,5.418,0,0,1,.568-1.164c-.231-.019-.4.2-.587.337a5.491,5.491,0,0,0-1.222,1.357c-.115.1-.154.289-.308.385a.686.686,0,0,1-.289.491c.039.135-.1.135-.183.183-.192.058-.212-.231-.366-.231a.2.2,0,0,1-.019-.241,5.03,5.03,0,0,1,2.165-2.964c.414-.212.847-.375,1.28-.558a2.949,2.949,0,0,1,2.175.491c.077-.038.106.029.154.067Z" transform="translate(-0.89 -0.831)"/>
          <path id="Path_413" data-name="Path 413" d="M28.7,24.865a2.136,2.136,0,0,0,.154,1.655,1.053,1.053,0,0,0,.481.327.953.953,0,0,0-.741.452,2.017,2.017,0,0,1-.135.577A1.338,1.338,0,0,0,27.912,27a1.308,1.308,0,0,0-.452-.115c.433-.038.683-.529.962-.818a1.8,1.8,0,0,0-.038-1.29c.106-.115.231.019.308.067Z" transform="translate(-1.029 -0.876)" fill="#fff"/>
          <path id="Path_414" data-name="Path 414" d="M28.036,25.16c-.077.472-.058,1.145-.549,1.4l-.327-.019a2.04,2.04,0,0,1,.885-1.376Z" transform="translate(-1.018 -0.892)" fill="#df6d27"/>
          <path id="Path_415" data-name="Path 415" d="M52.87,25.694a.628.628,0,0,0-.366-.058.539.539,0,0,1,.366.327c-.212,0-.125.2-.241.327-.067.346-.462.2-.674.366a4.419,4.419,0,0,0-.934.818.541.541,0,0,0,.5.039c.375.414,1.03.78.943,1.434a1.505,1.505,0,0,1-.087.8,2.145,2.145,0,0,1-1.136.674,2.19,2.19,0,0,1-1.857-.231,1.962,1.962,0,0,1-.221-1.857c.674-1.376,1.79-2.666,3.349-2.733l-.048-.048a2.474,2.474,0,0,1,.395.144Z" transform="translate(-1.841 -0.906)"/>
          <path id="Path_416" data-name="Path 416" d="M29.563,25.919l.019.433c-.192-.125-.221-.452-.173-.712C29.515,25.64,29.515,25.823,29.563,25.919Z" transform="translate(-1.102 -0.91)" fill="#df6d27"/>
          <path id="Path_417" data-name="Path 417" d="M27.224,26.988l-.164.048V26.93c.067.01.1.058.164.058Z" transform="translate(-1.014 -0.958)" fill="#fff"/>
          <rect id="Rectangle_62" data-name="Rectangle 62" width="0.038" height="0.01" transform="translate(26.305 25.972)" fill="#fff"/>
          <path id="Path_418" data-name="Path 418" d="M29.4,27.57c-.106.25-.125.529-.346.722C29.1,28.08,29.088,27.647,29.4,27.57Z" transform="translate(-1.089 -0.982)" fill="#df6d27"/>
          <path id="Path_419" data-name="Path 419" d="M27.7,27.881a2.287,2.287,0,0,1-.154.914,1.316,1.316,0,0,1-.491-.674c0-.125-.087-.269,0-.395.058,0,.087.01.1.048A.312.312,0,0,1,27.7,27.881Z" transform="translate(-1.013 -0.986)" fill="#df6d27"/>
          <path id="Path_420" data-name="Path 420" d="M28.32,28.786l.1-.346-.01.346Z" transform="translate(-1.062 -1.015)" fill="#fff"/>
          <path id="Path_421" data-name="Path 421" d="M51.533,28.938c.1.346-.231.346-.414.414a2.234,2.234,0,0,1-1.039.029c-.038-.318.2-.481.375-.645.327-.029.9-.289,1.087.2Z" transform="translate(-1.88 -1.023)" fill="#009a4e"/>
          <path id="Path_422" data-name="Path 422" d="M57.106,29.87a2.133,2.133,0,0,1-.308,1.877,3.877,3.877,0,0,1-2.955,1.222c-.077.1-.26,0-.337.1a6.91,6.91,0,0,0,1.155,1.1c.135.029.221.173.346.212.183.173.52.2.529.51a.82.82,0,0,0-.221.038.243.243,0,0,1,.106.183c-.048.019-.067-.038-.115-.019-.039.048.067.125.087.2-.26.144-.529-.019-.808-.058a7.341,7.341,0,0,1-2.666-2.521c0-.144-.087-.3,0-.4.048-.164.327-.125.26-.346.019.058.106.154.173.058a4.348,4.348,0,0,0,1.906-.125,2.493,2.493,0,0,0,1.819-1.02c.029-.241.241-.452.135-.712-.135-.25-.462-.164-.674-.125a.73.73,0,0,1-.568.019c-.058-.221-.414-.481-.173-.751.135-.019.087-.2.212-.183a1.206,1.206,0,0,1,1.155-.2,1.638,1.638,0,0,1,.962.962Z" transform="translate(-1.948 -1.031)"/>
          <path id="Path_423" data-name="Path 423" d="M40.732,30.392c.048-.067.106.038.154.038.058.144.144,0,.212.077a12.631,12.631,0,0,1,1.338.6,18.436,18.436,0,0,1,2.589,1.424,14.054,14.054,0,0,1,1.915,1.655,36.563,36.563,0,0,1,5.486,7.487c.115.212.356.423.395.635-.039.058-.1,0-.154-.01-.106.125-.26.212-.308.395-.549.395-.982,1.059-1.655,1.241a.57.57,0,0,1-.375.173A3.291,3.291,0,0,0,50.4,43.3c.568.164.885-.5,1.338-.741a.521.521,0,0,0,.154-.385c-.029-.038-.087-.067-.067-.125-.135-.135-.241-.25-.433-.2-.106.048-.144.183-.279.164a3.31,3.31,0,0,1-.741.6,4.9,4.9,0,0,0-1-2.473,6.175,6.175,0,0,0-2.647-1.521.947.947,0,0,1-.751-.183c-.366-.77-1.01-1.405-1.309-2.2-.087,0-.212-.048-.192-.183a4.705,4.705,0,0,0-.135-2.7c-.481-1.078-1.617-1.4-2.377-2.165-.568-.164-.962-.837-1.607-.76-.1-.308-.5-.2-.722-.346a1.35,1.35,0,0,1-.375-.135,4.022,4.022,0,0,1,1.068.26c.125.144.3.058.395.212Z" transform="translate(-1.473 -1.071)" fill="#009a4e"/>
          <path id="Path_424" data-name="Path 424" d="M40.066,30.944s.106,0,.135.067c-.1.164.135.183.212.231.828.635,1.732,1.184,2.579,1.819a2.251,2.251,0,0,1,.616,2.185,16.488,16.488,0,0,1-.549,1.646,2.853,2.853,0,0,1-1.415,1.732,1.994,1.994,0,0,1-1.444.231c-.876-.212-1.309-1.213-1.771-1.925a6.882,6.882,0,0,1-.7-4.273c.289-.712.356-1.9,1.357-1.857a3.874,3.874,0,0,0,.972.135Z" transform="translate(-1.413 -1.104)" fill="#fd0"/>
          <path id="Path_425" data-name="Path 425" d="M60.39,31.423a7.317,7.317,0,0,1-.51,2.57,8.24,8.24,0,0,1-1.838,2.589,10.349,10.349,0,0,1-1.328,1.424c-.154.077-.308.269-.5.135-.019-.173-.221-.221-.154-.385.934-.885,1.617-1.886,2.493-2.743a7.833,7.833,0,0,0,1.338-3.59c.039-.279.462-.221.5.01Z" transform="translate(-2.105 -1.12)"/>
          <path id="Path_426" data-name="Path 426" d="M19.111,32.928c.087.366-.318.645-.52.876a.546.546,0,0,1-.472-.115c-.058-.385.356-.616.635-.818.1.048.25,0,.356.048Z" transform="translate(-0.678 -1.182)"/>
          <path id="Path_427" data-name="Path 427" d="M39.719,36.864c.173.26.212.654.549.76.462.289.866-.01,1.232-.327a4.938,4.938,0,0,0,.626-.885.255.255,0,0,1,.241.144c.192.731-.558,1.184-1.039,1.549a1.632,1.632,0,0,1-1.559-.067,2.767,2.767,0,0,1-.837-1.944c.048-.115.164-.115.269-.144.462.038.308.635.52.924Z" transform="translate(-1.461 -1.298)"/>
          <path id="Path_428" data-name="Path 428" d="M17.8,36.76c.25.674,1,.972,1.164,1.665-.077.135.038.221.019.346-.231.318-.318-.164-.52-.212-.452-.577-1.261-.866-1.386-1.675a.679.679,0,0,1,.212-.375c.221-.058.327.125.52.25Z" transform="translate(-0.639 -1.318)"/>
          <path id="Path_429" data-name="Path 429" d="M44.671,38.7c-.135-.039-.212.1-.221.2-.058.25.231.327.337.472a2.389,2.389,0,0,0,.847.327c.067.019.135.164.183.058.4.241.991.039,1.376.346a2.962,2.962,0,0,1,1.771,2.714C49.29,45.6,46.48,47.561,47.77,50.4a3.388,3.388,0,0,0,2.358,2.165c.048.164.2.039.269.135.4.308.9.491,1.184.953.241.664-.144,1.213,0,1.838a3,3,0,0,0,1.771,2.136c.712.433,1.7.568,2.05,1.492a3.27,3.27,0,0,1,.192.683,4.589,4.589,0,0,0-1.742-1.588.512.512,0,0,0-.433.067c-.1.2-.289.346-.135.587.135.164.346.125.462.289.173.01.221.2.395.231a8.289,8.289,0,0,1,1.136,1.424A16.307,16.307,0,0,0,50.2,58.57a18.628,18.628,0,0,1-3.436-1.02,3.779,3.779,0,0,1-1.328-2.377c-.115-.241-.549-.308-.395-.568a2.482,2.482,0,0,0,.876-2.348,2.809,2.809,0,0,0-1.03-1.838c-.837-.731-2.136-1.222-2.185-2.55a4.367,4.367,0,0,1,1.617-3.436,3.122,3.122,0,0,0,.934-1.78c.087-.2.125-.414.2-.616a2.833,2.833,0,0,0,.038-.857c-.038-.327-.395-.549-.654-.645-.154.308-.6-.115-.577.356a4.348,4.348,0,0,1-.443,2.05c-.9,1.367-2.339,2.454-2.319,4.225a4.245,4.245,0,0,0,2.185,3.647,5.155,5.155,0,0,1,.876.712c-.01.164.115.269.144.433.289.674-.125,1.27-.414,1.8a14.041,14.041,0,0,1-1.376,1.251,8.838,8.838,0,0,0-1.405,1.819c-.077-.837.654-1.511,1.1-2.2a2.873,2.873,0,0,0,.212-2.945c-1.29-2.06-4.023-1.53-5.014-3.936a12.126,12.126,0,0,1-.789-3.031,4.281,4.281,0,0,1,.962-2.329c.789-.693,1.54-1.463,2.319-2.194a2.261,2.261,0,0,0,1.386-.077c.346-.038.626-.318.953-.443a3.967,3.967,0,0,0,1.376-2.021l.048-.048a11,11,0,0,0,.626,1.087Z" transform="translate(-1.389 -1.36)" fill="#df6d27"/>
          <path id="Path_430" data-name="Path 430" d="M20.206,41.428c-.154.433-.635.7-.943.962a1.869,1.869,0,0,1-1.27.077.514.514,0,0,1-.2-.337c.058-.289.366-.289.587-.25.51.173.876-.337,1.309-.568.154-.077.346-.289.52-.144a.217.217,0,0,0,.01.25Z" transform="translate(-0.666 -1.492)"/>
          <path id="Path_431" data-name="Path 431" d="M40.4,41.856c.135.067.067.269.039.366-.26.164-.452.529-.693.751,0,.164-.154.231-.212.375-.529,1.222-1.078,2.945-.241,4.215a11.934,11.934,0,0,0,.818,1.193c-.019.1-.048.221-.154.25-.125.019-.212-.106-.346-.087a4.506,4.506,0,0,1-1.27-3.859l-.038-.029a12.38,12.38,0,0,1,.558-1.848,3.806,3.806,0,0,1,1.068-1.415c.154,0,.356-.077.481.077Z" transform="translate(-1.436 -1.516)"/>
          <path id="Path_432" data-name="Path 432" d="M48.578,43.68c.135.626-.289,1.039-.433,1.569-.462,1.107-1.28,2.04-1.424,3.291a4.759,4.759,0,0,0,1.4,4.639,3.107,3.107,0,0,1,1.877,1.867c-.087.77-.2,1.569.491,2.04a10.984,10.984,0,0,0,1.309.866c-.038.058-.125.1-.058.164-.144.173-.395.115-.6.125-.808-.472-1.992-1.213-1.934-2.377,0-.385.192-.741,0-1.126-.616-.991-1.857-1-2.329-2.175a5.8,5.8,0,0,1-.722-4.764c.337-1.213,1.222-2.2,1.549-3.416a1.323,1.323,0,0,0,.25-.751c.077-.058,0-.183.125-.2a.526.526,0,0,1,.51.231Z" transform="translate(-1.726 -1.579)"/>
          <path id="Path_433" data-name="Path 433" d="M52.877,44.67a2.465,2.465,0,0,1,.4,2.339c.019.5-.366.914-.375,1.386-.221,1-1.011,2.29-.115,3.224,1.136,1.944,3.542,1.983,4.437,4.167a7.63,7.63,0,0,1,.452,2.3,2.778,2.778,0,0,1-.346,1.857,4.071,4.071,0,0,0-.818-1.752c-.972-1.145-2.82-.818-3.224-2.56.125-.78.346-1.684-.2-2.329-.837-1.02-2.021-1.29-3.032-1.9a3.118,3.118,0,0,1-.654-3.253c.25-.972.962-1.8,1.145-2.829.2.038.395.25.654.241a2.052,2.052,0,0,0,.76-.327c.279-.067.491-.346.76-.452,0-.1.087-.135.173-.115Z" transform="translate(-1.847 -1.625)" fill="#df6d27"/>
          <path id="Path_434" data-name="Path 434" d="M52.38,47.466c-.019.077.077.1.106.115,0,.125.039.308-.106.366-.346.183-.346.635-.462.982a6.587,6.587,0,0,0-.192,1.886c-.1.058-.115.327-.269.221a.654.654,0,0,1-.279-.067,4.522,4.522,0,0,1-.019-1.347c-.135-.115.019-.25-.029-.395a3.447,3.447,0,0,1,.808-1.838.483.483,0,0,1,.443.087Z" transform="translate(-1.919 -1.727)"/>
          <path id="Path_435" data-name="Path 435" d="M40.685,52.125a.5.5,0,0,1,.125.2c-.52.192-1.068.3-1.578.51a.155.155,0,0,0-.173.087c-.106-.106-.087.144-.192.038-.038.1-.125.058-.192.019a3.433,3.433,0,0,1-.885.385c-.173.067-.327.212-.529.164a1.263,1.263,0,0,1-.5.192,1.948,1.948,0,0,1-.7.318c-.25.192-.606.212-.837.414-.433.144-.837.346-1.27.529a3.206,3.206,0,0,1-.857.472,25.71,25.71,0,0,1-3.8,1.857c-1.742.712-3.388,1.617-5.053,2.464a7.4,7.4,0,0,0-1.569,1.068,12.271,12.271,0,0,1-3.012-1.309c-.289-.318-.741-.616-.549-1.078C20.523,56,23.092,55.494,25.094,54c1.424-.837,2.974-1.347,4.379-2.165,1.569-.606,3.1-1.27,4.639-1.886a9.921,9.921,0,0,1,2.185-.674l.048-.087c1.136,1.617,2.935,1.857,4.35,2.945Z" transform="translate(-0.713 -1.796)" fill="#e4a025"/>
          <path id="Path_436" data-name="Path 436" d="M36.1,51.167c.3.51.366,1.174.828,1.559.106.183.327.25.26.51-.058.019-.106.115-.154.154-.914-.058-1.251-1.1-1.492-1.838.087-.135-.106-.414.173-.452a2.408,2.408,0,0,1,.395.067Z" transform="translate(-1.333 -1.868)"/>
          <path id="Path_437" data-name="Path 437" d="M33.021,53.118a2.541,2.541,0,0,0,.789,1.136.41.41,0,0,1-.154.385c-.443.106-.76-.385-1.049-.693-.135-.318-.423-.587-.308-.924-.048-.154.048-.125.125-.221a.656.656,0,0,1,.6.327Z" transform="translate(-1.21 -1.931)"/>
          <path id="Path_438" data-name="Path 438" d="M41.268,53.74c-.154,1.107-1.01,1.877-1.405,2.887a3.154,3.154,0,0,0-.077,1.309,28.758,28.758,0,0,0-4.225,1.713c-1.328.549-2.714.857-4.023,1.424a9.062,9.062,0,0,0-3.262,2.213c-.9-.327-1.752-.837-2.627-1.251-.423-.2-.857-.366-1.309-.529v-.039c1.405-1.049,3.089-1.424,4.533-2.377a30.91,30.91,0,0,0,4.85-2.281c.26-.106.5-.308.77-.414.106-.077.192-.183.318-.164a16.2,16.2,0,0,1,2.108-1c.808-.375,1.684-.635,2.512-.943.395-.1.731-.269,1.116-.366C40.8,53.884,41.028,53.788,41.268,53.74Z" transform="translate(-0.912 -1.967)" fill="#fff"/>
          <path id="Path_439" data-name="Path 439" d="M29.81,54.437c.3.366.645.876.982,1.222.048.125.106.308-.038.395-.154.058-.346.115-.481-.029A15.539,15.539,0,0,1,28.8,54.312c.087-.144-.019-.327.144-.414.385-.183.693.25.857.539Z" transform="translate(-1.08 -1.971)"/>
          <path id="Path_440" data-name="Path 440" d="M56.417,56.653c.038.269.077.568-.231.674-.106-.087-.154.144-.25.048a9.118,9.118,0,0,0-.385-.962,3.508,3.508,0,0,0-.991-1.068c.164-.1.01-.327.2-.4.616-.087,1.049.529,1.4.982Z" transform="translate(-2.049 -2.012)"/>
          <path id="Path_441" data-name="Path 441" d="M26.062,55.773a3.268,3.268,0,0,1,.568.635,3.621,3.621,0,0,1,.837,1.164.4.4,0,0,1-.308.308c-.269-.029-.423-.308-.616-.491a11.46,11.46,0,0,0-1.2-1.29v-.327c.221-.125.558-.356.731,0Z" transform="translate(-0.95 -2.036)"/>
          <path id="Path_442" data-name="Path 442" d="M38.806,56.276c.125.433.9.8.472,1.28a.68.68,0,0,1-.385.039,6.079,6.079,0,0,1-.953-1.164c.058-.154-.048-.269.058-.385.106-.164.308-.039.452-.115C38.585,56.026,38.777,56.094,38.806,56.276Z" transform="translate(-1.424 -2.049)"/>
          <path id="Path_443" data-name="Path 443" d="M44.072,56.356a4.689,4.689,0,0,0,1.636,2.531,1.4,1.4,0,0,0,.7.308,14.711,14.711,0,0,0,2.579.847,28.907,28.907,0,0,1-5.283,1.78,35.037,35.037,0,0,0-3.647,1.184c-.885.327-1.694.885-2.56,1.27A14.413,14.413,0,0,0,33.476,67.4h-.038a11.187,11.187,0,0,0-3.9-3.378v-.067a14.641,14.641,0,0,1,6.15-2.945c.962-.366,1.857-.934,2.858-1.241a12.4,12.4,0,0,1,1.906-.674c.106.106.173.289.327.346.26.125.4-.221.626-.019.01,0,.01-.038.01-.058.154.077.26-.135.452-.087.058-.2.231-.115.279-.3a3.049,3.049,0,0,1,.818-2.011,4.556,4.556,0,0,1,1.02-.962A1.407,1.407,0,0,1,44.072,56.356Z" transform="translate(-1.108 -2.052)" fill="#e4a025"/>
          <path id="Path_444" data-name="Path 444" d="M23.229,57.466c.087.414.52.751.847,1.02.183.164.529.2.549.529-.231.3-.549.115-.828.019a3.535,3.535,0,0,1-1.357-1.453c.019-.144-.048-.3.029-.414a.614.614,0,0,1,.452-.019c.144.029.173.25.308.327Z" transform="translate(-0.84 -2.094)"/>
          <path id="Path_445" data-name="Path 445" d="M35.15,57.649a1.534,1.534,0,0,0,.51.924c.087-.038.192.019.279.067.106.221-.106.327-.231.433a1.082,1.082,0,0,1-1.1-.6,1.391,1.391,0,0,1-.173-1.01c.173-.183.356-.058.539,0Z" transform="translate(-1.29 -2.103)"/>
          <path id="Path_446" data-name="Path 446" d="M44.343,59.044c.3.433.327,1.03.789,1.347a.255.255,0,0,1-.125.327c-.125.087-.289.039-.423.058a2.867,2.867,0,0,1-.924-1.453c.038-.125-.019-.221.048-.327A.485.485,0,0,1,44.343,59.044Z" transform="translate(-1.639 -2.161)"/>
          <path id="Path_447" data-name="Path 447" d="M32.251,60.061a.375.375,0,0,1-.135.443c-.5.212-.9-.3-1.309-.452-.173-.154-.366-.327-.308-.568s.279-.135.4-.173C31.443,59.31,31.722,60.051,32.251,60.061Z" transform="translate(-1.143 -2.176)"/>
          <path id="Path_448" data-name="Path 448" d="M41.019,60.837a1.208,1.208,0,0,0,.674.789c-.144.1.1.2-.067.3a.919.919,0,0,1-.587.106,1.583,1.583,0,0,1-.808-1.357c.058-.26.375-.135.491-.135A.462.462,0,0,1,41.019,60.837Z" transform="translate(-1.51 -2.221)"/>
          <path id="Path_449" data-name="Path 449" d="M29.36,61.52c.1.029.241.029.327.125-.048.115.106.173.019.269-.346.51-.789-.048-1.145-.144-.26-.231-.866-.346-.693-.876a1.035,1.035,0,0,1,.308-.135c.048,0,.106.058.125-.01A11.379,11.379,0,0,1,29.36,61.52Z" transform="translate(-1.044 -2.231)"/>
          <path id="Path_450" data-name="Path 450" d="M37.54,61.575c.241.472.4,1.107.972,1.251.192.241-.154.337-.241.443-.154.115-.279-.038-.433,0a2.71,2.71,0,0,1-1.059-1.424c.058-.125-.039-.356.173-.4C37.165,61.459,37.367,61.411,37.54,61.575Z" transform="translate(-1.38 -2.256)"/>
          <path id="Path_451" data-name="Path 451" d="M45.99,62.71c-.106.452.241.808.4,1.164a19.372,19.372,0,0,1,2.262,4.186,20.624,20.624,0,0,1,1.7,4.234,7.373,7.373,0,0,0-3.022-.289,6.789,6.789,0,0,0-1.376.529c-.241,0-.385.25-.606.3a6.533,6.533,0,0,1-.577-1.347c-1.213-2.4-1.944-5.024-3.4-7.314,1.472-.616,3.1-.914,4.619-1.453Z" transform="translate(-1.553 -2.304)" fill="#fff"/>
          <path id="Path_452" data-name="Path 452" d="M33.658,63.129c.52.558,1.011,1.049,1.569,1.588.019.058.048.221-.019.269a.46.46,0,0,1-.433.154c-.5-.337-.914-.818-1.4-1.164L33.359,64c-.039-.2-.346-.269-.26-.462a.42.42,0,0,1,.173-.423l.375.019Z" transform="translate(-1.241 -2.319)"/>
          <rect id="Rectangle_63" data-name="Rectangle 63" width="0.038" height="0.01" transform="translate(46.987 69.693)" fill="#fff"/>
          <path id="Path_453" data-name="Path 453" d="M50.09,72.63l.087.019Z" transform="translate(-1.881 -2.677)" fill="#fff"/>
          <rect id="Rectangle_64" data-name="Rectangle 64" width="0.029" height="0.058" transform="translate(41.54 72.686)"/>
          <path id="Path_454" data-name="Path 454" d="M29.128,82.34c0,.9-.019,1.809.019,2.733a.305.305,0,0,1-.269.183l-.115-.087a12.171,12.171,0,0,1-1.472-.115.973.973,0,0,0-.26.1c-.067.087-.183.241-.1.346.308.472.789.385,1.27.4.269.058.51-.241.712.087.067.019.154-.019.212.058.019.269-.058.558-.019.837l-.135.048-1.472.038s-.058-.077-.087-.058c-.154.058-.337,0-.529.058a1.829,1.829,0,0,0-1.039.183c-.1.067-.067.2-.1.289.221.481.77.318,1.155.3.549-.1,1.049.1,1.549-.1a1,1,0,0,0,.626.019,6.817,6.817,0,0,1,.01.991.236.236,0,0,1-.154.058l-.048-.077c-.808.019-1.434.144-2.252.125-.106.038-.26-.125-.366-.048-.173.1-.241-.183-.366-.058-.135-.019-.26.019-.395-.058-.125.154-.327.2-.346.443.019.173.241.125.3.308a8.392,8.392,0,0,0,3.022,0,1.928,1.928,0,0,0,.616.048c.038.327.038.674.058,1.02a16.323,16.323,0,0,1-3.06-.164.846.846,0,0,0-.395.241c-.019.212.164.356.308.472a26.176,26.176,0,0,0,2.781.164l.366-.038v.982c-.789.106-1.588-.289-2.406-.067l-.26.269a.687.687,0,0,0,.616.327c.356.067.837.019,1.213.125a1.2,1.2,0,0,0,.78-.154,4.3,4.3,0,0,1,.039,1.059,6.843,6.843,0,0,0-1.53-.038c-.106.106-.221.173-.269.346.462.433,1.2.327,1.809.346a1.834,1.834,0,0,1-.067.539c-.125.038-.212-.144-.308,0-.087-.029-.173.1-.241,0-.135.048-.135.212-.279.289,0,.231.212.318.375.414l.452.019a11.622,11.622,0,0,1-.087,1.3c-1.27-2.117-3.821-3.118-4.822-5.38a5.986,5.986,0,0,1-.433-2.868c.876-1.954,2.56-3.253,3.975-4.822.5-.452.943-1,1.463-1.424Z" transform="translate(-0.888 -3.043)" fill="#009a4e"/>
          <path id="Path_455" data-name="Path 455" d="M38.782,89.614a9.67,9.67,0,0,1-.154,1.039l.058.048c.048,0-.019,0-.019-.019-.154.087,0,.241-.106.346-1.328.087-2.666-.346-4.08-.308-.395-.067-.828-.038-1.213-.106a2.2,2.2,0,0,1-.048-.837,14.112,14.112,0,0,1,3.3-.308c.76.019,1.482.173,2.262.154Z" transform="translate(-1.245 -3.311)" fill="#fff"/>
          <path id="Path_456" data-name="Path 456" d="M8.45,98.047l3.185-2.059,4.157-1.453,3.224-.654,2.5,4.956,2.541,5.091,2.878,8.864L12.309,117.5l-2.444-6.881L8.758,105.14Z" transform="translate(-0.314 -3.477)" fill="#e4a025"/>
          <path id="Path_457" data-name="Path 457" d="M11.76,96.015l.529,2.185.491,4.157.645,3.1L17.2,116.023l6-1.867-1.251-2.512-2-4.167-2.656-7.42L15.792,94.62Z" transform="translate(-0.439 -3.505)" fill="#fff"/>
          <path id="Path_458" data-name="Path 458" d="M7.683,57.59c.212.818.414,1.665.6,2.5.058.115.135-.039.212.038.125-.01.221.135.346.106.318.241.337.645.549.962.539,2.387,1.3,4.658,1.723,7.083a52.226,52.226,0,0,0,1.665,5.033c.067,0,.029-.1.067-.135-.01-.433.221-.78.212-1.193.221-.577.337-1.213.606-1.761a6.537,6.537,0,0,1,2.743-3.2,3.7,3.7,0,0,1,1.405-.385c.269.395.481-.164.77-.241a.913.913,0,0,1,.52-.154.954.954,0,0,1,.529.385c.3.481-.25.751-.472,1.126a11.443,11.443,0,0,1-1.107,1.6c-.038.241-.279.269-.452.356a2.562,2.562,0,0,1-.616,1.415,12.207,12.207,0,0,0-.693,2.175,2.993,2.993,0,0,0-.241,1.405,8.342,8.342,0,0,0-.125,1.222c-.173.231.038.491-.038.731.019.231.058.539-.125.712a2.353,2.353,0,0,1,1.116.385,5.731,5.731,0,0,1,1.155,1.511,6.241,6.241,0,0,1,.6,1.867c.395,2.733.857,5.534,1.2,8.334a5.99,5.99,0,0,1-.318,2.656c.029,1.164.731,2.021,1.126,3,.587,1.511,1.7,2.743,2.252,4.244a47.676,47.676,0,0,1,3.147,7.747l.058.5c-.087.029-.067.279-.2.144l-.26.183c-.048-.164-.125.048-.212.019l-.308-.212c-.125-.472-.289-.9-.433-1.347a52.54,52.54,0,0,0-3.561-8.344,36.332,36.332,0,0,1-2.579-4.976,2.721,2.721,0,0,1-.789.039,9.63,9.63,0,0,0-1.829.375c.029.183.221.25.2.452.4.606.346,1.492.616,2.175.722,1.771,1,3.859,1.626,5.7.414,1.2,1.068,2.281,1.511,3.484a20.245,20.245,0,0,0,1.838,3.984,3.885,3.885,0,0,1,.645,1.877c-.1.029-.144.164-.221.241l-.077-.058c-.038.058.01.231-.106.135-.664-.154-.549-1.068-.9-1.578a24.639,24.639,0,0,1-1.675-3.609c-.472-1.28-1.049-2.483-1.53-3.753-.183-.154-.1-.423-.3-.577a14.9,14.9,0,0,0-.462-1.53c-.423-2.175-1.376-4.071-1.838-6.236-.067-.164.087-.289.058-.462a35.3,35.3,0,0,0-3.58,1.4c.318.144.375.491.568.76.125,1.338.452,2.675.452,3.975a20.634,20.634,0,0,0,1.29,5.591c.683,1.694,1.184,3.465,1.829,5.168,0,.144.1.414-.115.414a.253.253,0,0,1-.144.154l-.125-.067-.029.154c-.115-.029-.164-.087-.279-.067-.221-.385-.25-.876-.433-1.28a36.739,36.739,0,0,0-1.54-4.485,26,26,0,0,1-1.472-7.237L11.3,95.5a.486.486,0,0,1,.077-.087.147.147,0,0,0-.058-.106c-.78.366-1.482.914-2.252,1.367-.058.116.019.337-.019.481a16.654,16.654,0,0,0,.029,3.465,43.974,43.974,0,0,0,1.174,7.4,6.528,6.528,0,0,1,.3,1.367.233.233,0,0,1-.1.058l-.058-.1a.857.857,0,0,0-.183.289c-.067-.029-.164.029-.231-.038-.048.019-.01.058-.029.087-.038-.115-.2-.048-.279-.029a27.227,27.227,0,0,1-1.01-3.8c-.231-1.3-.414-2.781-.577-4.157-.433-1.675-.135-3.493-.3-5.149-.366-1.155-1.848-.934-2.175-2.1-.395-.953-.337-2.213-.731-3.118a22.384,22.384,0,0,1-2.435-6.794c.038-.115.115-.241.077-.346.106.019.077-.115.2-.067a3.013,3.013,0,0,1,.635-1.453c.029-.144-.144-.135-.192-.241-.212-.568-.154-1.28-.308-1.877a8.5,8.5,0,0,1-.144-1.338c-.25-.346-.212-.751-.375-1.145a11.5,11.5,0,0,1-.125-3.58c.26-.587.712-1.222,1.347-1.28.164-.4.135-.866.414-1.222a1.951,1.951,0,0,1,1.482-.751A1.92,1.92,0,0,1,6.615,69.8c.279-.164.645-.144.914-.289a51.74,51.74,0,0,1-1.405-7.7c.1-.1,0-.366.183-.337-.115-.491-.164-.953-.26-1.482-.077-.7-.25-1.376-.279-2.069.029-.241.289-.221.385-.414.289.173.577-.115.847-.183.241.077.51-.087.635.231Z" transform="translate(-0.077 -2.102)"/>
          <path id="Path_459" data-name="Path 459" d="M7.771,61.4v.269c-.25.135-.25-.192-.308-.318-.2-.953-.269-1.963-.433-2.9.308.991.375,1.982.751,2.945Z" transform="translate(-0.261 -2.144)" fill="#df6d27"/>
          <path id="Path_460" data-name="Path 460" d="M15.33,60.415a1.751,1.751,0,0,1-.029,1.8c-.115.058-.067.3-.269.231-.019.077-.1.019-.164.048-.077-.106-.164.125-.25,0-.144-.106-.038-.289-.048-.414,0-.481.3-.866.144-1.376a.534.534,0,0,0-.318-.115c-.1-.125-.385-.1-.346-.289.1-.318.481-.3.722-.26a1.377,1.377,0,0,1,.568.366Z" transform="translate(-0.525 -2.203)"/>
          <path id="Path_461" data-name="Path 461" d="M8.711,62.8c.9,2.849,1.222,5.851,2.271,8.633.414,1.03.731,2.117,1.049,3.2a.665.665,0,0,0,.472.395A.114.114,0,0,0,12.609,75c.106-.01.269-.135.366-.029.058-.019.115,0,.115.038a1.664,1.664,0,0,0,.395-.038,4.6,4.6,0,0,0,.308-1.521,8.183,8.183,0,0,1,1.742-4.071A4.148,4.148,0,0,1,16.9,68.214a3.381,3.381,0,0,0-.452.962.424.424,0,0,0-.038.385l.221.183a16,16,0,0,0-1.251,2.868,23.916,23.916,0,0,0-.433,2.781c-.154.269.067.52-.087.78-.077.135.038.289-.019.443-.154.318.087.606.231.856-.135.115-.375.1-.529.115-.125.154-.327,0-.5.115a8.864,8.864,0,0,1-1.184.308c-.183.1-.4.116-.558.221-.087-.067-.144.048-.192.087-.337-.106-.5.308-.8.241a3.109,3.109,0,0,1-.654.231c-.327.3-.731.26-1.03.568-1.29.645-2.56,1.126-3.83,1.819a11.357,11.357,0,0,0-1.54.962,6.443,6.443,0,0,1-.3-1.6,7.738,7.738,0,0,0-.375-1.809,10.023,10.023,0,0,1-.462-3.176c.1-.4-.019-1,.462-1.155.308,1.068.346,2.271.731,3.3.221-.029.144.3.385.231.077.154.173-.039.279-.019.308-.2.25-.529.221-.818-.25-.857-.337-1.829-.577-2.7a2.1,2.1,0,0,1,.337-1.809c.173-.029.318-.077.51-.1a12.541,12.541,0,0,0,.8,3.59c-.077.192.192.221.125.4.192.173.346.327.587.289.327-.231.231-.683.221-1a10.571,10.571,0,0,1-.751-3.724c.029-.327-.029-.76.289-.934.318-.423.77-.058,1.136-.269l.087.125c.5,1.453.693,3,1.1,4.523.125.067.231.26.395.231.038-.019.048-.1.1-.077.058.048.154,0,.241-.038v-.039c.058-.019.164.029.212-.067.01-.077-.048-.164.038-.221-.327-1.059-.472-2.194-.8-3.243a42.794,42.794,0,0,1-1.78-7.689c-.038-.51-.154-.972-.192-1.482a1.554,1.554,0,0,0,1.3-.443,2.257,2.257,0,0,1,.125.4Z" transform="translate(-0.114 -2.293)" fill="#fff"/>
          <path id="Path_462" data-name="Path 462" d="M12.223,60.757a1.682,1.682,0,0,1,1.049.982,1.855,1.855,0,0,1-.135,1.415c-.125.1-.308.019-.443,0-.568-.279.115-.885-.164-1.357-.087-.125-.154-.318-.327-.337-.144-.135-.414-.038-.52-.3-.067.01-.125-.058-.144-.115,0-.106.135-.2.144-.337C11.867,60.613,12.021,60.873,12.223,60.757Z" transform="translate(-0.43 -2.228)"/>
          <path id="Path_463" data-name="Path 463" d="M8.922,64.524c.029.173-.144.375-.26.491a.919.919,0,0,1-.645.106c-.01-.144-.144-.337-.019-.472.289-.144.558-.423.9-.192l.019.067Z" transform="translate(-0.295 -2.367)"/>
          <path id="Path_464" data-name="Path 464" d="M4.057,63.553c-.019.279-.395.346-.4.635-.087.472-.51,1.145.019,1.559.154.231.539.269.433.568a.514.514,0,0,1-.549.1c-.414-.356-.934-.751-.837-1.386a3.842,3.842,0,0,1,.51-1.405c.212-.173.616-.443.818-.067Z" transform="translate(-0.098 -2.329)"/>
          <path id="Path_465" data-name="Path 465" d="M1.078,64.919c.077.385-.423.414-.356.808a1.243,1.243,0,0,0,.529.962c.241.269.789-.029.857.452a.562.562,0,0,1-.452.212c-.183.164-.414-.029-.626-.067-.375-.221-.558-.6-.885-.876a1.741,1.741,0,0,1,0-1.405c.241-.318.712-.587.924-.087Z" transform="translate(0.004 -2.377)"/>
          <path id="Path_466" data-name="Path 466" d="M18.048,69.312a.873.873,0,0,1-.318,0,4.522,4.522,0,0,1,1.107-1.232,7.154,7.154,0,0,1-.789,1.222Z" transform="translate(-0.663 -2.506)" fill="#df6d27"/>
          <path id="Path_467" data-name="Path 467" d="M9.968,69.178c.125.231-.038.337-.164.539-.173.067-.4.183-.587.067.048-.164-.125-.25-.048-.4a.584.584,0,0,1,.6-.241C9.833,69.1,9.9,69.139,9.968,69.178Z" transform="translate(-0.341 -2.546)"/>
          <path id="Path_468" data-name="Path 468" d="M12.163,76.051c.106.308-.173.452-.318.626a.69.69,0,0,1-.549.067c-.173-.135-.472-.375-.26-.626.192-.048.318-.221.481-.289.231.058.6-.135.654.221Z" transform="translate(-0.409 -2.798)"/>
          <path id="Path_469" data-name="Path 469" d="M9.382,76.8c.1.173-.058.3-.058.443-.221.212-.51.568-.866.395-.144-.135-.423-.337-.25-.568a1.233,1.233,0,0,1,.693-.51c.173.058.443-.048.481.231Z" transform="translate(-0.303 -2.825)"/>
          <path id="Path_470" data-name="Path 470" d="M7.125,78.38c.115.375-.3.385-.481.577-.183.067-.279-.01-.443-.058-.154-.154-.337-.308-.154-.52a1.012,1.012,0,0,1,.934-.25l.154.241Z" transform="translate(-0.221 -2.884)"/>
          <path id="Path_471" data-name="Path 471" d="M5.018,79.37c.029.164.337.164.221.4-.125.192-.241.529-.52.52-.144-.125-.366-.048-.462-.279.058-.173-.144-.26,0-.423a.9.9,0,0,1,.712-.212h.067Z" transform="translate(-0.155 -2.931)"/>
          <path id="Path_472" data-name="Path 472" d="M16.7,79.569a2.177,2.177,0,0,1,.587,1.232c-.78.2-1.626.25-2.406.433-.154-.539.048-1.434-.635-1.578-.067-.087-.173.048-.25.087,0,.144-.269.337-.038.462a2.8,2.8,0,0,0,.308,1.174.448.448,0,0,0-.308.135c-.414.019-.7.25-1.1.289-.366.241-.837.231-1.174.51a33.228,33.228,0,0,0-5.649,2.81c.221-.067,0-.269-.01-.4a.836.836,0,0,0-.4-.866c-.212.019-.327.241-.4.414.038.346-.029.866.395.982l.2.019c-.318.154-.558.452-.9.539-.154.25-.423.269-.558.558a1.839,1.839,0,0,0-.51.346c-.019-.241-.221-.423-.125-.645.038,0,.029-.038.058-.058-.241-1.559,1.357-2.387,2.377-3.022.885-.51,1.819-.924,2.733-1.338.1.058.154-.1.241-.106.626-.375,1.328-.645,1.983-1.01a1.848,1.848,0,0,0,.683-.269.9.9,0,0,0,.356-.1,7.734,7.734,0,0,1,1.925-.568,4.542,4.542,0,0,1,2.339-.241l.279.2Z" transform="translate(-0.136 -2.928)" fill="#e4a025"/>
          <path id="Path_473" data-name="Path 473" d="M11.382,81.193a4.117,4.117,0,0,1,.1.789c.1.144.192.337,0,.481-.26.1-.452-.038-.664-.2a3.788,3.788,0,0,1-.154-.914c.144-.125.144-.433.395-.308C11.189,81.039,11.266,81.193,11.382,81.193Z" transform="translate(-0.397 -2.993)"/>
          <path id="Path_474" data-name="Path 474" d="M8.373,82.949c.183.183.029.452.212.635-.077.125-.135.3-.327.318a.972.972,0,0,1-.395-.173,2.062,2.062,0,0,1-.192-.741c.115-.077.106-.241.241-.289.2-.1.318.154.443.241Z" transform="translate(-0.285 -3.055)"/>
          <path id="Path_475" data-name="Path 475" d="M17.636,82.2a19.215,19.215,0,0,1,.26,2.1,8.833,8.833,0,0,0-1.54.289c-.029-.115.077-.058.106-.115a2.05,2.05,0,0,0-.385-1.155c-.212-.077-.4-.51-.635-.192-.058.154-.26.3-.144.481a1.686,1.686,0,0,1,.52,1.078,14.845,14.845,0,0,0-2.493.828,2.383,2.383,0,0,1-.231-.616,1.019,1.019,0,0,0-.183-.683c-.183-.087-.433-.3-.6-.115-.077.115-.067.241-.154.337.115.481.125,1.02.539,1.318-.77.366-1.636.539-2.377.962.038-.125-.106-.221-.144-.327-.144-.279,0-.693-.308-.933-.192-.058-.4-.2-.568.019-.3.375.106.78.154,1.155l.3.337c-1.617.9-3.407,1.376-4.841,2.656a14.259,14.259,0,0,1-.683-1.723,15.508,15.508,0,0,1,1.819-1.136c.087.577.26,1.328.885,1.482.106.029.221-.067.318-.115.058-.077.164-.212.058-.318a1.582,1.582,0,0,1-.366-1.049c-.048-.2-.241-.26-.385-.356,1.039-.683,2.156-1.164,3.2-1.848a39.333,39.333,0,0,1,3.647-1.578,17.739,17.739,0,0,1,4.177-.876l.038.077Z" transform="translate(-0.155 -3.034)" fill="#fff"/>
          <path id="Path_476" data-name="Path 476" d="M18.147,85.56c.164.934.279,1.857.4,2.8a17.506,17.506,0,0,0-2.165.279c-.385.212-.991.144-1.338.366l-.029-.019a1.568,1.568,0,0,1-.78.26,28.288,28.288,0,0,0-4.292,1.877,18.664,18.664,0,0,0-3.445,2.2A10.534,10.534,0,0,0,5.54,90.9,13.694,13.694,0,0,1,7.3,89.563c.818-.385,1.6-.847,2.435-1.184.366-.231.78-.356,1.145-.6a1.588,1.588,0,0,0,.4-.2c.568-.26,1.193-.452,1.742-.683.693-.25,1.424-.51,2.136-.8a15.183,15.183,0,0,1,2.955-.549Z" transform="translate(-0.205 -3.163)" fill="#e4a025"/>
          <path id="Path_477" data-name="Path 477" d="M18.112,86.379c-.029.366.212.866-.115,1.116-.115.048-.269.135-.4.048-.135-.164-.1-.433-.164-.635a1.184,1.184,0,0,1,.058-.712.392.392,0,0,1,.635.183Z" transform="translate(-0.651 -3.184)"/>
          <path id="Path_478" data-name="Path 478" d="M15.058,87.645a.681.681,0,0,0,.135.549c.058.087.212.1.212.241a.157.157,0,0,0-.058.164.657.657,0,0,1-.722.038c-.356-.192-.308-.7-.395-1.039.1-.115.087-.337.289-.337a.938.938,0,0,1,.549.385Z" transform="translate(-0.532 -3.228)"/>
          <path id="Path_479" data-name="Path 479" d="M11.419,88.6c.067.173.192.346.154.529.077.26.5.539.183.828-.115.1-.3,0-.423.048-.4-.279-.452-.76-.7-1.126.135-.125.029-.375.241-.443a.791.791,0,0,1,.549.164Z" transform="translate(-0.396 -3.272)"/>
          <path id="Path_480" data-name="Path 480" d="M8.329,89.971a2.746,2.746,0,0,0,.395,1.347c-.038.192.327.346.038.539a.578.578,0,0,1-.606-.087,2.781,2.781,0,0,1-.626-1.588c.25-.087,0-.346.2-.433.221.019.481,0,.616.221Z" transform="translate(-0.28 -3.321)"/>
          <path id="Path_481" data-name="Path 481" d="M18.78,89.67c.1.192.019.491.067.7a5.191,5.191,0,0,1-.077,1.934c-.048.318-.154.6-.183.914a9.709,9.709,0,0,0-4.273,1.03A18.15,18.15,0,0,0,8.848,96.84c-.154.01-.192-.212-.337-.26C7.9,96,6.673,95.964,6.75,94.819A14.234,14.234,0,0,1,9.579,92.8a24.584,24.584,0,0,1,3.7-1.857,15.748,15.748,0,0,1,5.5-1.27Z" transform="translate(-0.25 -3.318)" fill="#fff"/>
          <path id="Path_482" data-name="Path 482" d="M18.751,90.889a7.194,7.194,0,0,1,0,.789c-.048.221-.3.221-.414.289-.26-.038-.231-.385-.308-.6-.077-.241.048-.452.067-.7.164-.154.337.048.5.019l.154.2Z" transform="translate(-0.674 -3.354)"/>
          <path id="Path_483" data-name="Path 483" d="M16.62,91.461c.106.356-.144.7.154.991-.077.077-.048.26-.183.327a.647.647,0,0,1-.5-.038,1.651,1.651,0,0,1-.241-1.088c.106-.115-.01-.4.231-.423.2,0,.433,0,.549.231Z" transform="translate(-0.593 -3.377)"/>
          <path id="Path_484" data-name="Path 484" d="M12.821,92.724a1.3,1.3,0,0,1,.279.712,1.245,1.245,0,0,1,.115.366c-.192.067-.241.385-.462.356-.231-.395-.481-.731-.683-1.116.029-.164,0-.385.173-.452C12.445,92.58,12.667,92.541,12.821,92.724Z" transform="translate(-0.45 -3.428)"/>
          <path id="Path_485" data-name="Path 485" d="M9.811,93.794a2.8,2.8,0,0,0,.395,1.155c.144.125.4.337.192.52-.077.135-.25.1-.395.135a1.256,1.256,0,0,1-.693-.818,1.356,1.356,0,0,1-.231-.7c.077-.173-.029-.452.241-.452C9.494,93.659,9.677,93.611,9.811,93.794Z" transform="translate(-0.338 -3.467)"/>
          <rect id="Rectangle_65" data-name="Rectangle 65" width="0.019" height="0.038" transform="translate(36.208 94.955)"/>
          <path id="Path_486" data-name="Path 486" d="M37.31,101.812l.029-.192-.019.183Z" transform="translate(-1.4 -3.768)"/>
        </g>
      </g>
    </g>
  </g>
</svg>
