<svg xmlns="http://www.w3.org/2000/svg" width="171" height="80" viewBox="0 0 171 80">
  <g id="Group_210" data-name="Group 210" transform="translate(-1317 -4606)">
    <rect id="Rectangle_288" data-name="Rectangle 288" width="171" height="80" rx="10" transform="translate(1317 4606)"/>
    <g id="Layer_1" data-name="Layer 1" transform="translate(1336 4621.14)">
      <path id="logo" d="M140.43,2.05,129.34,14.09h4.1l-4.17,9.8,11.16-12.11h-4.1l4.1-9.74ZM4.3,5.51h7.37V19.67A3.237,3.237,0,0,1,8.8,23.24a3.128,3.128,0,0,1-.53.01A3.285,3.285,0,0,1,4.86,20.1c0-.15,0-.29.01-.44v-.32H0v.32c0,5.64,4.1,8.2,8.21,8.2s8.21-2.5,8.21-8.14V.71H4.23l.06,4.8h0Zm16.35,6.73h8.91v4.55H20.65V12.24ZM89,16.78,81.88.71H76.56L89,27.8,101.44.7H96.12Zm20.01-.32h7.63l1.41-4.61h-9.04V5.45h9.81L120.23.71H104.2v26.9h14.62l1.41-4.74H109.01V16.46h0ZM58.93.71,51.62,17.04,44.12.71H39.25l4.74,10.44L41.23,17.3,33.73.71H28.6l12.44,27.1,5.32-11.53,5.32,11.53L64.06.71H58.93Zm-1.8,26.9h5.19l2.31-4.93,11.61-.06,2.31,4.93h5.19L70.41,0,57.14,27.61Zm16.99-9.48H66.75l3.72-7.82,3.66,7.82Z" fill="#fff" fill-rule="evenodd"/>
    </g>
    <path id="Path_761" data-name="Path 761" d="M14.562-6.786A6.679,6.679,0,0,0,7.578-13.68,6.669,6.669,0,0,0,.594-6.786,6.7,6.7,0,0,0,7.578.18,6.7,6.7,0,0,0,14.562-6.786ZM7.578-2.268a4.247,4.247,0,0,1-4.3-4.518,4.2,4.2,0,0,1,4.3-4.428,4.2,4.2,0,0,1,4.3,4.428A4.247,4.247,0,0,1,7.578-2.268ZM27.81.378V-13.5H25.2v7.956l-8.766-8.334V0h2.61V-7.956ZM39.582,0h3.006l-6.75-13.878L29.142,0H32l.936-2.052h5.724ZM33.894-4.158,35.8-8.37,37.71-4.158ZM43.938,0h2.61V-13.5h-2.61Zm5.184,0h2.61V-4.5H53.1L55.962,0h3.1L55.764-4.968A4.3,4.3,0,0,0,58.338-9c0-2.736-1.962-4.5-4.824-4.5H49.122Zm4.212-11.2A2.088,2.088,0,0,1,55.656-9a2.092,2.092,0,0,1-2.322,2.214h-1.6V-11.2Zm15.48-.216a5.852,5.852,0,0,1,3.528,1.53v-2.88a6.591,6.591,0,0,0-3.564-.918c-2.592,0-4.572,1.512-4.572,3.96a3.612,3.612,0,0,0,2.376,3.492L68.976-5c.972.5,1.26.828,1.26,1.53,0,.918-.9,1.35-1.926,1.35a6.569,6.569,0,0,1-4.23-2V-1.08A6.907,6.907,0,0,0,68.274.18c2.79,0,4.788-1.6,4.788-4.14,0-1.512-.792-2.466-2.34-3.24L68.094-8.55c-.7-.36-1.116-.756-1.116-1.4C66.978-10.926,67.806-11.412,68.814-11.412ZM88.146-6.786a6.679,6.679,0,0,0-6.984-6.894,6.669,6.669,0,0,0-6.984,6.894A6.7,6.7,0,0,0,81.162.18,6.7,6.7,0,0,0,88.146-6.786ZM81.162-2.268a4.247,4.247,0,0,1-4.3-4.518,4.2,4.2,0,0,1,4.3-4.428,4.2,4.2,0,0,1,4.3,4.428A4.247,4.247,0,0,1,81.162-2.268ZM101.394.378V-13.5h-2.61v7.956l-8.766-8.334V0h2.61V-7.956ZM115.47-1.35V-7.6h-5.616V-5.49H112.9v2.682a5.429,5.429,0,0,1-2.556.54,4.284,4.284,0,0,1-4.374-4.518,4.277,4.277,0,0,1,4.41-4.5,6.074,6.074,0,0,1,4.464,1.854v-2.916a7.868,7.868,0,0,0-4.518-1.332,6.712,6.712,0,0,0-7.056,6.912A6.606,6.606,0,0,0,110.106.18,10.646,10.646,0,0,0,115.47-1.35Zm6.408-10.062a5.852,5.852,0,0,1,3.528,1.53v-2.88a6.591,6.591,0,0,0-3.564-.918c-2.592,0-4.572,1.512-4.572,3.96a3.612,3.612,0,0,0,2.376,3.492L122.04-5c.972.5,1.26.828,1.26,1.53,0,.918-.9,1.35-1.926,1.35a6.569,6.569,0,0,1-4.23-2V-1.08A6.907,6.907,0,0,0,121.338.18c2.79,0,4.788-1.6,4.788-4.14,0-1.512-.792-2.466-2.34-3.24l-2.628-1.35c-.7-.36-1.116-.756-1.116-1.4C120.042-10.926,120.87-11.412,121.878-11.412Z" transform="translate(1336 4671)" fill="#fff"/>
  </g>
</svg>
