<svg id="レイヤー_3" data-name="レイヤー 3" xmlns="http://www.w3.org/2000/svg" width="215.542" height="119.15" viewBox="0 0 215.542 119.15">
  <g id="Group_20" data-name="Group 20">
    <path id="Path_351" data-name="Path 351" d="M59.366,39.451a6.443,6.443,0,0,1-.994,1.987q-2.894,5.056-8.729,15.1-8.388,14.292-8.378,17.205c0,.585.175.877.546.877a5.371,5.371,0,0,0,1.033-.643,3.618,3.618,0,0,1,2.221-.662c1.832,0,2.767,1.052,2.767,3.176S46.7,79.726,44.4,79.726c-1.364,0-2.767-.136-3.566-1.013a7.521,7.521,0,0,1-1.617-3.1c-.857-2.455.857-6.391,2.942-10.307C44.324,61.235,47.831,55,52.741,46.6h-13c-1.773,0-2.942.273-3.546.8-.585.546-1.052,1.812-1.422,3.819a7.034,7.034,0,0,1-.39,1.461c-.1.214-.331.292-.682.292-.409,0-.585-.214-.585-.643a13.832,13.832,0,0,1,.234-1.5c.7-3.6,1.286-6.839,1.715-9.664a14.4,14.4,0,0,1,.643-2.065c4.131.175,6.761.253,7.911.253H54.768a18.334,18.334,0,0,0,4.189-.253h.058c.234,0,.351.117.351.312Z" transform="translate(31.414 37.086)" fill="#fff"/>
    <path id="Path_352" data-name="Path 352" d="M45.426,83.154c-1.656,0-3.741-.195-5.125-1.715a9.8,9.8,0,0,1-2.085-3.878c-1.189-3.429.779-7.891,3.079-12.217,1.987-3.761,4.949-9,8.593-15.3H40.769a4.717,4.717,0,0,0-2.163.292,11.447,11.447,0,0,0-.662,2.475,8.4,8.4,0,0,1-.6,2.143,2.7,2.7,0,0,1-2.572,1.481,2.742,2.742,0,0,1-2.747-2.923,15.4,15.4,0,0,1,.273-1.929c.74-3.761,1.286-6.9,1.7-9.587a17.626,17.626,0,0,1,.76-2.533l.565-1.539,1.539.058c4.092.175,6.683.253,7.833.253H55.831a20.754,20.754,0,0,0,3.546-.156l.351-.136h.292a2.547,2.547,0,0,1,2.572,2.63c0,.8-.292,1.52-1.344,3.234-1.461,2.553-3.546,6.138-6.2,10.736l-2.494,4.326a137.7,137.7,0,0,0-7.17,13.347c.234-.019.468-.039.721-.039,3.04,0,4.93,2.1,4.93,5.475s-2.085,5.514-5.573,5.514ZM43.185,78.01a2.869,2.869,0,0,0,.195.234c.058.058.37.351,2.046.351,1.267,0,1.267-.234,1.267-.955a1.882,1.882,0,0,0-.117-.838h0a1.531,1.531,0,0,0-.487-.058,1.484,1.484,0,0,0-.974.234A5.033,5.033,0,0,1,43.2,78.01Zm-4.93-35.424a1.1,1.1,0,0,0-.039.195c-.136.935-.292,1.948-.487,3.02a11.234,11.234,0,0,1,3.04-.351H55.226c.565-.974,1.072-1.871,1.539-2.669h-12.1c-1.013,0-3.137-.058-6.391-.195Z" transform="translate(30.371 35.976)" fill="#231f20"/>
    <path id="Path_353" data-name="Path 353" d="M76.4,60.483a12.79,12.79,0,0,1-3.916,9.626,13.861,13.861,0,0,1-10,3.78,13.968,13.968,0,0,1-9.859-3.858Q47.46,65.15,47.45,56.314c0-6.9,1.968-12.7,5.865-17.4,3.916-4.7,8.729-7.054,14.477-7.054a10.1,10.1,0,0,1,5.787,1.461A4.6,4.6,0,0,1,75.7,37.277a3.575,3.575,0,0,1-.974,2.611,3.48,3.48,0,0,1-2.572.994c-2.085,0-3.137-.916-3.137-2.786A3.51,3.51,0,0,1,70.91,35q.877-.555.877-.877c0-.818-1.189-1.228-3.585-1.228a7.116,7.116,0,0,0-4.365,1.481q-3.244,2.514-5.125,8.145a41.341,41.341,0,0,0-1.89,8.651,10.839,10.839,0,0,1,7.619-3.059A11.382,11.382,0,0,1,73.014,51.6a12.249,12.249,0,0,1,3.39,8.866Zm-8.788,2.708q0-7.219-1.578-10.171c-1.052-1.968-2.338-2.338-4.17-2.338a5.354,5.354,0,0,0-4.209,1.89c-1.15,1.578-1.325,3.839-1.325,8.067s.682,7.424,2.026,9.528c1.15,1.793,2.825,1.773,4.618,1.773,3.254,0,4.637-2.3,4.637-8.729Z" transform="translate(45.006 30.219)" fill="#fff"/>
    <path id="Path_354" data-name="Path 354" d="M63.536,77.3a16.072,16.072,0,0,1-11.282-4.443c-3.916-3.7-5.9-8.885-5.9-15.432,0-7.443,2.163-13.8,6.391-18.92,4.326-5.183,9.742-7.813,16.095-7.813a11.9,11.9,0,0,1,6.956,1.832,6.884,6.884,0,0,1,3.1,5.884,6,6,0,0,1-1.617,4.248A5.555,5.555,0,0,1,73.2,44.31c-3.9,0-5.3-2.611-5.3-5.066a5.757,5.757,0,0,1,.76-2.884,5.342,5.342,0,0,0-2.553,1.033c-1.754,1.364-3.234,3.741-4.326,7.034-.37,1.111-.7,2.26-.974,3.39a12.818,12.818,0,0,1,4.657-.838A13.53,13.53,0,0,1,75.558,51.11a14.575,14.575,0,0,1,4.053,10.5,15.054,15.054,0,0,1-4.637,11.321A15.935,15.935,0,0,1,63.516,77.3Zm4.7-25.447a8.076,8.076,0,0,1,.74,1.169c1.247,2.358,1.851,6.04,1.851,11.3a19.827,19.827,0,0,1-.9,6.839,11.257,11.257,0,0,0,2.143-1.617,10.456,10.456,0,0,0,3.215-7.95,9.86,9.86,0,0,0-2.747-7.229,8.842,8.842,0,0,0-4.306-2.514Zm-5.3,2.241a3.4,3.4,0,0,0-2.514.994c-.74,1.013-.877,3.04-.877,6.664s.565,6.527,1.656,8.242c.429.662.955.76,2.786.76,1.15,0,2.514,0,2.514-6.449,0-5.456-.7-7.95-1.305-9.06-.507-.974-.9-1.169-2.28-1.169Zm-2.942-16.25A19.5,19.5,0,0,0,55.976,41.5c-3.527,4.248-5.319,9.606-5.319,15.9,0,5.261,1.461,9.2,4.462,12.022a13.068,13.068,0,0,0,1.539,1.247,23.613,23.613,0,0,1-1.422-8.944c0-1.481,0-2.845.117-4.072l-.253.234.624-5.845a44.211,44.211,0,0,1,1.987-9.158,25.729,25.729,0,0,1,2.26-5.047Zm12.295,1.754a2.579,2.579,0,0,0,.916.117,1.3,1.3,0,0,0,1.072-.37,1.254,1.254,0,0,0,.292-.955,2.172,2.172,0,0,0-.331-1.247,5.983,5.983,0,0,1-1.169.955c-.838.526-.838.9-.838,1.13a1.685,1.685,0,0,0,.039.37h0Z" transform="translate(43.962 29.109)" fill="#231f20"/>
    <path id="Path_355" data-name="Path 355" d="M91.282,54.213s-.1.643-.292,1.812c-.273,1.715-.6,5.241-.994,10.6-1.286,0-4.287-.1-8.963-.312-1.89-.078-3.546-.136-4.969-.136-1.715,0-4.676.136-8.846.39-.585.039-1.111.039-1.539.039-1.793,0-2.708-.136-2.708-.429,0-.253.409-.565,1.228-.916a79.671,79.671,0,0,0,7.19-4.248q8.242-5.232,8.242-12.685a7.822,7.822,0,0,0-1.793-5.436,6.131,6.131,0,0,0-4.871-2.026A5.121,5.121,0,0,0,68.7,42.58a5.02,5.02,0,0,0-1.383,2.9c0,.409.351.682,1.072.8,2.63.448,3.955,1.559,3.955,3.234,0,2.085-.994,3.118-3.02,3.118a3.607,3.607,0,0,1-2.884-1.305,5.031,5.031,0,0,1-1.13-3.371,8.107,8.107,0,0,1,3.118-6.605A12.5,12.5,0,0,1,76.57,38.8a13.287,13.287,0,0,1,8.34,2.553,7.775,7.775,0,0,1,3.332,6.43c0,3.04-1.637,5.67-4.891,7.93a44.428,44.428,0,0,1-7.015,3.527s-.292.273-.136.487c.117.175.214.253.8.253,3.9,0,6.04-.078,8.671-.292a4.8,4.8,0,0,0,2.981-.974,5.431,5.431,0,0,0,1.15-3.079q.292-1.929.994-1.929a.427.427,0,0,1,.468.487Z" transform="translate(59.726 36.801)" fill="#fff"/>
    <path id="Path_356" data-name="Path 356" d="M93.055,70.023H91.048c-1.305,0-4.326-.1-9.06-.312-1.851-.078-3.488-.136-4.871-.136-1.637,0-4.579.136-8.71.39-.643.039-1.189.058-1.676.058-1.812,0-4.871,0-4.871-2.708,0-1.91,1.871-2.728,2.572-3.04a80.294,80.294,0,0,0,6.917-4.092c4.832-3.059,7.19-6.566,7.19-10.736a5.488,5.488,0,0,0-1.208-3.858,4.124,4.124,0,0,0-3.312-1.325c-1.89,0-2.436.682-2.63.916-.078.1-.156.214-.234.292,3.78,1.15,4.384,3.663,4.384,5.163,0,3.332-1.987,5.4-5.183,5.4a5.765,5.765,0,0,1-4.5-2.065,7.339,7.339,0,0,1-1.676-4.891,10.471,10.471,0,0,1,3.975-8.417,14.584,14.584,0,0,1,9.45-3.04,15.412,15.412,0,0,1,9.626,3A10.265,10.265,0,0,1,90.7,52.8a2.637,2.637,0,0,1,3.761,2.533,13.735,13.735,0,0,1-.195,1.383l-.136.818c-.273,1.6-.585,5.105-.974,10.385L93,70.023ZM77.117,65.016c1.442,0,3.118.058,5.047.136,3,.136,5.28.214,6.878.273.078-.994.156-1.929.214-2.767a10.572,10.572,0,0,1-2.358.448c-2.747.234-4.988.312-8.846.312a2.877,2.877,0,0,1-2.28-.857c-.682.526-1.422,1.052-2.221,1.559-.624.39-1.208.76-1.754,1.091,2.338-.117,4.092-.175,5.3-.175Zm11.71-9.1a16.236,16.236,0,0,1-3,2.689c.253-.019.507-.039.74-.058a3.71,3.71,0,0,0,1.7-.39h0a5.022,5.022,0,0,0,.468-1.773c.019-.175.058-.331.078-.487Zm-8.32-13.445a10.109,10.109,0,0,1,2.358,6.976,14.659,14.659,0,0,1-1.52,6.586,14.686,14.686,0,0,0,1.89-1.13c2.63-1.812,3.916-3.78,3.916-6a5.424,5.424,0,0,0-2.436-4.559,10.055,10.055,0,0,0-4.228-1.871ZM68.563,49.545a2.386,2.386,0,0,0,.546,1.4,1.512,1.512,0,0,0,1.286.546c.565,0,.74-.117.76-.136h0a1.632,1.632,0,0,0,.1-.7c0-.37-.877-.779-2.143-.994-.195-.039-.37-.078-.546-.117Z" transform="translate(58.673 35.682)" fill="#231f20"/>
    <path id="Path_357" data-name="Path 357" d="M59.366,39.462a6.664,6.664,0,0,1-.994,2.007q-2.894,5.056-8.729,15.1-8.388,14.292-8.378,17.225c0,.585.175.857.546.857a4.98,4.98,0,0,0,1.033-.662,3.749,3.749,0,0,1,2.221-.662c1.832,0,2.767,1.052,2.767,3.176S46.7,79.756,44.4,79.756c-1.364,0-2.767-.136-3.566-1.013a7.734,7.734,0,0,1-1.617-3.118c-.857-2.436.857-6.372,2.942-10.288,2.163-4.072,5.67-10.308,10.58-18.725h-13c-1.773,0-2.942.273-3.546.818-.585.546-1.052,1.812-1.422,3.8a7.371,7.371,0,0,1-.39,1.481c-.1.195-.331.292-.682.292-.409,0-.585-.214-.585-.624a13.832,13.832,0,0,1,.234-1.5c.7-3.624,1.286-6.839,1.715-9.664a15.2,15.2,0,0,1,.643-2.065c4.131.156,6.761.253,7.911.253H54.768a18.335,18.335,0,0,0,4.189-.253h.058c.234,0,.351.1.351.312Z" transform="translate(31.414 37.133)" fill="#fff"/>
    <path id="Path_358" data-name="Path 358" d="M76.4,60.523a12.834,12.834,0,0,1-3.916,9.645,13.847,13.847,0,0,1-10,3.761,13.968,13.968,0,0,1-9.859-3.858Q47.46,65.189,47.45,56.334c0-6.9,1.968-12.7,5.865-17.4,3.916-4.7,8.729-7.054,14.477-7.054a9.948,9.948,0,0,1,5.787,1.461A4.6,4.6,0,0,1,75.7,37.3a3.622,3.622,0,0,1-.974,2.63,3.48,3.48,0,0,1-2.572.994c-2.085,0-3.137-.935-3.137-2.786a3.554,3.554,0,0,1,1.89-3.1q.877-.555.877-.877c0-.818-1.189-1.228-3.585-1.228a7.24,7.24,0,0,0-4.365,1.481c-2.163,1.656-3.877,4.384-5.125,8.145a41.435,41.435,0,0,0-1.89,8.632,10.924,10.924,0,0,1,7.619-3.059,11.4,11.4,0,0,1,8.573,3.507,12.171,12.171,0,0,1,3.39,8.846Zm-8.788,2.708q0-7.219-1.578-10.171c-1.052-1.968-2.338-2.338-4.17-2.338a5.354,5.354,0,0,0-4.209,1.89c-1.15,1.578-1.325,3.839-1.325,8.067s.682,7.4,2.026,9.528c1.15,1.793,2.825,1.773,4.618,1.773,3.254,0,4.637-2.3,4.637-8.729Z" transform="translate(45.006 30.238)" fill="#fff"/>
    <path id="Path_359" data-name="Path 359" d="M91.282,54.2s-.1.662-.292,1.812c-.273,1.715-.6,5.241-.994,10.6-1.286,0-4.287-.1-8.963-.312q-2.835-.117-4.969-.117c-1.715,0-4.676.117-8.846.39-.585.039-1.111.039-1.539.039-1.793,0-2.708-.136-2.708-.429,0-.253.409-.546,1.228-.935a80.731,80.731,0,0,0,7.19-4.209q8.242-5.232,8.242-12.7a7.738,7.738,0,0,0-1.793-5.417A6.131,6.131,0,0,0,72.966,40.9,5.121,5.121,0,0,0,68.7,42.611a4.969,4.969,0,0,0-1.383,2.9c0,.429.351.682,1.072.818,2.63.468,3.955,1.539,3.955,3.254,0,2.065-.994,3.118-3.02,3.118A3.607,3.607,0,0,1,66.438,51.4a5.032,5.032,0,0,1-1.13-3.371A8.17,8.17,0,0,1,68.426,41.4,12.6,12.6,0,0,1,76.57,38.87,13.4,13.4,0,0,1,84.91,41.4a7.835,7.835,0,0,1,3.332,6.449q0,4.559-4.891,7.911a42.826,42.826,0,0,1-7.015,3.527s-.292.292-.136.507c.117.175.214.273.8.273,3.9,0,6.04-.078,8.671-.292a4.926,4.926,0,0,0,2.981-.974,5.431,5.431,0,0,0,1.15-3.079c.195-1.286.526-1.948.994-1.948a.427.427,0,0,1,.468.487Z" transform="translate(59.726 36.868)" fill="#fff"/>
    <path id="Path_360" data-name="Path 360" d="M62.834,10.769c-1.91,7.385-4.852,18.374-10.989,22.817-7.209,5.241-14.224,5.008-19.485,5.358V31.4h0c15.218-.429,19.8-3.351,29.6-20.654h.877Z" transform="translate(30.693 10.196)" fill="#fff"/>
    <path id="Path_361" data-name="Path 361" d="M31.269,42.528V30.311l2.085-.058c14.614-.409,18.511-3.157,27.8-19.543L61.8,9.56l4.891.156-.721,2.806c-1.851,7.151-4.93,19.1-11.847,24.1-6.9,5.008-13.737,5.378-18.744,5.651l-4.131.273Zm4.306-7.794v2.923c4.871-.273,10.366-.662,16.095-4.832,2.514-1.812,4.462-5.008,6-8.573-5.943,7.658-11.593,9.957-22.115,10.483Z" transform="translate(29.64 9.068)" fill="#231f20"/>
    <path id="Path_362" data-name="Path 362" d="M67.1,16.549c-.662.624-2.553-.76-4.209-3.1-1.676-2.338-2.494-4.735-1.812-5.378.643-.624,2.533.76,4.209,3.1C66.942,13.509,67.76,15.906,67.1,16.549Z" transform="translate(57.703 7.515)" fill="#fff"/>
    <path id="Path_363" data-name="Path 363" d="M67.737,20.075h-.312c-2.221-.234-4.384-2.981-5.2-4.131-.994-1.383-4.014-6.1-1.539-8.437a2.663,2.663,0,0,1,2.143-.721c2.2.214,4.4,2.962,5.241,4.131.994,1.4,4.014,6.1,1.539,8.456h0a2.624,2.624,0,0,1-1.851.74Z" transform="translate(56.655 6.424)" fill="#231f20"/>
    <path id="Path_364" data-name="Path 364" d="M69.393,16.549c-.662.624-2.533-.76-4.209-3.1-1.656-2.338-2.475-4.735-1.812-5.378.662-.624,2.553.76,4.209,3.1C69.256,13.509,70.055,15.906,69.393,16.549Z" transform="translate(59.889 7.515)" fill="#fff"/>
    <path id="Path_365" data-name="Path 365" d="M70.036,20.085h-.292c-2.2-.214-4.384-2.962-5.222-4.131-.994-1.383-3.994-6.079-1.559-8.437a2.716,2.716,0,0,1,2.182-.74c2.2.234,4.384,2.962,5.222,4.131.994,1.383,4.033,6.079,1.539,8.437h0a2.624,2.624,0,0,1-1.851.74Z" transform="translate(58.837 6.415)" fill="#231f20"/>
    <path id="Path_366" data-name="Path 366" d="M30.045,9.363A6.9,6.9,0,0,0,25.817,8.35H1.11v3.293l21.2.078a2.344,2.344,0,0,1,1.929,2.689,25.46,25.46,0,0,1-.994,4.657,33.774,33.774,0,0,1-3.429,8.417A33,33,0,0,1,4.656,40.325v.721q11.779-1.9,18.024-8.34a29.274,29.274,0,0,0,5.982-9.021,27.167,27.167,0,0,0,2.475-11.009,4.149,4.149,0,0,0-1.13-3.312Z" transform="translate(1.053 7.92)" fill="#fff"/>
    <path id="Path_367" data-name="Path 367" d="M3.546,44.825V39.934l1.325-.585A30.942,30.942,0,0,0,19.056,27.366a32.424,32.424,0,0,0,3.176-7.813,23.469,23.469,0,0,0,.838-3.741l.1-.643a.819.819,0,0,0-.1-.039l-23.031-.1L0,7.18H26.85c2.494,0,4.306.487,5.534,1.481l.058.039c1.286,1.091,1.929,2.806,1.929,5.105a29.605,29.605,0,0,1-2.689,11.983,31.972,31.972,0,0,1-6.449,9.7C20.771,40.09,14.3,43.11,6.021,44.435l-2.494.39ZM26.032,11.759a4.546,4.546,0,0,1,1.4,4.131l-.1.6a28.818,28.818,0,0,1-.974,4.326,35.963,35.963,0,0,1-3.7,9.021A32.44,32.44,0,0,1,18.53,35.2a22.384,22.384,0,0,0,3.683-3.02,27.3,27.3,0,0,0,5.534-8.359,24.923,24.923,0,0,0,2.28-10.054,2.606,2.606,0,0,0-.292-1.52,5.193,5.193,0,0,0-2.9-.526h-.838Z" transform="translate(0 6.81)" fill="#231f20"/>
    <path id="Path_368" data-name="Path 368" d="M45.563,28.847a20.015,20.015,0,0,1-5.573,5.144,23.98,23.98,0,0,1-11.925,3.546,3.631,3.631,0,0,1-2.475-.565c-.409-.331-.585-1.169-.585-2.553V7.57l-6.118.058s-.058,2.962-.058,4.365V37.206a5.6,5.6,0,0,0,1.832,4.54,6.039,6.039,0,0,0,3.994,1.344q10.376,0,16.874-6.683a26.776,26.776,0,0,0,4.988-7.58h-.935Z" transform="translate(17.86 7.18)" fill="#fff"/>
    <path id="Path_369" data-name="Path 369" d="M25.7,46.5a8.142,8.142,0,0,1-5.339-1.832,7.832,7.832,0,0,1-2.65-6.333V13.122c0-1.422.058-4.423.058-4.423l.039-2.221,10.385-.1V35.529a4.149,4.149,0,0,0,.039.779c.195.019.487.039.877.039A22.11,22.11,0,0,0,40,33.074a18.332,18.332,0,0,0,4.949-4.618l.643-.8h5.4L49.451,30.95a29.122,29.122,0,0,1-5.436,8.223c-4.7,4.852-10.892,7.307-18.355,7.307ZM22.055,11.017c0,.76-.019,1.559-.019,2.1V38.335a3.247,3.247,0,0,0,1.013,2.747,3.965,3.965,0,0,0,2.65.838,23.276,23.276,0,0,0,9.353-1.793,22.447,22.447,0,0,1-5.9.818,5.517,5.517,0,0,1-3.916-1.15c-1.169-1.052-1.325-2.825-1.325-4.267V10.978H22.075Z" transform="translate(16.798 6.051)" fill="#231f20"/>
    <path id="Path_370" data-name="Path 370" d="M77.188,33.658a15.106,15.106,0,0,0-4.209-3.6,16,16,0,0,0-4.559-1.871,35.934,35.934,0,0,0,3.722-7.365,22.525,22.525,0,0,0,1.89-7.7,4.729,4.729,0,0,0-1.111-3.312A4.189,4.189,0,0,0,69.687,8.6H48.565l.058,3.118L65.4,11.659a2.185,2.185,0,0,1,1.5,2.046c.078,1.773-.331,2.825-1.325,5.631a44.651,44.651,0,0,1-3.02,6.761,36.349,36.349,0,0,1-6.839,8.788,35.129,35.129,0,0,1-8.476,5.962v.994a32.787,32.787,0,0,0,11.087-4.306A35.372,35.372,0,0,0,67.8,29.2a12.279,12.279,0,0,1,2.65,3.683,24.841,24.841,0,0,1,1.539,3.293c.351,1.072.721,2.2,1.091,3.371.6,1.422,1.344,2.143,2.2,2.143a3.1,3.1,0,0,0,2.455-1.13,4.457,4.457,0,0,0,.935-2.923,6.094,6.094,0,0,0-1.539-3.916Z" transform="translate(44.807 8.157)" fill="#fff"/>
    <path id="Path_371" data-name="Path 371" d="M46.168,45.649V40.486l1.228-.624a33.231,33.231,0,0,0,7.95-5.592,34.235,34.235,0,0,0,6.391-8.223,41.36,41.36,0,0,0,2.864-6.43l.156-.468c.818-2.319,1.052-3.04,1.013-4.111l-18.238.078L47.4,7.42H70.7a6.165,6.165,0,0,1,4.774,1.91,7.03,7.03,0,0,1,1.734,4.91,24.4,24.4,0,0,1-2.065,8.573,44.708,44.708,0,0,1-2.358,5.2,20.632,20.632,0,0,1,2.26,1.15,16.992,16.992,0,0,1,4.832,4.15A8.495,8.495,0,0,1,81.9,38.693a6.789,6.789,0,0,1-1.481,4.443,5.164,5.164,0,0,1-4.072,1.89c-1.228,0-2.962-.6-4.189-3.488l-.195-.565c-.331-1.033-.643-2.026-.974-2.981a24.388,24.388,0,0,0-1.383-2.9c-.292-.546-.565-1.013-.8-1.383a37.59,37.59,0,0,1-8.378,6.878,35.644,35.644,0,0,1-11.788,4.579l-2.533.468ZM73.934,33.783a24.011,24.011,0,0,1,1.169,2.63c.351,1.052.682,2.046,1.013,3.1l.117.351a1.866,1.866,0,0,0,.429.662,1.743,1.743,0,0,0,.585-.448,1.989,1.989,0,0,0,.39-1.4,3.863,3.863,0,0,0-1.013-2.436l-.039-.058a11.633,11.633,0,0,0-2.65-2.436ZM69.141,12a4.723,4.723,0,0,1,.994,2.767c.1,2.065-.39,3.468-1.286,5.982l-.175.487A48.921,48.921,0,0,1,65.5,28.366a37.132,37.132,0,0,1-4.657,6.625,33.251,33.251,0,0,0,5.9-5.553l1.013-1.481a32.742,32.742,0,0,0,3.468-6.878A20.5,20.5,0,0,0,72.96,14.24a2.37,2.37,0,0,0-.507-1.734,2.262,2.262,0,0,0-1.676-.526H69.161Z" transform="translate(43.735 7.038)" fill="#231f20"/>
    <path id="Path_372" data-name="Path 372" d="M115.5,8.417,68.39,0l7.443,65.761,8.788-30.533,21.063-6.761L86.258,22.213l.8-7.4Z" transform="translate(64.867)"/>
    <path id="Path_373" data-name="Path 373" d="M110.028,15.919,87.62,0l9.762,66.424,6.1-37.508,6.508,9.587,6.566-9.606L122.634,66.5l9.8-66.463Z" transform="translate(83.106)"/>
    <path id="Path_374" data-name="Path 374" d="M103.137,6.78,70.13,1.87,75.235,51.5l5.319-20.537,13.328-4.267-12.49-4.053,1.325-12.373Z" transform="translate(66.517 1.774)" fill="#ed1c24"/>
    <path id="Path_375" data-name="Path 375" d="M75.814,51.843l-.74-.058L69.91,1.63l.487.078,33.027,4.91v.8L83.3,10.866,82.03,22.615l13.386,4.326-14.321,4.6-5.28,20.323ZM70.767,2.565,75.6,49.582l4.852-18.705,12.334-3.955L81.192,23.18l1.383-13.016,18.218-3.118L70.748,2.565Z" transform="translate(66.309 1.546)" fill="#ed1c24"/>
    <path id="Path_376" data-name="Path 376" d="M108.33,16.682,89.41,2.75l6.294,48.6,4.228-33.163,8.359,12.334,8.437-12.334,4.209,33.163,6.313-48.6Z" transform="translate(84.804 2.608)" fill="#ed1c24"/>
    <path id="Path_377" data-name="Path 377" d="M121.553,51.821h-.76l-4.072-32.17-8.184,11.964-8.106-11.964L96.32,51.821h-.76L89.15,2.31l19.426,14.3,19.407-14.3Zm-31.41-47.8,5.787,44.757,3.994-31.234,8.612,12.7,8.69-12.7,3.955,31.215L126.99,4.005,108.557,17.567,90.124,4.005Z" transform="translate(84.558 2.191)" fill="#ed1c24"/>
    <path id="Path_378" data-name="Path 378" d="M46.969,14.888A7.8,7.8,0,0,1,39.39,22.9a7.8,7.8,0,0,1-7.58-8.008A7.8,7.8,0,0,1,39.39,6.88,7.8,7.8,0,0,1,46.969,14.888Z" transform="translate(30.171 6.526)" fill="#ed1c24"/>
    <path id="Path_379" data-name="Path 379" d="M39.968,24.78A9.037,9.037,0,0,1,31.2,15.5,9.037,9.037,0,0,1,39.968,6.23,9.037,9.037,0,0,1,48.736,15.5,9.037,9.037,0,0,1,39.968,24.78Zm0-16.036A6.594,6.594,0,0,0,33.577,15.5a6.594,6.594,0,0,0,6.391,6.761A6.594,6.594,0,0,0,46.359,15.5a6.594,6.594,0,0,0-6.391-6.761Z" transform="translate(29.593 5.909)" fill="#231f20"/>
    <path id="Path_380" data-name="Path 380" d="M62.834,10.809c-1.91,7.385-4.852,18.374-10.989,22.817-7.209,5.241-14.224,4.988-19.485,5.358V31.443h0c15.218-.448,19.8-3.351,29.6-20.673l.877.039Z" transform="translate(30.693 10.215)" fill="#fff"/>
    <path id="Path_381" data-name="Path 381" d="M67.1,16.569c-.662.624-2.553-.76-4.209-3.1-1.676-2.358-2.494-4.735-1.812-5.378.643-.624,2.533.76,4.209,3.1C66.942,13.529,67.76,15.926,67.1,16.569Z" transform="translate(57.703 7.534)" fill="#fff"/>
    <path id="Path_382" data-name="Path 382" d="M69.393,16.569c-.662.624-2.533-.76-4.209-3.1-1.656-2.358-2.475-4.735-1.812-5.378.662-.624,2.553.76,4.209,3.1C69.256,13.529,70.055,15.926,69.393,16.569Z" transform="translate(59.889 7.534)" fill="#fff"/>
    <path id="Path_383" data-name="Path 383" d="M30.045,9.393A6.9,6.9,0,0,0,25.817,8.38H1.11v3.273l21.2.078a2.344,2.344,0,0,1,1.929,2.689,25.46,25.46,0,0,1-.994,4.657,33.774,33.774,0,0,1-3.429,8.417A33,33,0,0,1,4.656,40.335v.721q11.779-1.9,18.024-8.34A29.508,29.508,0,0,0,28.662,23.7a27.167,27.167,0,0,0,2.475-11.009,4.149,4.149,0,0,0-1.13-3.312Z" transform="translate(1.053 7.948)" fill="#fff"/>
    <path id="Path_384" data-name="Path 384" d="M45.563,28.858a20.206,20.206,0,0,1-5.573,5.125,23.818,23.818,0,0,1-11.925,3.566,3.631,3.631,0,0,1-2.475-.565c-.409-.331-.585-1.169-.585-2.553V7.6l-6.118.058s-.058,2.962-.058,4.365V37.236a5.534,5.534,0,0,0,1.832,4.52A6.039,6.039,0,0,0,24.656,43.1q10.376,0,16.874-6.683a26.776,26.776,0,0,0,4.988-7.58h-.935Z" transform="translate(17.86 7.209)" fill="#fff"/>
    <path id="Path_385" data-name="Path 385" d="M77.188,33.668a15.106,15.106,0,0,0-4.209-3.6,15.455,15.455,0,0,0-4.559-1.871,35.736,35.736,0,0,0,3.722-7.346,22.525,22.525,0,0,0,1.89-7.7,4.7,4.7,0,0,0-1.111-3.312A4.12,4.12,0,0,0,69.687,8.63H48.565l.058,3.118L65.4,11.689a2.185,2.185,0,0,1,1.5,2.046c.078,1.773-.331,2.806-1.325,5.612a44.889,44.889,0,0,1-3.02,6.781,36.349,36.349,0,0,1-6.839,8.788,35.129,35.129,0,0,1-8.476,5.962v.994a33.2,33.2,0,0,0,11.087-4.306,35.372,35.372,0,0,0,9.47-8.34,12.279,12.279,0,0,1,2.65,3.683A24.841,24.841,0,0,1,71.986,36.2c.351,1.072.721,2.2,1.091,3.371.6,1.422,1.344,2.143,2.2,2.143a3.1,3.1,0,0,0,2.455-1.13,4.457,4.457,0,0,0,.935-2.923,6.133,6.133,0,0,0-1.539-3.916Z" transform="translate(44.807 8.185)" fill="#fff"/>
  </g>
</svg>
